<svg width="40" height="60" viewBox="0 0 40 60" fill="none" xmlns="http://www.w3.org/2000/svg">
    <path fill-rule="evenodd" clip-rule="evenodd"
        d="M34.9272 56.1113L36.6576 55.349C37.0446 55.129 37.2828 54.699 37.2629 54.2491V31.9214C37.2629 31.9214 37.2729 30.2015 35.4468 29.1816C33.72 28.2117 8.70117 13.5832 8.70117 13.5832C8.70117 13.5832 7.14308 13.1433 7.01406 15.503C6.88505 17.8628 7.09345 39.2906 7.09345 39.2906L34.9272 56.1113Z"
        fill="#16E3BA" />
    <path fill-rule="evenodd" clip-rule="evenodd"
        d="M35.0595 56.0611L36.6448 55.3468C37.0266 55.1266 37.2754 54.7343 37.2558 54.2838V31.8975C37.2558 31.8975 37.2558 30.1187 35.2312 29.1483C33.5279 28.1772 31.4428 26.9258 31.4428 26.9258C31.4428 26.9258 30.4345 33.2629 30.3072 35.6255C30.18 37.9882 30.9044 54.0362 30.9044 54.0362L35.0595 56.0611Z"
        fill="url(#paint0_linear_1534_1371)" />
    <path fill-rule="evenodd" clip-rule="evenodd"
        d="M34.3921 29.897L8.28113 14.7324C8.17213 14.6722 8.06313 14.6321 7.96403 14.6121C1.01762 11.7355 1.70136 17.3684 1.70136 17.3684L7.10193 20.3151V38.5367C7.10193 39.4087 7.63703 40.441 8.29104 40.8119L34.3921 55.9665C35.0461 56.3474 35.5812 55.9364 35.5812 55.0644V32.1722C35.5812 31.3002 35.0461 30.2678 34.3921 29.897Z"
        fill="url(#paint1_linear_1534_1371)" />
    <path fill-rule="evenodd" clip-rule="evenodd"
        d="M30.1958 56.8382L33.7009 54.599C33.8292 54.5187 33.8984 54.3781 33.8984 54.2376V33.0107C33.8984 32.358 33.5627 31.7455 33.0097 31.4141L7.8618 16.242C7.36813 15.9509 6.77571 15.9006 6.24254 16.1115L2.91516 17.4369C2.65844 17.5373 2.55971 17.8587 2.72756 18.0896L30.1958 56.8382Z"
        fill="#0EE7EA" />
    <path fill-rule="evenodd" clip-rule="evenodd"
        d="M29.7157 57.0814L33.2202 54.8437C33.3485 54.7634 33.4176 54.6229 33.4176 54.4824V33.2693C33.4176 32.6171 33.082 32.0049 32.5292 31.6738L7.38566 16.5115C6.89207 16.2205 6.16155 16.1302 5.62848 16.3409L2.43001 17.5852C2.17334 17.6856 2.08449 18.1271 2.24244 18.3579L29.7157 57.0814Z"
        fill="url(#paint2_linear_1534_1371)" />
    <path fill-rule="evenodd" clip-rule="evenodd"
        d="M29.0331 57.3245L32.5284 55.1137C32.6567 55.0337 32.6962 54.7736 32.6962 54.6336V33.4958C32.6962 32.8455 32.3605 32.2353 31.8076 31.9052L6.65966 16.7896C6.16598 16.4995 5.34647 16.3595 4.82317 16.5695L1.71301 17.97C1.45629 18.0701 1.35756 18.3902 1.52541 18.6203L29.0331 57.3245Z"
        fill="#0EE7EA" />
    <path fill-rule="evenodd" clip-rule="evenodd"
        d="M28.4304 57.8109L31.8072 55.6357C31.9355 55.5555 31.975 55.3751 31.975 55.2247V33.8038C31.975 33.1523 31.6393 32.5408 31.0864 32.21L5.93846 17.064C5.44479 16.7733 4.6944 16.5929 4.1711 16.8034L0.991815 18.2569C0.735103 18.3571 0.636368 18.6779 0.804218 18.9084L28.4304 57.8109Z"
        fill="url(#paint3_linear_1534_1371)" />
    <path fill-rule="evenodd" clip-rule="evenodd"
        d="M28.0535 58.2972L31.0957 56.3153C31.2241 56.2352 31.2538 56.0351 31.2538 55.8849V34.3142C31.2538 33.6636 30.9179 33.053 30.3648 32.7227L5.20708 17.5982C4.71321 17.3079 4.07118 17.0677 3.5378 17.2779L0.791889 18.389C0.535077 18.4891 1.0487 18.9996 1.20674 19.2298L28.0535 58.2972Z"
        fill="#0EE7EA" />
    <path opacity="0.5" fill-rule="evenodd" clip-rule="evenodd"
        d="M29.0901 34.729L33.8447 31.79C33.8447 31.79 34.1388 32.1411 34.1388 32.6727V54.0275C34.1388 54.1579 33.8711 54.485 33.7633 54.5552L30.1611 56.8773L29.0901 34.729Z"
        fill="url(#paint4_linear_1534_1371)" />
    <path fill-rule="evenodd" clip-rule="evenodd"
        d="M9.34073 14.0183C8.9161 13.7273 8.45012 13.5003 7.94893 13.3827C7.47559 13.2716 6.84058 13.1451 6.23086 13.0947C3.81799 12.8985 -0.236419 13.5362 0.0108014 18.6578L2.86867 18.2163L3.65977 18.3831C-0.790192 15.8517 5.65129 13.2955 8.50916 14.8653L10.0974 14.537L9.34073 14.0183Z"
        fill="#16E3BA" />
    <path fill-rule="evenodd" clip-rule="evenodd"
        d="M27.9794 59.9995L29.6858 59.0283C30.0728 58.808 30.3109 58.3775 30.291 57.9269V35.5686C30.291 35.5686 30.3009 33.8464 28.4755 32.8251C26.7493 31.8539 2.36362 17.5758 2.36362 17.5758C2.36362 17.5758 0.171096 16.7647 0.0421237 19.1277C-0.0868483 21.4907 0.121491 42.9479 0.121491 42.9479L27.9794 59.9995Z"
        fill="#16E3BA" />
    <path fill-rule="evenodd" clip-rule="evenodd"
        d="M28.0084 60.0001L29.6935 59.0321C30.0755 58.8126 30.3106 58.3835 30.2911 57.9344V35.6514C30.2911 35.6514 30.3009 33.935 28.4983 32.9172C26.7937 31.9492 25.1674 30.9513 25.1674 30.9513C25.1674 30.9513 23.0024 30.143 22.875 32.498C22.7477 34.8531 23.0024 57.216 23.0024 57.216L28.0084 60.0001Z"
        fill="url(#paint5_linear_1534_1371)" />
    <path fill-rule="evenodd" clip-rule="evenodd"
        d="M27.1952 59.8561L1.20909 44.7516C0.558203 44.3723 0.0256614 43.354 0.0256614 42.4855V19.684C-0.0532337 17.7473 0.0749708 17.1982 0.0749708 17.1982C0.0749708 17.1982 0.232761 17.917 0.745579 18.4062C0.913231 18.5659 1.5937 19.0252 1.84025 19.1649L27.1853 33.9C27.8362 34.2794 28.3687 35.2976 28.3687 36.1662V58.9676C28.3786 59.8361 27.846 60.2355 27.1952 59.8561Z"
        fill="url(#paint6_linear_1534_1371)" />
    <path
        d="M14.911 34.7637C14.752 34.7876 14.593 34.8056 14.4339 34.8236C14.2749 34.8415 14.1158 34.8595 13.9568 34.8834C13.9114 34.8834 13.8886 34.8834 13.8432 34.8116C13.457 34.2849 13.0707 33.7822 12.6618 33.2556L11.4349 31.6039C11.3615 31.5093 11.291 31.4148 11.2214 31.3214C11.097 31.1546 10.9752 30.9913 10.8442 30.8378L9.43555 30C9.50371 30.0958 9.57187 30.1915 9.64003 30.2633C9.75121 30.4098 9.8624 30.5584 9.97424 30.708C10.228 31.0474 10.4852 31.3912 10.7533 31.7236C10.9351 31.9629 11.1168 32.2083 11.2986 32.4537C11.4803 32.699 11.6621 32.9444 11.8439 33.1838L12.8662 34.5483C13.0253 34.7637 13.19 34.9792 13.3547 35.1946C13.5194 35.41 13.6842 35.6255 13.8432 35.8409C13.8886 35.8888 13.9114 35.9127 13.9341 35.8888C14.2067 35.8649 14.4566 35.8409 14.7293 35.7931C15.0587 35.7571 15.3825 35.7153 15.7062 35.6734C16.03 35.6315 16.3537 35.5896 16.6832 35.5537C16.937 35.5282 17.1909 35.4959 17.4414 35.4641C17.6616 35.4362 17.8792 35.4085 18.0918 35.3861C18.1827 35.3861 18.2963 35.3622 18.3872 35.3382L16.9785 34.4764C16.5051 34.5596 16.0318 34.6196 15.5508 34.6806C15.3393 34.7074 15.1261 34.7345 14.911 34.7637Z"
        fill="white" />
    <path
        d="M16.3651 40.5328L15.6608 40.6286C14.7861 39.4676 13.917 38.3125 13.0479 37.1575C12.1789 36.0025 11.3099 34.8475 10.4352 33.6865V32.6572L10.4356 32.6577C12.4121 35.2908 14.3886 37.9238 16.3651 40.5328Z"
        fill="white" />
    <path
        d="M13.1305 38.7656C12.2334 37.5696 11.339 36.3772 10.4352 35.1946V36.2239C10.9471 36.9007 11.4592 37.5825 11.9731 38.2666C12.6223 39.1309 13.2746 39.9994 13.9341 40.8679L14.6384 40.7722C14.1336 40.1031 13.6315 39.4336 13.1305 38.7656Z"
        fill="white" />
    <path
        d="M17.4102 36.8463C16.9785 36.9062 16.5469 36.96 16.1152 37.0139C15.6835 37.0678 15.2518 37.1216 14.8201 37.1815C14.8429 37.2054 14.8429 37.2293 14.8429 37.2293C14.9565 37.373 15.0644 37.5226 15.1723 37.6722C15.2802 37.8218 15.3881 37.9714 15.5017 38.115L15.5245 38.139C15.8425 38.1031 16.1549 38.0612 16.4673 38.0193C16.7797 37.9774 17.0921 37.9355 17.4102 37.8996V36.8463Z"
        fill="white" />
    <path
        d="M17.4102 39.4077C17.2625 39.4317 17.1205 39.4496 16.9786 39.4676C16.8365 39.4855 16.6945 39.5035 16.5469 39.5274C16.6603 39.6829 16.7738 39.8323 16.8873 39.9818C17.0009 40.1314 17.1149 40.2815 17.2285 40.4371L17.4102 40.4131V39.4077Z"
        fill="white" />
    <path
        d="M11.1168 41.4664L10.9805 41.3946L10.2762 42.1127L9.59459 40.5567L9.45827 40.4849L10.2307 42.2085V43.2618L10.3443 43.3336V42.2803L11.1168 41.4664Z"
        fill="white" />
    <path fill-rule="evenodd" clip-rule="evenodd"
        d="M11.5486 43.7166C11.753 44.0757 12.003 44.339 12.321 44.5305C12.6164 44.722 12.889 44.746 13.0935 44.6502C13.298 44.5545 13.4116 44.3151 13.4116 43.9799C13.4116 43.6448 13.298 43.2857 13.0935 42.9506C12.889 42.6155 12.6164 42.3521 12.321 42.1606C12.003 41.9691 11.753 41.9452 11.5486 42.0409C11.3441 42.1367 11.2532 42.3521 11.2532 42.6873C11.2532 43.0224 11.3441 43.3815 11.5486 43.7166ZM13.0027 44.5305C12.8209 44.6023 12.5937 44.5784 12.3211 44.4108C12.0257 44.2432 11.7985 44.0038 11.6168 43.6926C11.435 43.3814 11.3441 43.0702 11.3441 42.783C11.3441 42.4718 11.435 42.2803 11.6168 42.1845C11.7985 42.0888 12.0257 42.1367 12.3211 42.3042C12.5937 42.4479 12.8209 42.6872 13.0027 42.9984C13.1844 43.3096 13.2753 43.6208 13.2753 43.932C13.2753 44.2432 13.1844 44.4347 13.0027 44.5305Z"
        fill="white" />
    <path fill-rule="evenodd" clip-rule="evenodd"
        d="M15.2972 46.3019L15.1609 46.2301L14.502 44.8657L13.9567 44.5305V45.512L13.8431 45.4402V43.1182L14.5702 43.549C14.7974 43.6927 14.9791 43.8602 15.0927 44.0518C15.2063 44.2433 15.2745 44.4348 15.2745 44.6502C15.2745 44.8657 15.2063 44.9853 15.0927 45.0332C14.9791 45.0811 14.8201 45.0572 14.6383 44.9375L15.2972 46.3019ZM13.9567 43.3096V44.4347L14.5247 44.7699C14.9337 45.0092 15.1609 44.9614 15.1609 44.5784C15.1609 44.3869 15.1154 44.2193 15.0018 44.0757C14.911 43.932 14.7519 43.7884 14.5929 43.6926L13.9567 43.3096Z"
        fill="white" />
    <path fill-rule="evenodd" clip-rule="evenodd"
        d="M15.9107 46.3498C16.1152 46.7089 16.3651 46.9722 16.6832 47.1637C17.0013 47.3313 17.2512 47.3792 17.4556 47.2834C17.6601 47.1877 17.7737 46.9483 17.7737 46.6131C17.7737 46.278 17.6601 45.9189 17.4556 45.5838C17.2512 45.2486 16.9785 44.9853 16.6832 44.7938C16.3651 44.6023 16.1152 44.5784 15.9107 44.6741C15.7062 44.7699 15.6153 44.9853 15.6153 45.3205C15.6153 45.6556 15.7062 46.0147 15.9107 46.3498ZM17.3648 47.1637C17.1831 47.2355 16.9559 47.2116 16.6832 47.044C16.4106 46.8765 16.1834 46.6371 15.9789 46.3259C15.7972 46.0147 15.7063 45.7035 15.7063 45.4162C15.7063 45.105 15.7972 44.9135 15.9789 44.8178C16.1607 44.722 16.3879 44.7699 16.6832 44.9375C16.9559 45.0811 17.1831 45.3205 17.3648 45.6317C17.5466 45.9429 17.6375 46.2541 17.6375 46.5653C17.6375 46.8765 17.5466 47.068 17.3648 47.1637Z"
        fill="white" />
    <path d="M18.2508 45.7513V48.0734L18.3644 48.1452V45.8232L18.2508 45.7513Z" fill="white" />
    <path
        d="M13.0934 45.7274L13.1389 45.7514L12.9571 46.2062L12.9117 46.1823L12.7527 45.5838L12.5936 45.9908L12.5482 45.9668L12.3664 45.2965L12.4119 45.3205L12.5709 45.9189L12.7299 45.512L12.7754 45.5359L12.9344 46.1344L13.0934 45.7274Z"
        fill="white" />
    <path fill-rule="evenodd" clip-rule="evenodd"
        d="M13.868 46.1104L13.9288 46.1344V46.7089L13.868 46.6849V46.5652C13.8073 46.6131 13.7161 46.6131 13.5641 46.5652C13.4729 46.5174 13.3817 46.4456 13.3209 46.3737C13.2602 46.3019 13.2298 46.2062 13.2298 46.1104C13.2298 46.0147 13.2602 45.9668 13.3209 45.9428C13.3817 45.9189 13.4729 45.9189 13.5641 45.9668C13.6249 45.9907 13.6857 46.0386 13.7465 46.0865C13.8072 46.1343 13.8376 46.1822 13.868 46.2301V46.1104ZM13.5944 46.5173C13.6856 46.5652 13.7464 46.5652 13.8072 46.5413C13.868 46.5173 13.8984 46.4695 13.8984 46.3977C13.8984 46.3258 13.868 46.254 13.8072 46.1822C13.7464 46.1104 13.6856 46.0625 13.5944 46.0146C13.5032 45.9668 13.4425 45.9668 13.3817 45.9907C13.3209 46.0146 13.2905 46.0625 13.2905 46.1343C13.2905 46.2061 13.3209 46.278 13.3817 46.3498C13.4121 46.4216 13.5032 46.4695 13.5944 46.5173Z"
        fill="white" />
    <path d="M13.9795 46.8525V45.9907L14.025 46.0147V46.8764L13.9795 46.8525Z" fill="white" />
    <path d="M14.2749 46.1583V47.02L14.3203 47.044V46.1822L14.2749 46.1583Z" fill="white" />
    <path fill-rule="evenodd" clip-rule="evenodd"
        d="M14.658 47.1695C14.5914 47.0926 14.5581 47.0157 14.5581 46.9389L15.2064 47.1884V47.4031C15.2064 47.4749 15.2064 47.4988 15.2291 47.5467C15.2291 47.5706 15.2746 47.6185 15.32 47.6425C15.3654 47.6903 15.4109 47.6903 15.4563 47.6903V47.6425C15.4109 47.6425 15.3882 47.6425 15.3427 47.6185L15.2746 47.5467C15.2518 47.5228 15.2518 47.4749 15.2518 47.427V47.0679L15.4563 47.1876V47.1398L15.2518 47.0201V46.8046L15.2064 46.7807V46.9722L15.1382 46.9243V46.9376C15.0725 46.8526 14.9817 46.8061 14.891 46.7595C14.7911 46.7083 14.6912 46.7083 14.6247 46.7339C14.5581 46.7595 14.5248 46.8108 14.5248 46.9133C14.5248 47.0157 14.5581 47.1182 14.6247 47.1951C14.6912 47.272 14.7911 47.3488 14.891 47.4001C15.0241 47.4513 15.124 47.4769 15.1906 47.4257L15.1573 47.3744C15.0907 47.4001 14.9908 47.4001 14.891 47.3488C14.7911 47.2976 14.7245 47.2463 14.658 47.1695ZM15.1779 47C15.1886 47.0209 15.1985 47.0447 15.2064 47.0713V47.0201L15.1779 47ZM14.658 46.7595C14.6912 46.7339 14.7911 46.7595 14.8577 46.7851C14.9576 46.8107 15.0241 46.8618 15.0574 46.9386C15.124 46.9898 15.1573 47.0665 15.1573 47.1433L14.5581 46.8874C14.5581 46.8107 14.5914 46.7851 14.658 46.7595Z"
        fill="white" />
    <path fill-rule="evenodd" clip-rule="evenodd"
        d="M38.2259 37.7031L37.2611 37.3838L37.2909 37.7031L28.6279 42.6027L26.2807 41.3155C26.2807 41.3155 24.3213 40.5371 22.8394 42.7724L28.608 43.9499L38.2259 37.7031Z"
        fill="#0EE7EA" />
    <path fill-rule="evenodd" clip-rule="evenodd"
        d="M28.6092 50.5156L24.8827 48.431C23.3301 47.5608 22.3584 45.9012 22.3584 44.1101C22.3584 42.1369 24.452 40.8922 26.165 41.8434L28.6092 43.2095V50.5156Z"
        fill="url(#paint7_linear_1534_1371)" />
    <path fill-rule="evenodd" clip-rule="evenodd"
        d="M27.1667 45.8363C27.1667 46.6509 26.5245 47.0728 25.7242 46.7686C24.9239 46.4644 24.2817 45.5517 24.2817 44.7372C24.2817 43.9227 24.9239 43.5007 25.7242 43.8049C26.5245 44.1092 27.1667 45.0218 27.1667 45.8363Z"
        fill="url(#paint8_linear_1534_1371)" />
    <path fill-rule="evenodd" clip-rule="evenodd"
        d="M38.2257 44.8792L28.6091 50.515V43.2618L38.2257 37.626V44.8792Z"
        fill="url(#paint9_linear_1534_1371)" />
    <path fill-rule="evenodd" clip-rule="evenodd"
        d="M20.0382 22.8386C17.4847 21.6077 15.4155 18.1903 15.4155 15.1783C15.4155 14.0488 15.709 13.151 16.1933 12.5283L15.7971 12.6441L16.7363 12.007C16.751 11.9925 16.7693 11.9816 16.7876 11.9708C16.806 11.9599 16.8243 11.9491 16.839 11.9346L16.8684 11.9056C17.7048 11.3843 18.8202 11.3409 20.0382 11.9346C22.5917 13.1654 24.6608 16.5829 24.6608 19.5949C24.6608 21.0285 24.1912 22.1001 23.4281 22.7082L23.4135 22.7227C23.3694 22.7517 23.3291 22.7806 23.2887 22.8096C23.2484 22.8386 23.208 22.8675 23.164 22.8965L22.2541 23.5336L22.2982 23.2295C21.6231 23.3454 20.86 23.2295 20.0382 22.8386ZM20.0382 14.4108C18.6441 13.7447 17.5141 14.5266 17.5141 16.1774C17.5141 17.8138 18.6441 19.6963 20.0382 20.3768C21.4323 21.043 22.5623 20.261 22.5623 18.6102C22.5623 16.9594 21.4323 15.0769 20.0382 14.4108Z"
        fill="url(#paint10_linear_1534_1371)" />
    <path fill-rule="evenodd" clip-rule="evenodd"
        d="M14.3735 15.9461C14.3735 12.9486 16.4427 11.5005 18.9962 12.7169C21.535 13.9333 23.6042 17.3652 23.6188 20.3772C23.6188 23.3747 21.5497 24.8228 18.9962 23.6064C16.4427 22.3756 14.3735 18.9581 14.3735 15.9461ZM16.4721 16.9308C16.4721 18.5816 17.6021 20.4641 18.9962 21.1302C20.3903 21.8108 21.5203 21.0144 21.5203 19.3636C21.5203 17.7128 20.3903 15.8303 18.9962 15.1642C17.6021 14.4981 16.4721 15.28 16.4721 16.9308Z"
        fill="url(#paint11_linear_1534_1371)" />
    <ellipse cx="3.46803" cy="5.51894" rx="3.46803" ry="5.51894"
        transform="matrix(0.886977 -0.461815 0.472813 0.881163 13.3086 14.8398)"
        fill="url(#paint12_linear_1534_1371)" />
    <path fill-rule="evenodd" clip-rule="evenodd"
        d="M19.789 19.0666L17.5398 17.7137C17.293 18.3145 16.9794 19.0595 16.7216 19.6529C16.6923 19.6964 16.6482 19.6964 16.5895 19.6674C16.5015 19.6239 16.4868 19.595 16.4868 19.5081V19.4791L17.291 17.564L16.5749 17.1333C16.5308 17.1043 16.5015 17.0464 16.5015 16.9885V16.8581C16.5015 16.8002 16.5308 16.7857 16.5749 16.8002L17.4026 17.2981L17.6764 16.6461L16.9711 16.221C16.9271 16.192 16.8977 16.1341 16.8977 16.0762V15.9314C16.8977 15.8734 16.9271 15.859 16.9711 15.8734L17.7928 16.3688L18.4386 14.8308C18.4973 14.715 18.6441 14.6281 18.7761 14.715C18.9229 14.8019 18.9963 14.9756 19.0403 15.1494L19.7118 17.5255L20.4784 17.9876C20.5225 18.0166 20.5518 18.0745 20.5518 18.1324V18.2628C20.5518 18.3352 20.5225 18.3641 20.4784 18.3352L19.8302 17.9444L20.1073 18.925L20.86 19.3778C20.904 19.4067 20.9334 19.4647 20.9334 19.5226V19.6529C20.948 19.7108 20.904 19.7398 20.86 19.7108L20.2207 19.3263L20.9187 21.7961C20.9627 21.9119 21.0214 22.1002 20.904 22.1291C20.7426 22.1726 20.6692 22.0567 20.6399 21.9553L19.789 19.0666ZM19.4271 17.7014L19.6951 18.6771L17.6768 17.463L17.9422 16.8063L19.4271 17.7014ZM19.3126 17.2849L18.0551 16.5269L18.5707 15.2508C18.6441 15.048 18.7174 15.1349 18.8055 15.439L19.3126 17.2849Z"
        fill="white" />
    <path fill-rule="evenodd" clip-rule="evenodd"
        d="M36.0336 7.76768C34.295 6.92431 32.8862 4.58273 32.8862 2.51895C32.8862 1.74504 33.0861 1.12988 33.4158 0.703232L33.146 0.782608L33.7855 0.346041C33.7955 0.336119 33.808 0.328678 33.8204 0.321236C33.8329 0.313795 33.8454 0.306353 33.8554 0.296431L33.8754 0.276587C34.4449 -0.080604 35.2043 -0.11037 36.0336 0.296431C37.7721 1.1398 39.1809 3.48139 39.1809 5.54516C39.1809 6.52743 38.8612 7.26166 38.3416 7.67838L38.3316 7.68831C38.3017 7.70815 38.2742 7.72799 38.2467 7.74784C38.2192 7.76768 38.1918 7.78753 38.1618 7.80737L37.5423 8.24394L37.5723 8.03558C37.1127 8.11495 36.5931 8.03557 36.0336 7.76768ZM36.0336 1.99309C35.0844 1.53668 34.315 2.07247 34.315 3.20357C34.315 4.32475 35.0844 5.61461 36.0336 6.08095C36.9828 6.53736 37.7521 6.00157 37.7521 4.87046C37.7521 3.73936 36.9828 2.4495 36.0336 1.99309Z"
        fill="url(#paint13_linear_1534_1371)" />
    <path fill-rule="evenodd" clip-rule="evenodd"
        d="M32.1768 3.04488C32.1768 0.991033 33.5856 -0.00116479 35.3241 0.832281C37.0526 1.66573 38.4614 4.01724 38.4714 6.08101C38.4714 8.13486 37.0626 9.12706 35.3241 8.29361C33.5856 7.45024 32.1768 5.10865 32.1768 3.04488ZM33.6056 3.71958C33.6056 4.85068 34.3749 6.14054 35.3241 6.59695C36.2733 7.06329 37.0426 6.51758 37.0426 5.38647C37.0426 4.25536 36.2733 2.96551 35.3241 2.5091C34.3749 2.05268 33.6056 2.58847 33.6056 3.71958Z"
        fill="url(#paint14_linear_1534_1371)" />
    <ellipse cx="2.36442" cy="3.77616" rx="2.36442" ry="3.77616"
        transform="matrix(0.885771 -0.464123 0.470486 0.882407 31.4517 2.28711)"
        fill="url(#paint15_linear_1534_1371)" />
    <path fill-rule="evenodd" clip-rule="evenodd"
        d="M35.8638 5.1836L34.3324 4.25658C34.1643 4.66822 33.9508 5.17872 33.7753 5.58531C33.7554 5.61508 33.7254 5.61508 33.6854 5.59524C33.6255 5.56547 33.6155 5.54563 33.6155 5.48609V5.46625L34.163 4.15403L33.6754 3.85889C33.6455 3.83904 33.6255 3.79936 33.6255 3.75967V3.67037C33.6255 3.63068 33.6455 3.62076 33.6754 3.63068L34.239 3.97184L34.4254 3.5251L33.9452 3.2338C33.9152 3.21396 33.8952 3.17427 33.8952 3.13458V3.03536C33.8952 2.99568 33.9152 2.98575 33.9452 2.99568L34.5047 3.33507L34.9444 2.28129C34.9843 2.20192 35.0842 2.14239 35.1742 2.20192C35.2741 2.26145 35.324 2.38051 35.354 2.49958L35.8112 4.12764L36.3332 4.44429C36.3632 4.46413 36.3831 4.50382 36.3831 4.54351V4.6328C36.3831 4.68241 36.3632 4.70226 36.3332 4.68241L35.8918 4.41467L36.0805 5.08658L36.593 5.39679C36.6229 5.41664 36.6429 5.45633 36.6429 5.49601V5.58531C36.6529 5.625 36.6229 5.64484 36.593 5.625L36.1577 5.36152L36.6329 7.05377C36.6629 7.13314 36.7029 7.26213 36.6229 7.28197C36.513 7.31174 36.4631 7.23236 36.4431 7.16291L35.8638 5.1836ZM35.6174 4.24818L35.7999 4.9167L34.4257 4.08485L34.6064 3.63488L35.6174 4.24818ZM35.5394 3.96278L34.6832 3.44339L35.0343 2.56903C35.0842 2.43012 35.1342 2.48966 35.1941 2.69802L35.5394 3.96278Z"
        fill="white" />
    <path fill-rule="evenodd" clip-rule="evenodd"
        d="M14.6126 8.46706C13.2001 7.78325 12.0554 5.88467 12.0554 4.21134C12.0554 3.58384 12.2178 3.08506 12.4857 2.73913L12.2665 2.80349L12.7861 2.44952C12.7942 2.44147 12.8043 2.43544 12.8145 2.42941C12.8246 2.42337 12.8348 2.41734 12.8429 2.40929L12.8591 2.39321C13.3219 2.10359 13.9388 2.07946 14.6126 2.40929C16.0252 3.09311 17.1699 4.99169 17.1699 6.66502C17.1699 7.46146 16.9101 8.05678 16.4879 8.39466L16.4798 8.40271C16.4555 8.4188 16.4331 8.43489 16.4108 8.45098C16.3885 8.46706 16.3662 8.48315 16.3418 8.49924L15.8385 8.85322L15.8628 8.68428C15.4894 8.74863 15.0673 8.68428 14.6126 8.46706ZM14.6126 3.78496C13.8414 3.4149 13.2163 3.84932 13.2163 4.76644C13.2163 5.6755 13.8414 6.72133 14.6126 7.09944C15.3839 7.4695 16.009 7.03508 16.009 6.11797C16.009 5.20086 15.3839 4.15503 14.6126 3.78496Z"
        fill="url(#paint16_linear_1534_1371)" />
    <path fill-rule="evenodd" clip-rule="evenodd"
        d="M11.479 4.63782C11.479 2.97254 12.6237 2.16805 14.0362 2.84382C15.4407 3.51959 16.5853 5.42622 16.5934 7.09954C16.5934 8.76483 15.4488 9.56931 14.0362 8.89355C12.6237 8.20973 11.479 6.31115 11.479 4.63782ZM12.6399 5.18487C12.6399 6.10198 13.265 7.14781 14.0362 7.51788C14.8074 7.89599 15.4325 7.45352 15.4325 6.53641C15.4325 5.61929 14.8074 4.57346 14.0362 4.2034C13.265 3.83334 12.6399 4.26776 12.6399 5.18487Z"
        fill="url(#paint17_linear_1534_1371)" />
    <ellipse cx="1.92024" cy="3.06317" rx="1.92024" ry="3.06317"
        transform="matrix(0.886168 -0.463365 0.471249 0.882 10.8899 4.02344)"
        fill="url(#paint18_linear_1534_1371)" />
    <path fill-rule="evenodd" clip-rule="evenodd"
        d="M14.4747 6.37176L13.2304 5.62012C13.0939 5.95388 12.9204 6.3678 12.7778 6.69747C12.7616 6.72161 12.7372 6.72161 12.7048 6.70552C12.6561 6.68138 12.6479 6.66529 12.6479 6.61702V6.60093L13.0928 5.53697L12.6967 5.29767C12.6723 5.28158 12.6561 5.2494 12.6561 5.21722V5.14482C12.6561 5.11264 12.6723 5.10459 12.6967 5.11264L13.1546 5.38925L13.306 5.02703L12.9158 4.79084C12.8915 4.77475 12.8753 4.74257 12.8753 4.71039V4.62995C12.8753 4.59777 12.8915 4.58972 12.9158 4.59777L13.3704 4.87295L13.7277 4.01854C13.7601 3.95418 13.8413 3.90591 13.9144 3.95418C13.9956 4.00245 14.0362 4.09899 14.0605 4.19552L14.432 5.51558L14.8561 5.77231C14.8804 5.7884 14.8967 5.82058 14.8967 5.85276V5.92517C14.8967 5.96539 14.8804 5.98148 14.8561 5.96539L14.4975 5.7483L14.6508 6.29309L15.0672 6.54462C15.0915 6.56071 15.1077 6.59289 15.1077 6.62507V6.69747C15.1159 6.72965 15.0915 6.74574 15.0672 6.72965L14.7135 6.51602L15.0996 7.88811C15.124 7.95247 15.1565 8.05705 15.0915 8.07314C15.0022 8.09728 14.9616 8.03292 14.9454 7.9766L14.4747 6.37176ZM14.2745 5.61331L14.4228 6.15535L13.3063 5.48088L13.453 5.11604L14.2745 5.61331ZM14.2112 5.38191L13.5155 4.96078L13.8007 4.25184C13.8413 4.13921 13.8819 4.18748 13.9306 4.35642L14.2112 5.38191Z"
        fill="white" />
    <defs>
        <linearGradient id="paint0_linear_1534_1371" x1="29.5101" y1="37.5066" x2="40.1353"
            y2="41.5437" gradientUnits="userSpaceOnUse">
            <stop offset="0.00313273" stop-color="white" stop-opacity="0.01" />
            <stop offset="0.6176" stop-opacity="0.12" />
            <stop offset="1" stop-opacity="0.32" />
        </linearGradient>
        <linearGradient id="paint1_linear_1534_1371" x1="37.1009" y1="81.7311" x2="93.1959"
            y2="4.18988" gradientUnits="userSpaceOnUse">
            <stop stop-color="#244ABF" />
            <stop offset="1" stop-color="#4760FF" />
        </linearGradient>
        <linearGradient id="paint2_linear_1534_1371" x1="34.8187" y1="81.82" x2="89.7137"
            y2="9.35891" gradientUnits="userSpaceOnUse">
            <stop stop-color="#244ABF" />
            <stop offset="1" stop-color="#4760FF" />
        </linearGradient>
        <linearGradient id="paint3_linear_1534_1371" x1="33.3761" y1="82.6968" x2="88.6857"
            y2="10.1204" gradientUnits="userSpaceOnUse">
            <stop stop-color="#244ABF" />
            <stop offset="1" stop-color="#4760FF" />
        </linearGradient>
        <linearGradient id="paint4_linear_1534_1371" x1="28.9467" y1="32.1276" x2="31.9064"
            y2="57.906" gradientUnits="userSpaceOnUse">
            <stop stop-color="#52FCFF" stop-opacity="0.01" />
            <stop offset="0.0864389" stop-color="#46D3F0" stop-opacity="0.1417" />
            <stop offset="0.1984" stop-color="#39A5DE" stop-opacity="0.3253" />
            <stop offset="0.3056" stop-color="#2F81D1" stop-opacity="0.5011" />
            <stop offset="0.4055" stop-color="#2767C7" stop-opacity="0.6648" />
            <stop offset="0.4951" stop-color="#2357C1" stop-opacity="0.8117" />
            <stop offset="0.5658" stop-color="#2152BF" stop-opacity="0.9276" />
            <stop offset="0.7568" stop-color="#1E48BB" stop-opacity="0.9596" />
            <stop offset="0.9984" stop-color="#1D45BA" />
        </linearGradient>
        <linearGradient id="paint5_linear_1534_1371" x1="21.9735" y1="41.3982" x2="33.4112"
            y2="46.2097" gradientUnits="userSpaceOnUse">
            <stop offset="0.00313273" stop-color="white" stop-opacity="0.01" />
            <stop offset="0.6176" stop-opacity="0.12" />
            <stop offset="1" stop-opacity="0.32" />
        </linearGradient>
        <linearGradient id="paint6_linear_1534_1371" x1="17.2947" y1="17.1982" x2="-8.21242"
            y2="40.9495" gradientUnits="userSpaceOnUse">
            <stop stop-color="#17D1AA" />
            <stop offset="0.15" stop-color="#1ACBAF" />
            <stop offset="0.37" stop-color="#21B8BC" />
            <stop offset="0.62" stop-color="#2E9BD3" />
            <stop offset="0.89" stop-color="#3F71F1" />
            <stop offset="1" stop-color="#475FFF" />
        </linearGradient>
        <linearGradient id="paint7_linear_1534_1371" x1="22.3584" y1="50.5156" x2="28.6092"
            y2="50.5156" gradientUnits="userSpaceOnUse">
            <stop stop-color="#17D1AA" />
            <stop offset="0.15" stop-color="#1ACBAF" />
            <stop offset="0.37" stop-color="#21B8BC" />
            <stop offset="0.62" stop-color="#2E9BD3" />
            <stop offset="0.89" stop-color="#3F71F1" />
            <stop offset="1" stop-color="#475FFF" />
        </linearGradient>
        <linearGradient id="paint8_linear_1534_1371" x1="27.296" y1="48.7818" x2="31.2899"
            y2="42.493" gradientUnits="userSpaceOnUse">
            <stop stop-color="#244ABF" />
            <stop offset="1" stop-color="#4760FF" />
        </linearGradient>
        <linearGradient id="paint9_linear_1534_1371" x1="28.6091" y1="50.5151" x2="38.2257"
            y2="50.5151" gradientUnits="userSpaceOnUse">
            <stop stop-color="#17D1AA" />
            <stop offset="0.15" stop-color="#1ACBAF" />
            <stop offset="0.37" stop-color="#21B8BC" />
            <stop offset="0.62" stop-color="#2E9BD3" />
            <stop offset="0.89" stop-color="#3F71F1" />
            <stop offset="1" stop-color="#475FFF" />
        </linearGradient>
        <linearGradient id="paint10_linear_1534_1371" x1="15.4155" y1="23.5337" x2="24.6608"
            y2="23.5337" gradientUnits="userSpaceOnUse">
            <stop stop-color="#17D1AA" />
            <stop offset="0.15" stop-color="#1ACBAF" />
            <stop offset="0.37" stop-color="#21B8BC" />
            <stop offset="0.62" stop-color="#2E9BD3" />
            <stop offset="0.89" stop-color="#3F71F1" />
            <stop offset="1" stop-color="#475FFF" />
        </linearGradient>
        <linearGradient id="paint11_linear_1534_1371" x1="24.0333" y1="31.1526" x2="39.6972"
            y2="9.88767" gradientUnits="userSpaceOnUse">
            <stop stop-color="#244ABF" />
            <stop offset="1" stop-color="#4760FF" />
        </linearGradient>
        <linearGradient id="paint12_linear_1534_1371" x1="4.22847" y1="8.74401e-07" x2="-2.31531"
            y2="5.77692" gradientUnits="userSpaceOnUse">
            <stop stop-color="#17D1AA" />
            <stop offset="0.15" stop-color="#1ACBAF" />
            <stop offset="0.37" stop-color="#21B8BC" />
            <stop offset="0.62" stop-color="#2E9BD3" />
            <stop offset="0.89" stop-color="#3F71F1" />
            <stop offset="1" stop-color="#475FFF" />
        </linearGradient>
        <linearGradient id="paint13_linear_1534_1371" x1="32.8862" y1="8.24398" x2="39.1809"
            y2="8.24398" gradientUnits="userSpaceOnUse">
            <stop stop-color="#17D1AA" />
            <stop offset="0.15" stop-color="#1ACBAF" />
            <stop offset="0.37" stop-color="#21B8BC" />
            <stop offset="0.62" stop-color="#2E9BD3" />
            <stop offset="0.89" stop-color="#3F71F1" />
            <stop offset="1" stop-color="#475FFF" />
        </linearGradient>
        <linearGradient id="paint14_linear_1534_1371" x1="38.7536" y1="13.4642" x2="49.5063"
            y2="-1.04112" gradientUnits="userSpaceOnUse">
            <stop stop-color="#244ABF" />
            <stop offset="1" stop-color="#4760FF" />
        </linearGradient>
        <linearGradient id="paint15_linear_1534_1371" x1="2.88288" y1="5.98281e-07" x2="-1.59249"
            y2="3.93681" gradientUnits="userSpaceOnUse">
            <stop stop-color="#17D1AA" />
            <stop offset="0.15" stop-color="#1ACBAF" />
            <stop offset="0.37" stop-color="#21B8BC" />
            <stop offset="0.62" stop-color="#2E9BD3" />
            <stop offset="0.89" stop-color="#3F71F1" />
            <stop offset="1" stop-color="#475FFF" />
        </linearGradient>
        <linearGradient id="paint16_linear_1534_1371" x1="12.0554" y1="8.85325" x2="17.1699"
            y2="8.85325" gradientUnits="userSpaceOnUse">
            <stop stop-color="#17D1AA" />
            <stop offset="0.15" stop-color="#1ACBAF" />
            <stop offset="0.37" stop-color="#21B8BC" />
            <stop offset="0.62" stop-color="#2E9BD3" />
            <stop offset="0.89" stop-color="#3F71F1" />
            <stop offset="1" stop-color="#475FFF" />
        </linearGradient>
        <linearGradient id="paint17_linear_1534_1371" x1="16.8227" y1="13.0859" x2="25.5358"
            y2="1.3075" gradientUnits="userSpaceOnUse">
            <stop stop-color="#244ABF" />
            <stop offset="1" stop-color="#4760FF" />
        </linearGradient>
        <linearGradient id="paint18_linear_1534_1371" x1="2.34129" y1="4.85317e-07" x2="-1.2896"
            y2="3.1977" gradientUnits="userSpaceOnUse">
            <stop stop-color="#17D1AA" />
            <stop offset="0.15" stop-color="#1ACBAF" />
            <stop offset="0.37" stop-color="#21B8BC" />
            <stop offset="0.62" stop-color="#2E9BD3" />
            <stop offset="0.89" stop-color="#3F71F1" />
            <stop offset="1" stop-color="#475FFF" />
        </linearGradient>
    </defs>
</svg>