<svg width="114" height="30" viewBox="0 0 114 30" fill="none" xmlns="http://www.w3.org/2000/svg">
<path fill-rule="evenodd" clip-rule="evenodd" d="M60.2995 3.91717H61.3443C61.2665 2.60542 60.3687 2 59.117 2C58.0034 2 56.8983 2.57178 56.9152 3.72377C56.9325 4.90098 57.9774 5.25415 58.9959 5.52323C59.0561 5.53935 59.1158 5.55495 59.1748 5.57036C59.8832 5.75583 60.4724 5.91004 60.4724 6.51542C60.4724 7.13767 59.8678 7.44039 59.1772 7.44039C58.3744 7.44039 57.7875 7.00315 57.7616 6.19591H56.6908C56.76 7.62539 57.8131 8.28966 59.1772 8.28966C60.3081 8.28966 61.5083 7.73467 61.5083 6.50701C61.5083 5.26327 60.4595 4.98616 59.4456 4.71838L59.3415 4.69076C58.5384 4.48055 57.9601 4.25351 57.9601 3.71536C57.9601 3.10153 58.4951 2.84927 59.0997 2.84927C59.8419 2.84927 60.222 3.20243 60.2995 3.91717ZM48.9742 6.30523H50.01C49.7254 7.42357 48.7065 8.25601 47.1612 8.25601C45.2361 8.25601 44.0273 6.92747 44.0273 5.14483C44.0273 3.37901 45.2448 2.03363 47.1698 2.03363C48.7238 2.03363 49.6302 2.81564 50.01 3.98444H48.9742C48.6463 3.2613 48.1109 2.89131 47.1698 2.89131C45.8576 2.89131 45.0718 3.89194 45.0718 5.14483C45.0718 6.39773 45.8576 7.39833 47.1698 7.39833C48.1801 7.39833 48.7238 6.96108 48.9742 6.30523ZM56.346 8.14672H55.2497L54.6364 6.51542H52.0553L51.4425 8.14672H50.3543L52.7027 2.14295H54.0063L56.346 8.14672ZM53.3588 3.04267H53.3329L52.3576 5.69981H54.3345L53.3588 3.04267ZM62.4729 2.14295H64.6743C66.0124 2.14295 66.8588 2.93336 66.8588 3.99285C66.8588 5.07756 65.9436 5.89318 64.6743 5.89318H63.5178V8.14672H62.4729V2.14295ZM63.5178 5.04393H64.5882C65.365 5.04393 65.8139 4.67394 65.8139 4.00125C65.8139 3.32856 65.365 2.99222 64.5882 2.99222H63.5178V5.04393ZM68.6352 7.28901V5.53164H71.3807V4.68235H68.6352V3.00063H71.5619V2.14295H67.5904V8.14672H71.5878V7.28901H68.6352ZM73.6685 8.14672H72.6237V2.14295H74.9721C76.3794 2.14295 77.1475 2.86609 77.1475 3.8499C77.1475 4.62349 76.6384 5.25415 75.9131 5.43073C76.4395 5.5989 76.6384 6.04456 76.8542 6.74248C76.8766 6.81005 76.8975 6.87495 76.9179 6.93754C77.0622 7.38104 77.1687 7.70892 77.4411 8.06264V8.14672H76.3188C76.1168 7.89022 76.0146 7.54071 75.9108 7.18511C75.8679 7.03939 75.8251 6.89264 75.7748 6.75089C75.5763 6.19591 75.3345 5.79231 74.5837 5.79231H73.6685V8.14672ZM73.6685 2.9754V4.95143H74.9202C75.6973 4.95143 76.1117 4.54781 76.1117 3.92558C76.1117 3.39583 75.7661 2.9754 74.8856 2.9754H73.6685ZM79.8874 10.2552V28.3757H82.8526V10.2552H79.8874ZM76.5681 20.3052V25.3557C76.5681 26.3454 76.6192 27.6905 76.824 28.3757H73.8077C73.7055 27.8428 73.6799 27.2337 73.6799 26.6246V26.2439H73.6544C73.194 27.4367 71.9927 28.7056 69.4623 28.7056C66.4971 28.7056 64.8099 26.8784 64.8099 24.7973C64.8099 21.4162 68.3589 20.958 70.4781 20.6844C70.7446 20.65 70.9887 20.6184 71.2002 20.5844C72.9385 20.3052 73.6544 20.0514 73.6544 18.9601C73.6544 17.8688 72.7086 17.1582 71.098 17.1582C69.6667 17.1582 68.6443 17.945 68.5676 19.2647H65.6791C65.8068 17.1075 67.5196 14.8741 71.0469 14.8741C75.4434 14.8741 76.5681 17.4882 76.5681 20.3052ZM70.2033 26.5484C72.0183 26.5484 73.731 25.2541 73.731 22.3356V20.9651C73.424 21.7518 72.683 22.3609 70.5103 22.7416C68.6954 23.0715 67.7496 23.5791 67.7496 24.7465C67.7496 25.7871 68.6698 26.5484 70.2033 26.5484ZM51.2612 28.3757H47.8106L44.0273 15.2548H47.0692L48.8071 22.1325C48.993 22.8705 49.1228 23.5153 49.2584 24.1911C49.3468 24.6309 49.4376 25.0838 49.5485 25.584H49.574C49.7242 24.9872 49.8378 24.439 49.9538 23.8799C50.0741 23.2979 50.1971 22.7041 50.3665 22.031L52.0789 15.2548H55.5811L57.2934 22.0564C57.4475 22.6675 57.5937 23.3317 57.7404 23.9993C57.8618 24.5515 57.9841 25.1064 58.1115 25.6348H58.137C58.2597 25.1115 58.3823 24.5416 58.5077 23.9585C58.6437 23.3256 58.7833 22.6772 58.9295 22.0564L60.5908 15.2548H63.6326L59.8242 28.3757H56.3732L54.5841 21.5234C54.3031 20.4321 54.0216 19.2647 53.8427 18.3003H53.7661C53.5361 19.3916 53.3317 20.356 53.0502 21.498L51.2612 28.3757ZM86.3835 28.3757V10.2552H89.3486V28.3757H86.3835ZM105.098 22.0564C105.072 18.3511 103.232 14.8995 98.7332 14.8995C94.8733 14.8995 92.0614 17.7927 92.0614 21.7772C92.0614 25.914 94.7711 28.731 98.7332 28.731C101.851 28.731 104.127 27.1576 104.919 24.4928H101.979C101.494 25.8125 100.241 26.3708 98.7332 26.3708C96.6627 26.3708 95.1288 25.0003 94.9244 22.6147H105.098V22.0564ZM94.9755 20.4829C95.2821 18.478 96.6627 17.1836 98.7076 17.1836C100.752 17.1836 101.954 18.4272 102.158 20.4829H94.9755ZM114 15.2548V17.5389H111.418V23.8583C111.418 25.178 111.802 26.117 112.926 26.117H113.719V28.3757H112.313C109.424 28.3757 108.479 26.5231 108.479 24.2136V17.5389H106.434V15.2548H108.479V12.3109L111.316 10.8896H111.418V15.2548H114Z" fill="white"/>
<path fill-rule="evenodd" clip-rule="evenodd" d="M3.14483 2C1.40799 2 0 3.40799 0 5.14483V25.5862C0 27.3231 1.40799 28.731 3.14483 28.731H33.0207C34.7575 28.731 36.1655 27.3231 36.1655 25.5862V5.14483C36.1655 3.40799 34.7575 2 33.0207 2H3.14483ZM23.8857 5.59454C23.2861 4.99493 22.3139 4.99493 21.7143 5.59454L13.029 14.2798C12.4294 14.8794 12.4294 15.8516 13.029 16.4512L21.7143 25.1365C22.3139 25.7361 23.2861 25.7361 23.8857 25.1365L28.7712 20.251C29.0709 19.9512 29.0709 19.4652 28.7712 19.1653L26.5998 16.994C26.3 16.6942 25.814 16.6942 25.5142 16.994L23.6142 18.8939C23.1646 19.3436 22.4354 19.3436 21.9858 18.8939L19.2716 16.1798C18.8219 15.7301 18.8219 15.001 19.2716 14.5513L21.9858 11.8371C22.4354 11.3874 23.1646 11.3874 23.6142 11.8371L25.5141 13.737C25.814 14.0368 26.3 14.0368 26.5998 13.737L28.7712 11.5657C29.0709 11.2659 29.0709 10.7798 28.7712 10.48L23.8857 5.59454Z" fill="#FF0012"/>
</svg>
