<svg width="119" height="27" viewBox="0 0 119 27" fill="none" xmlns="http://www.w3.org/2000/svg">
<path fill-rule="evenodd" clip-rule="evenodd" d="M68.1257 2.56138H69.1155C69.0418 1.31868 68.1912 0.745117 67.0054 0.745117C65.9504 0.745117 64.9035 1.28681 64.9195 2.37816C64.9359 3.49341 65.9258 3.828 66.8907 4.08291C66.9477 4.09818 67.0043 4.11297 67.0602 4.12757L67.0606 4.12771H67.0609C67.732 4.30342 68.2895 4.44937 68.2895 5.02289C68.2895 5.61238 67.7167 5.89918 67.0624 5.89918C66.3019 5.89918 65.7459 5.48494 65.7214 4.72019H64.7069C64.7724 6.07443 65.7701 6.70374 67.0624 6.70374C68.1339 6.70374 69.2708 6.17796 69.2708 5.01492C69.2708 3.83664 68.2772 3.57411 67.3168 3.32043L67.2181 3.29426C66.4572 3.09511 65.9094 2.88002 65.9094 2.3702C65.9094 1.78867 66.4163 1.54969 66.989 1.54969C67.6922 1.54969 68.0523 1.88426 68.1257 2.56138ZM57.3964 4.82376H58.3777C58.1081 5.88324 57.1428 6.67186 55.6788 6.67186C53.8551 6.67186 52.71 5.41325 52.71 3.72443C52.71 2.05155 53.8633 0.776981 55.687 0.776981C57.1592 0.776981 58.018 1.51783 58.3777 2.62511H57.3964C57.0858 1.94003 56.5786 1.58952 55.687 1.58952C54.4439 1.58952 53.6995 2.53748 53.6995 3.72443C53.6995 4.91139 54.4439 5.85933 55.687 5.85933C56.6441 5.85933 57.1592 5.44509 57.3964 4.82376ZM64.3803 6.56833H63.3416L62.7607 5.02289H60.3154L59.7348 6.56833H58.704L60.9288 0.880542H62.1637L64.3803 6.56833ZM61.5503 1.73291H61.5257L60.6018 4.2502H62.4747L61.5503 1.73291ZM70.1847 0.880542H72.2703C73.5379 0.880542 74.3398 1.62935 74.3398 2.63308C74.3398 3.6607 73.4728 4.43339 72.2703 4.43339H71.1746V6.56833H70.1847V0.880542ZM71.1746 3.62884H72.1887C72.9246 3.62884 73.3499 3.27833 73.3499 2.64104C73.3499 2.00376 72.9246 1.68511 72.1887 1.68511H71.1746V3.62884ZM76.0227 5.75576V4.09088H78.6236V3.28629H76.0227V1.69308H78.7953V0.880542H75.0328V6.56833H78.8199V5.75576H76.0227ZM80.7911 6.56833H79.8012V0.880542H82.026C83.3592 0.880542 84.0869 1.56562 84.0869 2.49765C84.0869 3.23053 83.6047 3.828 82.9176 3.99528C83.4162 4.1546 83.6047 4.57681 83.8091 5.23799C83.8304 5.30201 83.8501 5.3635 83.8695 5.42278C84.0061 5.84294 84.1071 6.15357 84.3651 6.48867V6.56833H83.3019C83.1105 6.32533 83.0136 5.99422 82.9153 5.65733C82.8747 5.51928 82.8341 5.38025 82.7865 5.24596C82.5984 4.72019 82.3694 4.33783 81.6581 4.33783H80.7911V6.56833ZM80.7911 1.66918V3.54121H81.9768C82.7131 3.54121 83.1056 3.15884 83.1056 2.56935C83.1056 2.06748 82.7783 1.66918 81.9441 1.66918H80.7911ZM86.6827 8.56581V25.7327H89.4918V8.56581H86.6827ZM83.538 18.0869V22.8715C83.538 23.8092 83.5864 25.0835 83.7804 25.7327H80.9229C80.8261 25.2278 80.8019 24.6507 80.8019 24.0737V23.713H80.7777C80.3416 24.843 79.2035 26.0452 76.8063 26.0452C73.9971 26.0452 72.3987 24.3141 72.3987 22.3425C72.3987 19.1394 75.7609 18.7053 77.7686 18.4461C78.0211 18.4135 78.2523 18.3836 78.4527 18.3514C80.0995 18.0869 80.7777 17.8465 80.7777 16.8126C80.7777 15.7788 79.8816 15.1055 78.3559 15.1055C76.9999 15.1055 76.0313 15.8509 75.9586 17.1012H73.2221C73.3432 15.0575 74.9658 12.9417 78.3074 12.9417C82.4725 12.9417 83.538 15.4181 83.538 18.0869ZM77.5083 24.0015C79.2277 24.0015 80.8503 22.7753 80.8503 20.0104V18.712C80.5594 19.4574 79.8574 20.0344 77.7991 20.395C76.0797 20.7076 75.1836 21.1885 75.1836 22.2945C75.1836 23.2802 76.0555 24.0015 77.5083 24.0015ZM59.5631 25.7327H56.2941L52.71 13.3023H55.5917L57.2381 19.818C57.4143 20.5171 57.5372 21.128 57.6657 21.7682C57.7495 22.1849 57.8355 22.614 57.9405 23.0879H57.9647C58.107 22.5224 58.2146 22.0031 58.3245 21.4734C58.4384 20.9221 58.555 20.3595 58.7155 19.7218L60.3377 13.3023H63.6556L65.2778 19.7459C65.4238 20.3248 65.5623 20.9541 65.7012 21.5865L65.7016 21.5867C65.8167 22.1098 65.9321 22.6354 66.0528 23.136H66.077C66.1932 22.6403 66.3094 22.1003 66.4282 21.5479C66.5571 20.9483 66.6893 20.3341 66.8278 19.7459L68.4016 13.3023H71.2834L67.6754 25.7327H64.406L62.7111 19.241C62.4449 18.2071 62.1782 17.1012 62.0088 16.1875H61.9361C61.7183 17.2214 61.5246 18.135 61.258 19.217L59.5631 25.7327ZM92.8368 25.7327V8.56581H95.6459V25.7327H92.8368ZM110.566 19.7459C110.542 16.2356 108.798 12.9657 104.537 12.9657C100.88 12.9657 98.216 15.7067 98.216 19.4814C98.216 23.4005 100.783 26.0693 104.537 26.0693C107.491 26.0693 109.646 24.5786 110.396 22.054H107.612C107.152 23.3043 105.965 23.8332 104.537 23.8332C102.575 23.8332 101.122 22.5349 100.928 20.2748H110.566V19.7459ZM100.977 18.2552C101.267 16.3558 102.575 15.1296 104.512 15.1296C106.449 15.1296 107.588 16.3077 107.781 18.2552H100.977ZM119 13.3023V15.4662H116.554V21.453C116.554 22.7032 116.917 23.5928 117.983 23.5928H118.733V25.7327H117.401C114.665 25.7327 113.769 23.9775 113.769 21.7896V15.4662H111.832V13.3023H113.769V10.5133L116.457 9.16688H116.554V13.3023H119Z" fill="black"/>
<path fill-rule="evenodd" clip-rule="evenodd" d="M13.9793 0.745117C12.3339 0.745117 11 2.079 11 3.72443V23.0899C11 24.7354 12.3339 26.0693 13.9793 26.0693H42.2828C43.9282 26.0693 45.2621 24.7354 45.2621 23.0899V3.72443C45.2621 2.079 43.9282 0.745117 42.2828 0.745117H13.9793ZM33.6285 4.15047C33.0605 3.58242 32.1395 3.58242 31.5715 4.15047L23.3433 12.3787C22.7752 12.9467 22.7752 13.8677 23.3433 14.4357L31.5715 22.6639C32.1395 23.2319 33.0605 23.2319 33.6285 22.6639L38.2569 18.0355C38.5409 17.7515 38.5409 17.2911 38.2569 17.007L36.1998 14.95C35.9158 14.6659 35.4553 14.6659 35.1713 14.95L33.3714 16.7499C32.9454 17.1759 32.2546 17.1759 31.8286 16.7499L29.2573 14.1786C28.8312 13.7526 28.8312 13.0618 29.2573 12.6358L31.8286 10.0645C32.2546 9.63843 32.9454 9.63843 33.3714 10.0645L35.1713 11.8644C35.4553 12.1484 35.9158 12.1484 36.1998 11.8644L38.2569 9.80736C38.5409 9.52332 38.5409 9.06283 38.2569 8.77883L33.6285 4.15047Z" fill="#FF0012"/>
</svg>
