<svg width="32" height="32" viewBox="0 0 32 32" fill="none" xmlns="http://www.w3.org/2000/svg">
<path d="M23.5906 15.6383C23.5906 15.8869 23.4918 16.1254 23.316 16.3012C23.1402 16.477 22.9017 16.5758 22.6531 16.5758H11.1687L15.1937 20.6C15.3698 20.7761 15.4688 21.015 15.4688 21.2641C15.4688 21.5131 15.3698 21.752 15.1937 21.9281C15.0176 22.1043 14.7787 22.2032 14.5296 22.2032C14.2806 22.2032 14.0417 22.1043 13.8656 21.9281L8.24058 16.3031C8.15318 16.216 8.08384 16.1125 8.03652 15.9986C7.9892 15.8846 7.96484 15.7625 7.96484 15.6391C7.96484 15.5157 7.9892 15.3935 8.03652 15.2796C8.08384 15.1656 8.15318 15.0621 8.24058 14.975L13.8656 9.35001C13.9528 9.26281 14.0563 9.19363 14.1703 9.14644C14.2842 9.09924 14.4063 9.07495 14.5296 9.07495C14.653 9.07495 14.7751 9.09924 14.889 9.14644C15.003 9.19363 15.1065 9.26281 15.1937 9.35001C15.2809 9.43722 15.3501 9.54075 15.3973 9.65469C15.4445 9.76863 15.4688 9.89075 15.4688 10.0141C15.4688 10.1374 15.4445 10.2595 15.3973 10.3735C15.3501 10.4874 15.2809 10.5909 15.1937 10.6781L11.1687 14.7008H22.6531C22.9017 14.7008 23.1402 14.7996 23.316 14.9754C23.4918 15.1512 23.5906 15.3897 23.5906 15.6383Z" fill="#8C8C8C"/>
</svg>
