<svg width="28" height="28" viewBox="0 0 28 28" fill="none" xmlns="http://www.w3.org/2000/svg">
<path d="M0 14C0 6.26801 6.26801 0 14 0C21.732 0 28 6.26801 28 14C28 21.732 21.732 28 14 28C6.26801 28 0 21.732 0 14Z" fill="white" fill-opacity="0.12"/>
<path d="M19.0306 17.9695C19.1715 18.1104 19.2506 18.3015 19.2506 18.5007C19.2506 18.7 19.1715 18.8911 19.0306 19.032C18.8897 19.1729 18.6986 19.252 18.4993 19.252C18.3001 19.252 18.109 19.1729 17.9681 19.032L14 15.0626L10.0306 19.0307C9.8897 19.1716 9.69861 19.2508 9.49935 19.2508C9.30009 19.2508 9.10899 19.1716 8.9681 19.0307C8.8272 18.8898 8.74805 18.6987 8.74805 18.4995C8.74805 18.3002 8.8272 18.1091 8.9681 17.9682L12.9375 14.0001L8.96935 10.0307C8.82845 9.88984 8.7493 9.69874 8.7493 9.49948C8.7493 9.30023 8.82845 9.10913 8.96935 8.96823C9.11024 8.82734 9.30134 8.74818 9.5006 8.74818C9.69986 8.74818 9.89095 8.82734 10.0318 8.96823L14 12.9376L17.9693 8.96761C18.1102 8.82671 18.3013 8.74756 18.5006 8.74756C18.6999 8.74756 18.8909 8.82671 19.0318 8.96761C19.1727 9.10851 19.2519 9.2996 19.2519 9.49886C19.2519 9.69812 19.1727 9.88921 19.0318 10.0301L15.0625 14.0001L19.0306 17.9695Z" fill="white"/>
</svg>
