<svg width="116" height="32" viewBox="0 0 116 32" fill="none" xmlns="http://www.w3.org/2000/svg">
<path d="M72.6239 27.3086L71.4221 30.6527L70.3342 27.3086H69.7056L68.6322 30.6556L67.4611 27.3086H66.7129L68.3594 31.955H68.9559L70.0279 28.6226L71.113 31.955H71.7094L73.356 27.3086H72.6239Z" fill="#7892E8"/>
<path d="M77.5666 27.3085V27.9108C77.4398 27.7841 77.2983 27.673 77.1451 27.5798C76.8146 27.3772 76.4331 27.2734 76.0455 27.2808C75.7339 27.2692 75.4233 27.324 75.1345 27.4414C74.8456 27.5588 74.5849 27.7362 74.3698 27.9619C74.1517 28.1892 73.9814 28.458 73.8692 28.7524C73.757 29.0468 73.705 29.3607 73.7164 29.6755C73.7164 30.377 73.9424 30.9458 74.3916 31.36C74.8367 31.7731 75.4253 31.9965 76.0324 31.9827C76.3154 31.992 76.5973 31.9437 76.8611 31.8406C77.1248 31.7376 77.3649 31.582 77.5666 31.3833V31.9535H78.2623V27.3085H77.5666ZM76.0324 31.2914C75.8109 31.2933 75.591 31.2547 75.3834 31.1777C75.1923 31.1034 75.02 30.9879 74.8787 30.8393C74.6545 30.6186 74.5054 30.3328 74.4529 30.0226C74.4342 29.9098 74.425 29.7957 74.4252 29.6813C74.4143 29.4529 74.45 29.2247 74.5303 29.0105C74.6105 28.7964 74.7335 28.6009 74.8919 28.4359C75.0409 28.281 75.2203 28.1585 75.4188 28.076C75.6172 27.9934 75.8306 27.9526 76.0455 27.9561C76.2592 27.9529 76.4713 27.9941 76.6682 28.0771C76.8536 28.159 77.0177 28.2822 77.148 28.4373C77.4378 28.7791 77.5878 29.2177 77.5681 29.6653C77.5785 29.8826 77.5451 30.0998 77.4699 30.304C77.3948 30.5082 77.2793 30.6952 77.1305 30.8539C76.9868 30.9975 76.8152 31.1104 76.6264 31.1856C76.4376 31.2608 76.2355 31.2968 76.0324 31.2914Z" fill="#7892E8"/>
<path d="M82.5966 25.1055H81.9023V31.941H82.5966V25.1055Z" fill="#7892E8"/>
<path d="M80.3798 25.1055H79.6855V31.941H80.3798V25.1055Z" fill="#7892E8"/>
<path d="M61.9613 28.2383H43.1914V29.0287H61.9613V28.2383Z" fill="#7892E8"/>
<path d="M115.379 28.2383H95.8301V29.0287H115.379V28.2383Z" fill="#7892E8"/>
<path d="M86.0365 31.9991C85.5832 32.0133 85.137 31.885 84.7605 31.6323C84.384 31.3796 84.0963 31.0151 83.9378 30.5903C83.7317 29.9846 83.7317 29.3277 83.9378 28.722C84.0416 28.4401 84.2008 28.1817 84.406 27.9622C84.6027 27.7461 84.8432 27.5745 85.1116 27.4588C85.3799 27.3431 85.6699 27.286 85.9621 27.2914C86.1132 27.2911 86.2641 27.3047 86.4127 27.3322C86.5522 27.3592 86.6885 27.4003 86.8196 27.4547C87.0732 27.5629 87.2998 27.7258 87.4832 27.9316C87.8785 28.3137 88.0797 28.8489 88.0797 29.5242C88.0895 29.6167 88.077 29.7102 88.0433 29.7969L87.9878 29.9063H84.5066C84.5517 30.2609 84.7044 30.5933 84.9441 30.8586C85.0803 31.0022 85.2452 31.1154 85.4282 31.1908C85.6112 31.2662 85.808 31.3021 86.0058 31.2961C86.2559 31.3041 86.5041 31.2516 86.7296 31.1432C86.955 31.0348 87.151 30.8736 87.3009 30.6734L87.4307 30.5173L87.9543 30.9724L87.8376 31.1182C87.6294 31.398 87.3572 31.6239 87.0439 31.7771C86.7306 31.9304 86.3852 32.0065 86.0365 31.9991ZM84.5314 29.2281H87.3622C87.3229 28.9024 87.1838 28.5967 86.964 28.3531C86.8402 28.224 86.6903 28.1227 86.5244 28.0558C86.3585 27.9889 86.1802 27.958 86.0015 27.9651C85.8137 27.9631 85.6274 27.9984 85.4534 28.069C85.2793 28.1396 85.1211 28.2441 84.9879 28.3764C84.745 28.602 84.5843 28.9023 84.5314 29.2296V29.2281Z" fill="#7892E8"/>
<path d="M90.5004 31.9832C89.9477 31.9832 89.6822 31.7775 89.5583 31.604C89.3906 31.3692 89.3074 31.041 89.3074 30.5991V27.9857H88.7109V27.3075H89.3074V25.8127L89.9871 25.7441V27.3207H91.6497V28.0003H89.9812V30.4912C89.9635 30.7224 90.0031 30.9543 90.0964 31.1665C90.1183 31.2058 90.1883 31.3225 90.48 31.3225C90.7502 31.3251 91.0143 31.2429 91.2355 31.0877L91.4586 30.9317L91.6672 31.6259L91.5213 31.7017C91.21 31.8797 90.859 31.9765 90.5004 31.9832Z" fill="#7892E8"/>
<path d="M55.2229 0.898438L49.7655 9.70424L44.4218 0.991775L44.3649 0.898438H42.8496L49.1427 11.0956V19.4916H50.4159V11.097L56.7382 0.898438H55.2229Z" fill="#7892E8"/>
<path d="M72.2919 3.40191C70.6089 1.65184 68.4854 0.763672 65.9842 0.763672C63.3897 0.763672 61.2327 1.67809 59.5672 3.48067C57.9017 5.28325 57.082 7.51022 57.082 10.1645C57.082 12.8188 57.9206 15.0793 59.573 16.8731C61.2254 18.667 63.3897 19.5901 65.9901 19.5901C68.4796 19.5901 70.5987 18.702 72.2978 16.9431C73.9968 15.1843 74.834 12.9209 74.834 10.1645C74.834 7.40813 73.9808 5.15637 72.2919 3.40191ZM73.5433 10.1791C73.5433 12.5607 72.814 14.5382 71.3629 16.0448C69.9118 17.5513 68.1223 18.3097 66.0134 18.3097C63.8141 18.3097 61.9736 17.5236 60.54 15.9762C59.1049 14.3997 58.3932 12.4542 58.3932 10.1791C58.3932 7.90399 59.1049 5.95994 60.5254 4.41842C61.9459 2.87689 63.7718 2.09373 66.0076 2.09373C68.1631 2.09373 69.9132 2.83022 71.3527 4.34404C72.7922 5.85785 73.533 7.80336 73.533 10.1776L73.5433 10.1791Z" fill="#7892E8"/>
<path d="M85.0073 11.8131C86.4074 11.6804 87.5858 11.1758 88.4973 10.3109C89.4511 9.38777 89.9368 8.04605 89.9368 6.32951C89.9368 4.69319 89.4526 3.37188 88.5017 2.38309C87.5508 1.39429 86.0968 0.898438 84.1891 0.898438H78.1309V19.4916H79.4157V11.8452H83.4847L88.7774 19.4916H90.351L85.0073 11.8131ZM88.6213 6.31493C88.6213 9.1836 87.0447 10.5778 83.8085 10.5778H79.4026V2.19641H84.2489C85.6184 2.19641 86.7049 2.54497 87.4808 3.23042C88.2567 3.91586 88.6213 4.93528 88.6213 6.31201V6.31493Z" fill="#7892E8"/>
<path d="M107.378 3.40191C105.693 1.65184 103.571 0.763672 101.069 0.763672C98.4742 0.763672 96.3172 1.67809 94.6516 3.48067C92.9861 5.28325 92.1621 7.51168 92.1621 10.1645C92.1621 12.8173 93.0022 15.0793 94.6531 16.8731C96.304 18.667 98.4698 19.5901 101.07 19.5901C103.561 19.5901 105.68 18.702 107.379 16.9431C109.078 15.1843 109.907 12.9209 109.907 10.1645C109.907 7.40813 109.058 5.15637 107.378 3.40191ZM108.622 10.1791C108.622 12.5607 107.893 14.5382 106.443 16.0448C104.993 17.5513 103.216 18.3097 101.096 18.3097C98.8986 18.3097 97.0566 17.5236 95.6244 15.9762C94.1893 14.4011 93.4776 12.4556 93.4776 10.1805C93.4776 7.90545 94.1937 5.95119 95.6098 4.41987C97.026 2.88856 98.8607 2.09519 101.083 2.09519C103.24 2.09519 104.989 2.83168 106.431 4.3455C107.874 5.85931 108.619 7.80482 108.619 10.1791H108.622Z" fill="#7892E8"/>
<path d="M114.639 19.4916H113.367V0.898438H114.639V19.4916Z" fill="#7892E8"/>
<path d="M26.5271 22.8006L23.8698 24.6469L4.3007 11.1232C4.30183 11.0963 4.29937 11.0693 4.29341 11.043V7.43783L26.5271 22.8006ZM21.0667 5.3494C19.8854 6.15881 18.6924 6.95364 17.5111 7.76159C17.4519 7.81728 17.3736 7.84827 17.2923 7.84827C17.211 7.84827 17.1328 7.81728 17.0736 7.76159C15.6151 6.74072 14.1451 5.7388 12.6837 4.72958C11.1446 3.66009 9.60742 2.5906 8.07218 1.52111L5.89913 0H0.621094C0.901111 0.195425 1.13154 0.361683 1.36343 0.522106L5.49952 3.38932L9.5904 6.23465C10.8724 7.12719 12.1529 8.02119 13.4363 8.91373C14.6555 9.7596 15.8777 10.5953 17.0969 11.4426C17.1462 11.4869 17.2101 11.5114 17.2763 11.5114C17.3425 11.5114 17.4064 11.4869 17.4557 11.4426C18.4401 10.7674 19.4348 10.1052 20.4134 9.43146C22.8499 7.76208 25.285 6.0893 27.7186 4.41311L33.036 0.778785C33.4035 0.52794 33.7652 0.27272 34.1532 0H28.8591C26.2602 1.78216 23.6627 3.5653 21.0667 5.3494ZM4.32112 16.4332C4.30952 16.4556 4.30023 16.479 4.29341 16.5032V20.0442C4.29452 20.0715 4.30096 20.0982 4.31236 20.123L17.374 29.1519H17.393L20.0502 27.3085L4.32112 16.4332ZM30.4152 7.44512L20.6948 14.1669C20.7253 14.2083 20.7595 14.2469 20.7969 14.2821C21.6195 14.8655 22.442 15.4449 23.2646 16.0205C23.2918 16.0351 23.3229 16.0408 23.3535 16.0365L30.3919 11.164C30.4016 11.1429 30.4094 11.1209 30.4152 11.0984V7.44512ZM30.4225 16.5718C29.3185 17.3331 28.2539 18.0695 27.1761 18.8148L29.7021 20.6057L30.4225 20.1055V16.5718Z" fill="#7892E8"/>
</svg>
