<svg width="24" height="24" viewBox="0 0 24 24" fill="none" xmlns="http://www.w3.org/2000/svg">
<path fill-rule="evenodd" clip-rule="evenodd" d="M9.46944 5.01257C8.80934 4.27912 8.12408 3.98972 7.51742 4.00029L7.5 4.00044C7.10218 4.00044 6.72064 4.15848 6.43934 4.43978C6.15804 4.72109 6 5.10262 6 5.50044C6 5.89827 6.15804 6.2798 6.43934 6.5611C6.72064 6.84241 7.10218 7.00044 7.5 7.00044H10.6419C10.3251 6.189 9.92148 5.51483 9.46944 5.01257ZM11 9.00044V11.0004L5 11.0004L4 11.0004V9.00044H11ZM4.33772 7.00044C4.11743 6.53602 4 6.02428 4 5.50044C4 4.57219 4.36875 3.68195 5.02513 3.02557C5.67943 2.37127 6.56612 2.00278 7.4912 2.00046C8.81053 1.98036 10.0128 2.62657 10.956 3.67464C11.3497 4.11204 11.6987 4.61826 12 5.17701C12.3013 4.61826 12.6503 4.11204 13.044 3.67464C13.9872 2.62657 15.1895 1.98036 16.5088 2.00046C17.4339 2.00278 18.3206 2.37127 18.9749 3.02557C19.6312 3.68195 20 4.57219 20 5.50044C20 6.02428 19.8826 6.53602 19.6623 7.00044H20C21.1046 7.00044 22 7.89587 22 9.00044V11.0004C22 12.105 21.1046 13.0004 20 13.0004V19.0004C20 19.7961 19.6839 20.5592 19.1213 21.1218C18.5587 21.6844 17.7957 22.0004 17 22.0004H7C6.20435 22.0004 5.44129 21.6844 4.87868 21.1218C4.31607 20.5592 4 19.7961 4 19.0004V13.0004C2.89543 13.0004 2 12.105 2 11.0004V9.00044C2 7.89587 2.89543 7.00044 4 7.00044H4.33772ZM6 13.0004V19.0004C6 19.2657 6.10536 19.52 6.29289 19.7076C6.48043 19.8951 6.73478 20.0004 7 20.0004H11V13.0004H6ZM13 13.0004V20.0004H17C17.2652 20.0004 17.5196 19.8951 17.7071 19.7076C17.8946 19.52 18 19.2657 18 19.0004V13.0004H13ZM19 11.0004L20 11.0004V9.00044H13V11.0004L19 11.0004ZM16.5 7.00044C16.8978 7.00044 17.2794 6.84241 17.5607 6.5611C17.842 6.2798 18 5.89827 18 5.50044C18 5.10262 17.842 4.72109 17.5607 4.43978C17.2794 4.15848 16.8978 4.00044 16.5 4.00044L16.4826 4.00029C15.8759 3.98972 15.1907 4.27912 14.5306 5.01257C14.0785 5.51483 13.6749 6.189 13.3581 7.00044H16.5Z" fill="#242838"/>
</svg>
