<svg width="100" height="100" viewBox="0 0 100 100" fill="none" xmlns="http://www.w3.org/2000/svg">
<path d="M50 100C77.6142 100 100 77.6142 100 50C100 22.3858 77.6142 0 50 0C22.3858 0 0 22.3858 0 50C0 77.6142 22.3858 100 50 100Z" fill="black"/>
<path d="M85.5487 54.3739C80.0874 70.8169 70.0631 81.6285 64.015 79.6551C57.9732 77.6821 57.6805 62.8991 63.1356 46.4556C68.5908 30.0121 77.9311 18.2948 83.9792 20.2682C90.0211 22.2412 91.0038 37.9304 85.5487 54.3739Z" fill="#5A7FF0"/>
<path d="M87.5403 24.643L79.373 22.0374L80.2291 26.6107L88.6396 29.2161C88.6396 29.2161 88.5041 28.4367 88.2659 27.2561C88.0277 26.0755 87.5403 24.643 87.5403 24.643Z" fill="white"/>
<path fill-rule="evenodd" clip-rule="evenodd" d="M73.5794 26.6476C69.8345 31.3503 66.1508 38.3556 63.4316 46.5519C60.712 54.7498 59.4301 62.5202 59.5755 68.4734C59.6483 71.4513 60.0778 73.9567 60.85 75.8293C61.6224 77.7023 62.7205 78.9056 64.1129 79.3603C65.5153 79.8179 67.1846 79.5462 69.0171 78.576C70.8481 77.6067 72.8099 75.9555 74.7668 73.7175C78.6792 69.243 82.5323 62.4678 85.2527 54.2774C87.9705 46.0853 89.0808 38.0907 88.7641 31.9112C88.6056 28.8201 88.0909 26.1994 87.2536 24.2391C86.4146 22.2749 85.2718 21.0169 83.8813 20.5629C82.4871 20.108 80.8659 20.4288 79.0977 21.481C77.3304 22.5327 75.4527 24.2952 73.5794 26.6476ZM78.7785 20.9488C80.6331 19.8451 82.4476 19.4414 84.0774 19.9732L84.0775 19.9732C85.708 20.5057 86.9538 21.9487 87.8279 23.995C88.7037 26.0452 89.2266 28.7444 89.3872 31.8778C89.7085 38.147 88.5826 46.2189 85.8452 54.4703L85.8451 54.4704C83.1041 62.7231 79.2143 69.5753 75.2371 74.1239C73.2491 76.3975 71.2294 78.107 69.3091 79.1236C67.3903 80.1394 65.5385 80.4791 63.9168 79.95L63.9167 79.95C62.2882 79.4182 61.084 78.0338 60.2726 76.0662C59.4611 74.0982 59.0256 71.5101 58.9518 68.4902C58.8042 62.4477 60.1036 54.6048 62.8392 46.3591C65.5752 38.1118 69.2894 31.0367 73.0907 26.2632C74.9905 23.8775 76.9229 22.053 78.7785 20.9488Z" fill="#0F0F0F"/>
<path d="M87.5593 24.4397C86.725 22.2795 85.3399 20.6505 83.6573 20.0653C82.5721 19.6883 81.605 19.4016 80.5853 19.0671C76.1273 17.6126 72.2855 15.8252 70.3388 18.0388L69.9884 18.5731L87.5593 24.4397Z" fill="#0F0F0F"/>
<path fill-rule="evenodd" clip-rule="evenodd" d="M78.8795 18.1633C79.4707 18.3663 80.0738 18.5733 80.6835 18.7722C81.0548 18.894 81.4232 19.0107 81.7943 19.1282C82.43 19.3296 83.0749 19.5338 83.7611 19.7721C85.5619 20.3984 86.9983 22.1197 87.8509 24.327L88.0894 24.9444L69.5067 18.7409L70.0898 17.8518L70.1043 17.8352C71.1944 16.5958 72.5315 16.2442 74.3189 16.6014C75.6095 16.8593 77.3362 17.6335 78.8795 18.1633ZM70.5884 18.2277L70.4711 18.4065L87.0028 23.9254C86.1779 22.137 84.9587 20.8478 83.5536 20.3591M70.5884 18.2277C71.445 17.2684 72.4691 16.8661 74.1941 17.2109C75.4408 17.46 77.1057 18.213 78.6315 18.7368C79.2313 18.9427 79.8504 19.1552 80.487 19.3629C80.8712 19.4889 81.2441 19.607 81.6169 19.725C82.2454 19.924 82.8735 20.1229 83.5536 20.3591" fill="#0F0F0F"/>
<path d="M68.8357 67.7824L62.0498 72.88L55.4133 77.2165C55.5411 77.2637 62.3579 79.5223 64.836 79.8756C68.7637 80.4342 74.6423 74.4688 77.0439 70.5036L68.8477 67.7895L68.8352 67.7886L68.8357 67.7824Z" fill="#0F0F0F"/>
<path fill-rule="evenodd" clip-rule="evenodd" d="M69.1673 67.5678L69.2038 67.1182L61.8711 72.6265L54.5735 77.0169C54.6472 77.0442 56.9688 77.8365 58.9985 78.4512C61.0227 79.0641 63.5244 80.0025 64.7917 80.1831C65.8588 80.3349 67.0281 80.041 68.1978 79.4847C69.371 78.9268 70.572 78.0919 71.7154 77.1223C74.0011 75.1841 76.0934 72.6759 77.3122 70.6636L77.5134 70.3314L69.1673 67.5678ZM68.8901 68.1313L62.2304 73.1341L55.9704 76.8465C56.1322 76.8993 56.3221 76.9609 56.5351 77.0294C57.2296 77.2529 58.1693 77.5502 59.1821 77.8569C61.2177 78.4733 63.6712 79.3956 64.882 79.5682C65.7787 79.6957 66.8172 79.4535 67.9295 78.9245C69.0383 78.3972 70.1934 77.5976 71.3108 76.6501C73.4222 74.8597 75.3659 72.5689 76.5717 70.6749L68.8901 68.1313Z" fill="#0F0F0F"/>
<path d="M54.9108 77.0348C48.2892 74.8739 47.3676 59.7432 52.8534 43.2333C58.3393 26.7234 68.1552 15.0923 74.7773 17.2471C81.3989 19.408 82.3206 34.5387 76.8347 51.0486C71.3488 67.5585 61.5329 79.1895 54.9108 77.0348Z" fill="#5A7FF0"/>
<path fill-rule="evenodd" clip-rule="evenodd" d="M63.6456 23.2254C59.7094 27.8905 55.9007 34.8883 53.167 43.1154C50.4333 51.3426 49.3011 59.2127 49.6705 65.2809C49.8553 68.316 50.4148 70.8838 51.3244 72.8169C52.2336 74.7492 53.4787 76.0206 55.0263 76.5257C56.5739 77.0292 58.3379 76.7383 60.228 75.7183C62.119 74.6979 64.109 72.9608 66.0777 70.6276C70.014 65.9625 73.8226 58.9647 76.5563 50.7376C79.2901 42.5104 80.4222 34.6403 80.0528 28.5721C79.868 25.537 79.3085 22.9692 78.3989 21.0361C77.4897 19.1038 76.2446 17.8323 74.697 17.3273C73.1494 16.8238 71.3854 17.1147 69.4953 18.1347C67.6043 19.1551 65.6143 20.8922 63.6456 23.2254ZM69.199 17.5895C71.1832 16.5187 73.1295 16.1638 74.8929 16.7375C76.6561 17.313 78.0097 18.7433 78.9642 20.7717C79.9183 22.7994 80.488 25.4513 80.6756 28.5328C81.0509 34.6976 79.901 42.6479 77.1487 50.9307C74.3965 59.2136 70.5541 66.2864 66.5552 71.0257C64.5564 73.3946 62.5078 75.1932 60.5244 76.2635C58.5402 77.3342 56.5939 77.6892 54.8304 77.1154C53.0672 76.54 51.7136 75.1097 50.7591 73.0813C49.805 71.0536 49.2353 68.4017 49.0477 65.3202C48.6724 59.1554 49.8223 51.2051 52.5746 42.9222C55.3268 34.6394 59.1692 27.5666 63.1681 22.8273C65.1669 20.4584 67.2155 18.6598 69.199 17.5895Z" fill="#0F0F0F"/>
<path d="M61.2046 53.9825L59.0172 46.2252L58.5846 62.038L67.1527 50.138L61.1921 53.983L61.2046 53.9825ZM69.0597 30.0133L59.6737 44.4114L61.8727 52.1437L67.8444 48.2612L69.0597 30.0133Z" fill="#0F0F0F"/>
<path d="M14.6525 33.8597C19.7247 47.4809 28.4512 56.2438 33.4498 54.4151C38.4531 52.5859 38.2428 40.1931 33.1706 26.5718C28.1031 12.95 19.9255 3.40571 14.9269 5.23439C9.9236 7.06361 9.58019 20.2384 14.6525 33.8597Z" fill="#2A2A6F"/>
<path fill-rule="evenodd" clip-rule="evenodd" d="M24.2043 9.95511C27.5297 13.8417 30.8537 19.6597 33.3947 26.4899C35.9376 33.3187 37.2661 39.8499 37.3277 44.9138C37.3584 47.4447 37.073 49.6228 36.4546 51.2919C35.8363 52.9607 34.8731 54.1491 33.5328 54.6391L33.4494 54.4154L33.5329 54.6391C33.5329 54.6391 33.5328 54.6391 33.5328 54.6391C32.2 55.1267 30.6464 54.8982 29.0125 54.1046C27.3773 53.3105 25.6363 51.9393 23.9036 50.0936C20.4371 46.4013 16.9722 40.7761 14.4272 33.9418C11.8826 27.1086 10.6933 20.3801 10.7711 15.1205C10.8099 12.4917 11.1654 10.2175 11.8355 8.47721C12.5044 6.73993 13.501 5.50122 14.8427 5.01067C16.1817 4.52081 17.7053 4.80374 19.2879 5.67277C20.8713 6.54223 22.5423 8.01256 24.2043 9.95511ZM19.0579 6.08977C17.543 5.25787 16.1699 5.03352 15.0095 5.45801L15.0095 5.45803C13.8495 5.88211 12.9269 6.97621 12.2827 8.64933C11.6397 10.3195 11.2882 12.5333 11.2498 15.1295C11.1731 20.32 12.3483 26.9896 14.8761 33.7778C17.4035 40.5649 20.8381 46.1319 24.2528 49.7691C25.9607 51.5883 27.6556 52.9163 29.221 53.6765C30.7877 54.4374 32.1995 54.6185 33.366 54.1917L33.3661 54.1917C34.5275 53.7671 35.4143 52.7204 36.0053 51.1254C36.5961 49.5307 36.8793 47.4162 36.8489 44.9176C36.7881 39.9223 35.4752 33.4464 32.9458 26.6538L32.9457 26.6538C30.4191 19.8621 27.1204 14.097 23.8403 10.2632C22.1996 8.34547 20.5721 6.92123 19.0579 6.08977Z" fill="#0F0F0F"/>
<path d="M23.2625 9.2552L11.3464 13.5552C11.4988 11.486 11.9411 9.54279 12.1852 8.99151L19.8158 6.18251C20.9141 6.90005 22.1112 8.00537 23.2672 9.25466L23.2625 9.2552Z" fill="white"/>
<path d="M12.1729 8.72378C12.802 6.88789 13.8037 5.59206 15.1941 5.0557C16.0902 4.70961 16.8935 4.43648 17.7363 4.13006C21.4264 2.78191 23.8726 1.57369 25.5716 3.37374L25.6869 3.7792L12.1729 8.72378Z" fill="#0F0F0F"/>
<path d="M11.754 9.14985L11.9305 8.63949C12.6143 6.65347 13.6796 5.3651 15.1022 4.81558C15.6885 4.58614 16.2358 4.39475 16.7825 4.19861C17.0696 4.09419 17.3573 3.99451 17.6486 3.8848C18.0419 3.73957 18.4257 3.59542 18.7916 3.4629C21.8855 2.30222 24.124 1.46377 25.7617 3.1935L25.8059 3.24142L26.0029 3.93097L11.754 9.14985ZM22.9183 2.7487C21.8412 2.86984 20.5513 3.35635 18.9784 3.94201C18.6083 4.07982 18.2292 4.22344 17.8311 4.3692C17.5392 4.47416 17.2474 4.57912 16.9603 4.68354C16.4178 4.8744 15.8758 5.07 15.2937 5.29416C14.1439 5.74087 13.2433 6.74622 12.6136 8.28857L25.3811 3.6114L25.3486 3.49964C24.6848 2.82411 23.8905 2.63935 22.9183 2.7487Z" fill="#0F0F0F"/>
<path d="M29.0525 44.5954L34.8949 48.6663L40.0352 52.2683C39.9295 52.3138 34.8373 54.2458 32.7709 54.6126C29.4986 55.1918 24.3928 50.3656 22.2623 47.1123L29.043 44.5965L29.0525 44.5954Z" fill="#0F0F0F"/>
<path d="M32.6189 54.9176C29.2696 55.2941 24.2668 50.6869 22.0246 47.2635L21.8306 46.9683L29.0056 44.3169L29.1104 44.3051L29.2093 44.366L40.6074 52.3285L40.143 52.5249C40.1018 52.5439 34.9504 54.5066 32.8179 54.8857C32.7512 54.8932 32.6851 54.9054 32.6136 54.9134L32.6189 54.9176ZM22.6941 47.2507C25.0294 50.6444 29.8169 54.8579 32.7192 54.3346C34.3554 54.045 38.0877 52.6983 39.4375 52.191L29.0076 44.9076L22.6893 47.2513L22.6941 47.2507Z" fill="#0F0F0F"/>
<path d="M40.9992 51.9473C46.4789 49.9446 46.7855 37.2342 41.6876 23.5626C36.5945 9.89052 28.0212 0.428823 22.5415 2.43155C17.0618 4.43428 16.7552 17.1446 21.8531 30.8162C26.9509 44.4878 35.5243 53.9495 40.9992 51.9473Z" fill="#2A2A6F"/>
<path fill-rule="evenodd" clip-rule="evenodd" d="M32.4374 6.96007C35.9275 10.8118 39.3582 16.6236 41.9127 23.4809C44.4695 30.3378 45.6753 36.9639 45.55 42.1379C45.4874 44.7242 45.0919 46.9604 44.3565 48.6842C43.6208 50.4085 42.5349 51.6409 41.0832 52.1714C39.6326 52.7019 37.9994 52.4638 36.3092 51.6265C34.6197 50.7895 32.8521 49.3443 31.1076 47.419C27.6175 43.5672 24.1856 37.7556 21.6288 30.8986C19.0719 24.0417 17.8661 17.4156 17.9914 12.2416C18.054 9.65525 18.4495 7.41905 19.1849 5.69529C19.9206 3.97091 21.0066 2.73858 22.4583 2.20801C23.91 1.67746 25.5441 1.91543 27.2348 2.75268C28.9249 3.58963 30.6929 5.03471 32.4374 6.96007ZM27.0229 3.17913C25.4057 2.37831 23.9132 2.1846 22.625 2.65541C21.3368 3.12621 20.3295 4.23372 19.6258 5.88306C18.9219 7.53302 18.5319 9.70442 18.4701 12.255C18.3467 17.3548 19.5366 23.9198 22.0777 30.7345C24.6188 37.5492 28.0227 43.3042 31.4626 47.1007C33.1831 48.9995 34.904 50.3989 36.5212 51.2001C38.1378 52.0009 39.6294 52.1947 40.9164 51.7241L40.9164 51.7241C42.2046 51.2533 43.2119 50.1457 43.9156 48.4964C44.6195 46.8465 45.0095 44.6751 45.0713 42.1245C45.1948 37.0247 44.0049 30.4597 41.4638 23.645L41.4637 23.6449C38.925 16.83 35.5223 11.0748 32.0824 7.27836C30.3619 5.3796 28.6407 3.98025 27.0229 3.17913Z" fill="#0F0F0F"/>
<path fill-rule="evenodd" clip-rule="evenodd" d="M26.7791 24.0437L26.3924 22.3413C26.3098 21.9927 26.3206 21.6993 26.4128 21.5488L26.8764 20.818C26.9411 20.7137 26.8297 20.4006 26.7052 20.3596L25.8657 20.069C25.6956 20.0111 25.4956 19.7831 25.3292 19.465L24.5221 17.9043C24.4108 17.6887 24.285 17.7344 24.3329 17.9675L24.7196 19.6699C24.8022 20.0185 24.7914 20.312 24.6992 20.4624L24.2356 21.1933C24.171 21.2975 24.2823 21.6106 24.4069 21.6516L25.2464 21.9422C25.4164 22.0001 25.6164 22.2281 25.7828 22.5462L26.5899 24.1069C26.7013 24.3226 26.827 24.2769 26.7791 24.0437Z" fill="white"/>
<path fill-rule="evenodd" clip-rule="evenodd" d="M36.7654 19.384C36.2115 18.7274 35.6348 18.4523 35.1624 18.4262C34.6912 18.4107 34.262 18.575 33.9274 18.9026C33.2344 19.5387 32.8026 20.6563 32.5424 21.94C32.3948 22.5728 32.3312 23.2727 32.258 23.9844C32.2328 24.3444 32.2196 24.714 32.1956 25.0848L32.162 26.1497C32.1439 27.3538 32.1042 28.4627 32.013 29.4037C31.9218 30.3447 31.7743 31.075 31.574 31.6268C31.3738 32.1785 31.0788 32.567 30.5908 32.7916C30.1136 33.015 29.4349 32.9997 28.6652 32.8532C27.8955 32.7067 27.0346 32.429 26.1294 32.2426C27.0513 33.9435 28.02 35.3796 29.057 36.646C30.0904 37.8804 31.2042 38.9546 32.336 39.5071C33.4606 40.0928 34.59 40.0391 35.3622 39.2322C36.1476 38.4457 36.571 37.0582 36.7749 35.5638C36.9776 34.0587 36.979 32.4123 36.8808 30.7547C36.8508 30.2922 36.8329 30.0341 36.8041 29.6797L36.7119 28.6606C36.6736 28.0256 36.5825 27.3095 36.5442 26.6745C36.44 25.3533 36.3262 24.044 36.3083 22.8112C36.2928 22.1847 36.3012 21.5773 36.354 20.976C36.3864 20.6802 36.42 20.3951 36.4871 20.1173C36.5423 19.8299 36.6347 19.5819 36.7642 19.3733L36.7654 19.384Z" fill="#E47994"/>
<path fill-rule="evenodd" clip-rule="evenodd" d="M36.7729 19.3903C35.7949 17.6738 34.6839 16.3286 33.5392 15.4635C32.4053 14.5973 31.1922 14.3891 30.3903 15.2207C29.9887 15.6311 29.6865 16.2477 29.4983 17.0039C29.3088 17.7494 29.2081 18.6047 29.1768 19.496C29.1612 19.9417 29.1684 20.3957 29.1767 20.8605L29.2486 22.185L29.3874 24.3038C29.5622 27.0361 29.8401 30.2016 28.8535 31.5291C27.8848 32.8222 27.0494 32.282 26.1516 32.2573C26.631 33.1274 27.138 33.9512 27.6641 34.654C28.1915 35.3674 28.756 36.0228 29.3385 36.5463C29.6286 36.7974 29.9283 37.0366 30.2327 37.2212C30.5252 37.3962 30.8356 37.5368 31.1293 37.6251C31.7142 37.7801 32.2836 37.6986 32.7356 37.3478C33.1875 36.9971 33.5268 36.4199 33.7558 35.7353C33.9848 35.0506 34.1275 34.2775 34.2126 33.478C34.371 31.8694 34.3232 30.1742 34.189 28.4881C34.1268 27.6391 34.0322 26.7935 33.9267 25.9491L33.7926 24.9452C33.759 24.6455 33.7267 24.3565 33.6955 24.0782C33.5925 22.9628 33.5447 22.0473 33.6478 21.3109C33.7282 20.566 34.0075 19.941 34.5613 19.6229C35.1151 19.3047 35.8739 19.2574 36.7861 19.4106L36.7729 19.3903Z" fill="white"/>
<path fill-rule="evenodd" clip-rule="evenodd" d="M39.2256 35.6494C39.724 36.983 40.5699 37.9119 41.1163 37.7245C41.6628 37.537 41.6868 36.2892 41.1884 34.9556C40.6901 33.622 39.8441 32.6931 39.2977 32.8806C38.7513 33.068 38.7272 34.3158 39.2256 35.6494Z" fill="#E77A82"/>
</svg>
