<svg width="57" height="56" viewBox="0 0 57 56" fill="none" xmlns="http://www.w3.org/2000/svg">
<g clip-path="url(#clip0_564_13554)">
<path d="M28.4997 0.583252C23.0772 0.583252 17.7764 2.19121 13.2678 5.20379C8.75915 8.21637 5.24509 12.4983 3.16999 17.508C1.09489 22.5178 0.551946 28.0303 1.60982 33.3486C2.6677 38.667 5.27889 43.5521 9.11318 47.3864C12.9475 51.2207 17.8326 53.8319 23.151 54.8898C28.4693 55.9477 33.9818 55.4047 38.9916 53.3296C44.0013 51.2545 48.2832 47.7404 51.2958 43.2318C54.3084 38.7232 55.9164 33.4224 55.9164 27.9999C55.9083 20.731 53.0172 13.7622 47.8773 8.62228C42.7374 3.48239 35.7686 0.591281 28.4997 0.583252ZM28.4997 49.5833C24.2309 49.5833 20.058 48.3174 16.5086 45.9458C12.9593 43.5742 10.1929 40.2033 8.55929 36.2595C6.9257 32.3157 6.49827 27.976 7.33107 23.7892C8.16387 19.6025 10.2195 15.7567 13.238 12.7382C16.2564 9.71971 20.1022 7.6641 24.289 6.8313C28.4757 5.9985 32.8154 6.42593 36.7593 8.05952C40.7031 9.69311 44.074 12.4595 46.4456 16.0089C48.8172 19.5582 50.083 23.7311 50.083 27.9999C50.0768 33.7223 47.8009 39.2085 43.7546 43.2548C39.7083 47.3011 34.222 49.5771 28.4997 49.5833Z" fill="#666666"/>
<path d="M15.1367 25.0833C14.3631 25.0833 13.6213 25.3905 13.0743 25.9375C12.5273 26.4845 12.22 27.2264 12.22 27.9999C12.22 28.7735 12.5273 29.5153 13.0743 30.0623C13.6213 30.6093 14.3631 30.9166 15.1367 30.9166H41.8627C42.6362 30.9166 43.3781 30.6093 43.9251 30.0623C44.4721 29.5153 44.7794 28.7735 44.7794 27.9999C44.7794 27.2264 44.4721 26.4845 43.9251 25.9375C43.3781 25.3905 42.6362 25.0833 41.8627 25.0833H15.1367Z" fill="#666666"/>
</g>
<defs>
<clipPath id="clip0_564_13554">
<rect width="56" height="56" fill="white" transform="translate(0.5)"/>
</clipPath>
</defs>
</svg>
