<svg width="49" height="42" viewBox="0 0 49 42" fill="none" xmlns="http://www.w3.org/2000/svg">
    <path
        d="M37.8235 32.8495L33.9951 35.5095L5.80131 16.0255C5.80294 15.9867 5.7994 15.9478 5.7908 15.91V10.7159L37.8235 32.8495ZM29.9566 7.70704C28.2547 8.87318 26.5359 10.0183 24.8339 11.1824C24.7486 11.2626 24.6359 11.3072 24.5187 11.3072C24.4016 11.3072 24.2889 11.2626 24.2036 11.1824C22.1024 9.71154 19.9844 8.26805 17.879 6.81405C15.6615 5.2732 13.4469 3.73235 11.235 2.19151L8.10422 0H0.5C0.903429 0.281555 1.23542 0.521087 1.56951 0.752214L7.52849 4.88309L13.4223 8.98244C15.2693 10.2683 17.1141 11.5564 18.9632 12.8423C20.7198 14.0609 22.4806 15.2649 24.2372 16.4857C24.3081 16.5495 24.4002 16.5847 24.4956 16.5847C24.591 16.5847 24.6831 16.5495 24.7541 16.4857C26.1724 15.5128 27.6054 14.5589 29.0153 13.5882C32.5257 11.1831 36.034 8.77303 39.5402 6.3581L47.2011 1.12202C47.7306 0.760618 48.2517 0.392916 48.8106 0H41.1833C37.439 2.56761 33.6967 5.13663 29.9566 7.70704ZM5.83073 23.6758C5.81401 23.708 5.80064 23.7418 5.7908 23.7767V28.8783C5.79241 28.9175 5.80169 28.9561 5.81812 28.9917L24.6364 42H24.6637L28.4921 39.3441L5.83073 23.6758ZM43.4253 10.7264L29.4208 20.4106C29.4647 20.4703 29.5139 20.5259 29.5679 20.5766C30.753 21.4171 31.938 22.2519 33.1231 23.0812C33.1623 23.1023 33.2072 23.1104 33.2513 23.1043L43.3917 16.0843C43.4056 16.0539 43.4169 16.0222 43.4253 15.9898V10.7264ZM43.4358 23.8754C41.8452 24.9722 40.3113 26.0333 38.7585 27.107L42.3978 29.6872L43.4358 28.9665V23.8754Z"
        fill="#3154CB" />
</svg>