<svg width="24" height="24" viewBox="0 0 24 24" fill="none" xmlns="http://www.w3.org/2000/svg">
<path d="M7.53453 20.9348C8.90424 21.6449 10.4051 22 12.0371 22C13.3213 22 14.5352 21.7705 15.6786 21.3116C16.8222 20.8525 17.8423 20.2198 18.7391 19.4134C19.6359 18.6068 20.3724 17.6578 20.9486 16.5662C21.5248 15.4746 21.8763 14.289 22.003 13.0093C22.0321 12.7495 21.9407 12.5328 21.7288 12.3592C21.5169 12.1856 21.2665 12.0988 20.9776 12.0988C20.6951 12.0988 20.4458 12.1824 20.2298 12.3497C20.0136 12.517 19.8869 12.7378 19.8496 13.0121C19.5962 14.9836 18.7279 16.6193 17.2448 17.919C15.7617 19.2187 14.0258 19.8685 12.0371 19.8685C10.7168 19.8685 9.49711 19.5665 8.37804 18.9624C7.25884 18.3583 6.34954 17.5564 5.65011 16.5567H6.75433C7.05147 16.5567 7.30238 16.4544 7.50708 16.2497C7.71166 16.0451 7.81395 15.7943 7.81395 15.4971C7.81395 15.2 7.71166 14.9491 7.50708 14.7445C7.30238 14.5398 7.05147 14.4375 6.75433 14.4375H3.15842C2.83657 14.4375 2.56304 14.5501 2.33782 14.7753C2.11261 15.0005 2 15.2741 2 15.5959V19.192C2 19.489 2.10229 19.7399 2.30687 19.9446C2.51157 20.1492 2.76249 20.2514 3.05963 20.2514C3.35676 20.2514 3.60762 20.1492 3.81221 19.9446C4.0169 19.7399 4.11925 19.489 4.11925 19.192V18.0734C5.0264 19.2709 6.16483 20.2246 7.53453 20.9348Z" fill="white"/>
<path d="M6.84176 6.08096C8.32488 4.78131 10.0608 4.13149 12.0495 4.13149C13.3203 4.13149 14.5236 4.42735 15.6592 5.01906C16.7948 5.61077 17.7247 6.41884 18.4489 7.44326H17.3446C17.0475 7.44326 16.7966 7.54561 16.5919 7.75031C16.3873 7.95489 16.285 8.20575 16.285 8.50289C16.285 8.80002 16.3873 9.05088 16.5919 9.25546C16.7966 9.46016 17.0475 9.56251 17.3446 9.56251H20.9405C21.2624 9.56251 21.5359 9.4499 21.7611 9.22469C21.9864 8.99948 22.099 8.72594 22.099 8.40409V4.80818C22.099 4.51104 21.9967 4.26013 21.7921 4.05543C21.5874 3.85085 21.3365 3.74856 21.0393 3.74856C20.7422 3.74856 20.4892 3.85085 20.2805 4.05543C20.0718 4.26013 19.9675 4.51104 19.9675 4.80818V5.92656C19.0766 4.7457 17.9423 3.79606 16.5644 3.07764C15.1865 2.35921 13.6815 2 12.0495 2C10.7488 2 9.52463 2.23157 8.37699 2.6947C7.22935 3.15772 6.21128 3.7925 5.32278 4.59906C4.43428 5.40549 3.70601 6.34837 3.13796 7.4277C2.57003 8.50691 2.22271 9.66987 2.096 10.9166C2.06685 11.1929 2.15411 11.426 2.35775 11.616C2.56152 11.8061 2.81197 11.9012 3.10911 11.9012C3.39156 11.9012 3.64085 11.8176 3.85697 11.6503C4.07297 11.483 4.19969 11.2622 4.2371 10.9879C4.49053 9.01638 5.35875 7.38072 6.84176 6.08096Z" fill="white"/>
<path fill-rule="evenodd" clip-rule="evenodd" d="M12 6.50001C12.2244 6.49875 12.4378 6.63963 12.5291 6.87377L14.0132 10.6793H14.5556C14.8624 10.6793 15.1111 10.9591 15.1111 11.3043C15.1111 11.6494 14.8624 11.9293 14.5556 11.9293H14.5007L14.7932 12.6793H15.4444C15.7513 12.6793 16 12.9591 16 13.3043C16 13.6494 15.7513 13.9293 15.4444 13.9293H15.2807L15.9564 15.662C16.0769 15.971 15.9391 16.3254 15.6487 16.4536C15.3582 16.5818 15.0251 16.4352 14.9046 16.1262L14.0478 13.9293H9.95223L9.09544 16.1262C8.97494 16.4352 8.64178 16.5818 8.35133 16.4536C8.06088 16.3254 7.92311 15.971 8.04362 15.662L8.71934 13.9293H8.55556C8.24873 13.9293 8 13.6494 8 13.3043C8 12.9591 8.24873 12.6793 8.55556 12.6793H9.20683L9.49932 11.9293H9.44444C9.13762 11.9293 8.88889 11.6494 8.88889 11.3043C8.88889 10.9591 9.13762 10.6793 9.44444 10.6793H9.9868L11.4709 6.87377C11.5622 6.63963 11.7756 6.49875 12 6.50001ZM12 8.6784L11.2197 10.6793H12.7803L12 8.6784ZM10.7322 11.9293L10.4397 12.6793H13.5603L13.2678 11.9293H10.7322Z" fill="white"/>
</svg>
