<svg width="61" height="43" viewBox="0 0 61 43" fill="none" xmlns="http://www.w3.org/2000/svg">
<path d="M19.104 11.9216V12.0096C19.1042 12.012 19.1042 12.0144 19.104 12.0168C19.1035 12.0193 19.1035 12.0217 19.104 12.0241C19.1108 12.0529 19.1197 12.0814 19.1308 12.109L19.1362 12.1193C19.1472 12.1444 19.1603 12.1685 19.1748 12.1918V12.2011C19.1907 12.2237 19.2078 12.2455 19.2262 12.2664L19.238 12.2788C19.2569 12.2991 19.2775 12.3181 19.2991 12.3357L19.3109 12.344C19.3341 12.3614 19.3584 12.3773 19.3838 12.3916C19.4084 12.4047 19.4343 12.4158 19.4609 12.4248H19.4738C19.495 12.4322 19.517 12.438 19.5392 12.4424C22.3709 13.0428 22.4009 17.3517 22.4009 17.4118V17.4677C22.4009 17.476 22.4009 17.4977 22.4073 17.5132C22.4137 17.5288 22.4073 17.5194 22.4073 17.5226C22.4629 17.7869 22.7035 17.977 22.9829 17.977C23.1771 17.9772 23.3587 17.884 23.4673 17.7286C23.4774 17.7146 23.4866 17.7001 23.4952 17.6851C23.5027 17.6716 23.5102 17.6571 23.5167 17.6426V17.6354C23.5231 17.6219 23.5284 17.6081 23.5327 17.594V17.5836C23.5327 17.5702 23.5402 17.5578 23.5434 17.5443C23.5467 17.5308 23.5434 17.5339 23.5434 17.5288V17.4087C23.5434 17.2969 23.582 13.0428 26.4052 12.4445C26.427 12.4402 26.4486 12.4344 26.4695 12.4269H26.4834C26.5098 12.4181 26.5352 12.4071 26.5595 12.3938C26.5852 12.3795 26.6099 12.3636 26.6335 12.3462L26.6442 12.3379C26.6665 12.3205 26.6872 12.3015 26.7063 12.281L26.7171 12.2685C26.736 12.2482 26.7533 12.2264 26.7685 12.2033L26.7749 12.194C26.7892 12.1707 26.8017 12.1465 26.8124 12.1215C26.813 12.1181 26.813 12.1146 26.8124 12.1112C26.8239 12.0836 26.8332 12.0553 26.8403 12.0263V12.019C26.8407 12.0166 26.8407 12.0142 26.8403 12.0118C26.8403 12.0004 26.8403 11.989 26.8467 11.9776V11.8172C26.8467 11.8058 26.8467 11.7944 26.8403 11.783C26.8407 11.7806 26.8407 11.7782 26.8403 11.7757V11.7602C26.8403 11.755 26.8403 11.7395 26.8317 11.7292L26.8221 11.7033L26.8124 11.6784L26.7996 11.6505C26.7996 11.6432 26.7921 11.636 26.7878 11.6298C26.7835 11.6235 26.7771 11.6111 26.7717 11.6018L26.7589 11.5821C26.7524 11.5739 26.7471 11.5656 26.7406 11.5583C26.7342 11.5511 26.7288 11.5428 26.7235 11.5355L26.7074 11.5179L26.6828 11.4931L26.6699 11.4817L26.6367 11.4538L26.6302 11.4486C26.6163 11.4393 26.6034 11.4289 26.5884 11.4206C26.5574 11.401 26.5243 11.3844 26.4898 11.3709L26.4384 11.3533C26.427 11.3492 26.415 11.3461 26.403 11.344C23.5713 10.7435 23.5413 6.43467 23.5413 6.37459V6.34146C23.5418 6.33422 23.5418 6.32697 23.5413 6.31972C23.5399 6.30436 23.5374 6.28918 23.5338 6.27417C23.5343 6.27072 23.5343 6.26727 23.5338 6.26382C23.4827 6.02432 23.2791 5.84314 23.0279 5.81348H22.8211L22.7814 5.82383H22.7696C22.7553 5.82814 22.7414 5.83332 22.7278 5.83936H22.7225C22.5676 5.90665 22.4504 6.03538 22.4009 6.1924C22.3952 6.20965 22.3906 6.22742 22.387 6.2452V6.25658C22.387 6.26073 22.3816 6.28557 22.3806 6.3011C22.3795 6.31663 22.3806 6.3156 22.3806 6.32284V6.35597C22.3806 6.41395 22.3506 10.7228 19.5189 11.3254C19.4142 11.3473 19.3177 11.3967 19.2402 11.4683L19.2059 11.5024L19.1984 11.5118C19.1898 11.5221 19.1812 11.5314 19.1737 11.5418L19.1609 11.5583L19.1437 11.5863L19.1309 11.607C19.1255 11.6163 19.1212 11.6246 19.1169 11.6339C19.1126 11.6432 19.1094 11.6494 19.1051 11.6577L19.0944 11.6857C19.091 11.6934 19.0882 11.7014 19.0858 11.7095C19.0823 11.72 19.0794 11.7307 19.0773 11.7416C19.0767 11.7464 19.0767 11.7513 19.0773 11.7561C19.0774 11.7585 19.0774 11.7609 19.0773 11.7633V11.8782C19.0773 11.8876 19.104 11.9102 19.104 11.9216ZM23.014 9.4845C23.3687 10.3966 23.9379 11.3056 24.851 11.8957C23.9379 12.4848 23.3687 13.3938 23.014 14.3059C22.6592 13.3938 22.0901 12.4848 21.178 11.8957C22.0901 11.3004 22.6592 10.3945 23.014 9.48243V9.4845Z" fill="#DADCE5"/>
<path d="M57.545 33.2486C58.5557 29.7286 52.0157 24.2643 44.976 20.7089C40.9803 18.6911 36.943 17.3048 33.6019 16.8079C30.0553 16.2778 27.6469 16.8276 26.8196 18.3546L24.1948 23.2061C23.9261 23.7203 23.8313 24.3028 23.9236 24.8719C16.4211 25.1318 9 27.1786 9 30.6881V35.9681C9 39.7645 17.5639 41.8135 25.6216 41.8135C32.536 41.8135 38.5382 40.421 41.0213 38.2541C44.6933 39.6652 47.912 40.3775 50.3352 40.3775C52.5271 40.3775 54.0694 39.7947 54.705 38.6175L57.4756 33.4989C57.5185 33.4218 57.5421 33.3363 57.545 33.2486ZM31.1787 17.7493C31.9327 17.755 32.6851 17.8162 33.4295 17.9325C36.6449 18.4129 40.5547 19.7567 44.4349 21.7166C52.81 25.9457 57.4036 31.1832 56.2956 33.2394C55.7371 34.2748 53.6589 34.6267 50.7361 34.1899C49.5966 34.0139 48.4705 33.7649 47.3653 33.4445C47.3117 33.4205 47.2545 33.4044 47.1959 33.3968C44.8305 32.7114 42.2754 31.6907 39.7309 30.4058C31.3559 26.1767 26.7622 20.9379 27.8703 18.8821C28.2636 18.1398 29.4501 17.7474 31.1704 17.7474L31.1787 17.7493ZM49.6857 39.1965C48.4307 39.124 46.9537 38.8724 45.3396 38.45L47.4028 34.6381C48.4362 34.9229 49.4862 35.1481 50.5475 35.3121C50.9519 35.3721 51.3406 35.418 51.7136 35.4497L49.6857 39.1965ZM41.1113 37.0565C40.8144 36.9395 40.5154 36.8174 40.2174 36.6921L42.2946 32.8532C43.5902 33.4011 44.9137 33.8849 46.2603 34.3026L44.1917 38.1249C43.1949 37.8288 42.1628 37.4717 41.1081 37.0565L41.1113 37.0565ZM32.9882 35.9508V40.0817C31.6585 40.3069 30.3176 40.4658 28.9711 40.5579V36.4167C30.3174 36.3268 31.6581 36.1714 32.9882 35.9508ZM31.254 26.338L29.1951 30.1427C28.2401 29.3552 27.3614 28.485 26.5703 27.543L28.5906 23.8097C29.4072 24.7198 30.2978 25.5651 31.254 26.338ZM26.1972 28.8703C27.21 29.9884 28.5219 31.1479 30.0557 32.2868C28.5818 32.4328 27.1011 32.5047 25.6195 32.5021C18.7297 32.5021 15.5121 31.1832 15.4522 30.6831C15.5122 30.182 18.7287 28.8631 25.6195 28.8631C25.8199 28.8662 26.0064 28.8682 26.1972 28.8703ZM30.1178 30.8881L32.1832 27.073C33.3809 27.9831 34.6294 28.8291 35.9227 29.6075L33.8445 33.4463C32.5528 32.663 31.3084 31.8089 30.1178 30.8881ZM37.0972 35.254C36.3265 34.8647 35.5752 34.4589 34.8464 34.0416L36.9257 30.2007C37.6631 30.6231 38.4155 31.0289 39.1765 31.412C39.856 31.7557 40.5377 32.0798 41.2129 32.3852L39.1336 36.2272C38.4548 35.9207 37.776 35.5963 37.0972 35.254ZM34.1647 35.7333C34.4959 35.666 34.8196 35.5936 35.139 35.518C35.6006 35.7706 36.0718 36.0184 36.5527 36.2613C37.6245 36.8028 38.7103 37.2966 39.7885 37.7522C38.5538 38.6239 36.5838 39.3465 34.1646 39.8549L34.1647 35.7333ZM25.2377 23.7303L26.7521 20.935C27.0101 21.6096 27.3627 22.2467 27.8004 22.8285L25.8197 26.4945C25.5678 26.1054 25.3656 25.6882 25.2173 25.2522C25.0137 24.6372 25.0233 24.1258 25.2377 23.7303ZM24.2409 26.0017C24.509 26.6169 24.8508 27.1996 25.2591 27.7379C21.2592 27.7742 14.2784 28.4233 14.2784 30.6916C14.2784 33.0283 21.6986 33.6464 25.6213 33.6464C27.5668 33.6542 29.5106 33.5292 31.4382 33.2726C32.1435 33.7502 32.8827 34.2189 33.6558 34.6786L33.5368 34.6982C33.4864 34.7015 33.4366 34.7112 33.3889 34.7272C30.828 35.185 28.2278 35.4088 25.6239 35.3961C16.5222 35.3961 10.178 32.9113 10.178 30.6877C10.1716 28.5995 15.8165 26.2367 24.2409 26.0017ZM16.4823 35.6093V39.7101C15.3174 39.447 14.1795 39.0829 13.0825 38.622V34.6102C14.1868 35.0288 15.3237 35.3629 16.4823 35.6093ZM17.6613 35.8453C19.0919 36.1024 20.536 36.285 21.9871 36.392V40.5332C20.5348 40.425 19.0903 40.2341 17.6613 39.9617V35.8453ZM10.1716 35.9623V32.96C10.6943 33.4089 11.2758 33.7894 11.9014 34.0915V38.0308C10.7889 37.3713 10.1716 36.655 10.1716 35.9623ZM23.1608 40.6097V36.4685C23.9797 36.51 24.8039 36.5317 25.6259 36.5317C26.359 36.5317 27.0836 36.5155 27.7996 36.483V40.6242C27.085 40.6567 26.3605 40.6729 25.6259 40.6729C24.7771 40.6719 23.955 40.6501 23.1608 40.6097ZM53.6634 38.0867C53.3011 38.7555 52.359 39.122 51.0096 39.2017L53.0096 35.5078C53.7482 35.5171 54.4848 35.4301 55.1993 35.249L53.6634 38.0867Z" fill="#DADCE5"/>
<path d="M40.6101 28.7563C43.2896 30.1094 45.9381 31.1509 48.0696 31.6892C49.1082 31.9522 49.9635 32.0837 50.642 32.0837C51.5905 32.0837 52.195 31.828 52.4737 31.3145C52.9507 30.4334 52.2325 29.2201 50.2797 27.606C48.6044 26.2218 46.2068 24.7155 43.5271 23.3613C39.9355 21.5495 32.823 18.6715 31.6688 20.8041C30.5146 22.9367 37.0152 26.9394 40.6101 28.7563ZM32.7079 21.3313C32.769 21.2174 33.0091 21.1511 33.4142 21.1511C34.8151 21.1511 38.1921 21.9483 42.9856 24.3699C45.5868 25.6836 47.9061 27.1393 49.5159 28.4696C51.3175 29.9584 51.4869 30.6872 51.4322 30.7877C51.3776 30.8881 50.6616 31.1707 48.3679 30.591C46.3187 30.0733 43.7592 29.0639 41.1549 27.7501C34.9822 24.6297 32.4378 21.8363 32.7121 21.3314L32.7079 21.3313Z" fill="#DADCE5"/>
</svg>
