<svg width="14" height="15" viewBox="0 0 14 15" fill="none" xmlns="http://www.w3.org/2000/svg">
<g clip-path="url(#clip0_1123_726)">
<path d="M13.1179 2.88841L10.0379 0.914412C9.81393 0.774412 9.51995 0.760424 9.28191 0.886431C9.04393 1.01244 8.90393 1.26441 8.90393 1.53042V2.69244L4.75993 2.6924C2.56193 2.6924 0.783933 4.4844 0.783933 6.6684V7.59239C0.783933 8.04036 1.14792 8.40441 1.59596 8.40441C2.04393 8.40441 2.40798 8.04042 2.40798 7.59239V6.6684C2.40798 5.3664 3.47197 4.3024 4.77398 4.3024H8.91798L8.91794 5.4924C8.91794 5.75841 9.05793 6.01037 9.29591 6.13639C9.40793 6.1924 9.53389 6.22038 9.64591 6.22038C9.78591 6.22038 9.92591 6.17836 10.0379 6.10836L13.1179 4.13436C13.3279 3.99436 13.4539 3.77037 13.4539 3.51835C13.4539 3.26637 13.3279 3.02841 13.1179 2.88841Z" fill="url(#paint0_linear_1123_726)"/>
<path d="M12.4179 6.48641C11.9699 6.48641 11.6059 6.8504 11.6059 7.29844V8.22242C11.6059 9.52442 10.5419 10.5884 9.2399 10.5884H5.0959V9.41242C5.0959 9.14641 4.9559 8.89445 4.71792 8.76844C4.47995 8.64242 4.19994 8.64242 3.96191 8.79642L0.88191 10.7704C0.67191 10.9104 0.545898 11.1344 0.545898 11.3864C0.545898 11.6385 0.67191 11.8764 0.88191 12.0024L3.96191 13.9764C4.08792 14.0604 4.21393 14.0885 4.35393 14.0885C4.47994 14.0885 4.59191 14.0605 4.70393 14.0045C4.94191 13.8785 5.08191 13.6265 5.08191 13.3605V12.1985H9.23991C11.4379 12.1985 13.2159 10.4065 13.2159 8.22246V7.29847C13.2159 6.85044 12.852 6.48641 12.4179 6.48641Z" fill="url(#paint1_linear_1123_726)"/>
</g>
<defs>
<linearGradient id="paint0_linear_1123_726" x1="1.03988" y1="0.491813" x2="13.1723" y2="13.3512" gradientUnits="userSpaceOnUse">
<stop stop-color="#E16BFF"/>
<stop offset="1" stop-color="#FB3B80"/>
</linearGradient>
<linearGradient id="paint1_linear_1123_726" x1="1.03988" y1="0.491813" x2="13.1723" y2="13.3512" gradientUnits="userSpaceOnUse">
<stop stop-color="#E16BFF"/>
<stop offset="1" stop-color="#FB3B80"/>
</linearGradient>
<clipPath id="clip0_1123_726">
<rect width="14" height="14" fill="white" transform="translate(0 0.5)"/>
</clipPath>
</defs>
</svg>
