<svg width="104" height="31" viewBox="0 0 104 31" fill="none" xmlns="http://www.w3.org/2000/svg">
<g clip-path="url(#clip0_617_50)">
<path d="M103.635 9.66963H101.334V6.89338C101.334 6.74629 101.269 6.61059 101.154 6.52092C101.043 6.43382 100.901 6.40286 100.766 6.43683L98.7412 6.93574C98.5339 6.98692 98.3892 7.17466 98.3892 7.3925V9.66963H97.2354C96.9806 9.66963 96.7733 9.88124 96.7733 10.1414V11.8216C96.7733 12.0818 96.9806 12.2936 97.2356 12.2936H98.3892V19.0721C98.4154 21.9535 100.257 22.3505 102.242 22.3505C102.438 22.3505 102.635 22.3449 102.834 22.3389C103.035 22.3329 103.239 22.3266 103.45 22.3266L103.473 22.3251C103.744 22.2903 103.912 22.1008 103.912 21.8307V20.0304C103.912 19.7702 103.705 19.5588 103.45 19.5588H102.753C101.745 19.5588 101.334 19.1113 101.334 18.0143V12.2936H103.635C103.89 12.2936 104.097 12.0818 104.097 11.8216V10.1414C104.097 9.88124 103.89 9.66963 103.635 9.66963Z" fill="white"/>
<path d="M91.2557 9.47757C90.0506 9.47757 89.1062 9.84939 88.4435 10.5833V10.1414C88.4435 9.8724 88.2448 9.66961 87.9813 9.66961H85.845C85.5812 9.66961 85.3825 9.8724 85.3825 10.1414V21.8307C85.3825 22.0997 85.5812 22.3028 85.845 22.3028H87.9813C88.2448 22.3028 88.4435 22.0997 88.4435 21.8307V14.5099C88.4435 13.1555 89.2656 12.2454 90.4894 12.2454C91.7177 12.2454 92.5119 13.1437 92.5119 14.5338V21.8307C92.5119 22.0997 92.7104 22.3028 92.974 22.3028H95.1105C95.3741 22.3028 95.5728 22.0997 95.5728 21.8307V13.9579C95.5728 11.2362 93.8783 9.47757 91.2557 9.47757Z" fill="white"/>
<path d="M80.4829 14.734H75.9357C75.9624 14.3325 76.0139 14.0521 76.1057 13.8063L76.11 13.7936C76.406 12.7808 77.1159 12.2455 78.1629 12.2455C79.2905 12.2455 80.0889 12.8595 80.3568 13.9425C80.4137 14.1179 80.4582 14.4009 80.4829 14.734ZM78.1629 9.47765C75.6814 9.47765 73.8011 10.8823 73.1339 13.2311C72.9152 13.9321 72.8214 14.8072 72.8472 15.902C72.8472 17.2482 73.0265 18.3316 73.3936 19.2094C74.2063 21.2955 75.9813 22.471 78.393 22.5185C78.4224 22.519 78.4519 22.5192 78.4815 22.5192C80.4889 22.5192 82.2107 21.688 83.2173 20.2261C83.3597 20.0051 83.3227 19.7838 83.1122 19.6025L81.6732 18.3793C81.5394 18.2638 81.4148 18.2531 81.3334 18.2625C81.2474 18.2737 81.1211 18.3215 81.0068 18.4866C80.4344 19.3255 79.6415 19.7507 78.6533 19.7507C77.3052 19.7289 76.4489 19.1825 76.1016 18.1083C75.9993 17.8757 75.9544 17.5376 75.9149 17.1662H83.1094C83.385 17.1662 83.5704 16.9778 83.5717 16.697C83.596 15.8858 83.5925 15.2489 83.5008 14.585C83.1105 11.1959 81.3147 9.47765 78.1629 9.47765Z" fill="white"/>
<path d="M67.9728 15.8784C67.9728 17.202 67.9227 17.5435 67.8159 17.963C67.5728 18.9677 66.837 19.544 65.7969 19.544C64.7688 19.544 63.9697 18.94 63.6548 17.9161C63.5551 17.6581 63.4361 17.0996 63.4361 15.9022C63.4361 14.956 63.5199 14.3096 63.7042 13.8561C64.0443 12.8271 64.7987 12.2368 65.7737 12.2368C66.8063 12.2368 67.561 12.8361 67.7949 13.8496C67.9212 14.2853 67.9728 14.5907 67.9728 15.8784ZM70.5621 9.66953H68.434C68.171 9.66953 67.9728 9.87189 67.9728 10.1403V10.4575C67.2662 9.79899 66.3473 9.47835 65.1722 9.47835C63.0933 9.47835 61.3954 10.7549 60.7428 12.8051C60.4055 13.7705 60.3624 14.9674 60.3624 15.9022C60.3624 17.1293 60.4599 18.0637 60.6708 18.8482C61.4066 21.307 63.5622 22.1829 65.3342 22.1829C66.4383 22.1829 67.3253 21.8711 67.9723 21.2578C67.9603 22.2853 67.6914 23.0248 67.1513 23.517C66.4439 24.1615 65.2468 24.3934 63.4739 24.2269C63.0157 24.2269 62.9663 24.5392 62.9663 24.6669L62.8969 26.6341C62.8969 26.9094 63.0518 27.0937 63.316 27.1281C63.7551 27.1735 64.1822 27.1963 64.5944 27.1963C66.5773 27.1963 68.2286 26.6744 69.3259 25.6843C70.4521 24.6675 71.0231 23.1783 71.0231 21.258V10.1403C71.0231 9.87189 70.8248 9.66953 70.5621 9.66953Z" fill="white"/>
<path d="M59.3246 9.71907C59.0001 9.58897 58.6424 9.52574 58.231 9.52574C57.1385 9.52574 56.2489 9.97046 55.5813 10.8487V10.1416C55.5813 9.88143 55.374 9.66961 55.119 9.66961H52.9825C52.7275 9.66961 52.5202 9.88122 52.5202 10.1414V21.8307C52.5202 22.0909 52.7277 22.3028 52.9827 22.3028H55.119C55.374 22.3028 55.5813 22.0909 55.5813 21.8307V15.038C55.5813 13.5736 56.6373 12.8572 57.6991 12.7957C58.0678 12.7439 58.2763 12.7609 58.5116 12.8076C58.7741 12.8596 59.022 12.6983 59.0806 12.4401L59.6473 10.3548C59.7049 10.0894 59.5661 9.81606 59.3246 9.71907Z" fill="white"/>
<path d="M47.3045 16.8301V17.8944C47.3045 19.1617 45.9929 19.9188 44.7246 19.9188C43.8705 19.9188 42.9576 19.5447 42.9576 18.4944C42.9576 17.4368 43.8555 16.8301 45.4213 16.8301H47.3045ZM45.2821 9.47767C42.9217 9.47767 41.0376 10.5606 40.4821 12.2369C40.4348 12.3795 40.4511 12.5343 40.5265 12.6621C40.5972 12.7817 40.7141 12.8649 40.8481 12.8913L42.9539 13.4203C43.1745 13.461 43.3941 13.3425 43.4789 13.1386C43.7197 12.5627 44.3846 12.2455 45.3517 12.2455C46.6292 12.2455 47.3045 12.8625 47.3045 14.03V14.5422H44.8872C41.7478 14.5422 39.8733 16.0914 39.8733 18.6866C39.8733 21.4943 42.0317 22.4947 44.0514 22.4947C45.406 22.4947 46.5256 22.0912 47.3045 21.3283V21.8308C47.3045 22.091 47.5121 22.3026 47.767 22.3026H49.9031C50.1581 22.3026 50.3656 22.091 50.3656 21.8308V13.7421C50.3656 11.2312 48.2753 9.47767 45.2821 9.47767Z" fill="white"/>
<path d="M20.9338 0H12.3648C12.0785 0 11.849 0.238063 11.8428 0.533975C11.6697 8.85176 7.45953 16.7463 0.212983 22.3381C-0.0170835 22.5155 -0.0694977 22.8491 0.0987019 23.0893L5.11225 30.2546C5.28281 30.4985 5.61513 30.5535 5.84907 30.3744C10.3801 26.9009 14.0247 22.7106 16.6493 18.0661C19.2739 22.7106 22.9186 26.9009 27.4497 30.3744C27.6834 30.5535 28.0158 30.4985 28.1865 30.2546L33.2001 23.0893C33.3681 22.8491 33.3157 22.5155 33.0858 22.3381C25.839 16.7463 21.6289 8.85176 21.456 0.533975C21.4497 0.238063 21.2201 0 20.9338 0Z" fill="#FF875B"/>
</g>
<defs>
<clipPath id="clip0_617_50">
<rect width="104" height="30.4799" fill="white"/>
</clipPath>
</defs>
</svg>
