<svg width="31" height="31" viewBox="0 0 31 31" fill="none" xmlns="http://www.w3.org/2000/svg">
<g clip-path="url(#clip0_617_50)">
<path d="M20.9338 0H12.3648C12.0785 0 11.849 0.238063 11.8428 0.533975C11.6697 8.85176 7.45953 16.7463 0.212983 22.3381C-0.0170835 22.5155 -0.0694977 22.8491 0.0987019 23.0893L5.11225 30.2546C5.28281 30.4985 5.61513 30.5535 5.84907 30.3744C10.3801 26.9009 14.0247 22.7106 16.6493 18.0661C19.2739 22.7106 22.9186 26.9009 27.4497 30.3744C27.6834 30.5535 28.0158 30.4985 28.1865 30.2546L33.2001 23.0893C33.3681 22.8491 33.3157 22.5155 33.0858 22.3381C25.839 16.7463 21.6289 8.85176 21.456 0.533975C21.4497 0.238063 21.2201 0 20.9338 0Z" fill="#FF875B"/>
</g>
<defs>
<clipPath id="clip0_617_50">
<rect width="104" height="30.4799" fill="white"/>
</clipPath>
</defs>
</svg>
