<svg width="146" height="28" viewBox="0 0 146 28" fill="none" xmlns="http://www.w3.org/2000/svg">
<path fill-rule="evenodd" clip-rule="evenodd" d="M38.9862 6.77942C39.1351 6.77942 39.256 6.89771 39.256 7.04479V18.3066C39.256 23.6459 35.8685 26.275 31.3987 26.275C26.9299 26.275 23.5424 23.6459 23.5424 18.3066V7.04377C23.5424 6.89771 23.6633 6.77839 23.8122 6.77839H26.4653C26.6143 6.77839 26.7351 6.89771 26.7351 7.04479V18.1143C26.7351 21.8377 28.706 23.3168 31.3987 23.3168C34.0914 23.3168 36.0633 21.8377 36.0633 18.1143V7.04479C36.0633 6.89771 36.1841 6.77839 36.332 6.77839L38.9862 6.77942ZM68.5133 16.3626C68.5133 20.3607 71.483 23.3178 75.4258 23.3178C79.3403 23.3178 82.3112 20.3607 82.3112 16.3626C82.3112 12.3646 79.3403 9.40742 75.4258 9.40742C71.483 9.40742 68.5133 12.3646 68.5133 16.3626ZM85.5028 16.3626C85.4758 22.0033 81.1174 26.275 75.4258 26.275C69.7341 26.275 65.3476 22.0033 65.3476 16.3626C65.3476 10.7219 69.7341 6.45028 75.4258 6.45028C81.1174 6.45028 85.4758 10.7219 85.5028 16.3626ZM114.125 25.9469H111.378C111.334 25.947 111.291 25.9365 111.252 25.9164C111.213 25.8963 111.18 25.8671 111.155 25.8314C111.131 25.7957 111.115 25.7546 111.11 25.7116C111.105 25.6686 111.111 25.6251 111.127 25.5848L118.398 7.06022C118.427 6.98509 118.479 6.92052 118.546 6.87499C118.613 6.82946 118.693 6.80511 118.775 6.80514H122.212C122.38 6.80514 122.53 6.90594 122.59 7.05919L129.861 25.5838C129.877 25.624 129.883 25.6675 129.878 25.7105C129.873 25.7534 129.857 25.7945 129.833 25.8302C129.808 25.866 129.775 25.8953 129.737 25.9156C129.698 25.9359 129.655 25.9466 129.611 25.9469H126.863C126.809 25.9468 126.755 25.9304 126.71 25.8997C126.665 25.869 126.631 25.8256 126.611 25.7751L120.747 10.5224C120.727 10.472 120.693 10.4286 120.648 10.3979C120.603 10.3673 120.549 10.3509 120.494 10.3509C120.44 10.3509 120.386 10.3673 120.341 10.3979C120.296 10.4286 120.262 10.472 120.242 10.5224L114.378 25.7751C114.358 25.8257 114.324 25.8693 114.278 25.9C114.233 25.9307 114.18 25.947 114.125 25.9469ZM3.01743 25.9469H0.269515C0.225703 25.947 0.182526 25.9365 0.143742 25.9164C0.104959 25.8963 0.0717457 25.8671 0.0469951 25.8314C0.0222444 25.7957 0.00670695 25.7546 0.00173575 25.7116C-0.00323545 25.6686 0.00251038 25.6251 0.0184729 25.5848L7.28931 7.06022C7.31874 6.98509 7.37052 6.92052 7.43782 6.87499C7.50512 6.82946 7.58481 6.80511 7.66639 6.80514H11.1039C11.2716 6.80514 11.4216 6.90594 11.482 7.05919L18.7528 25.5838C18.7687 25.624 18.7745 25.6675 18.7695 25.7105C18.7646 25.7534 18.7492 25.7945 18.7246 25.8302C18.7 25.866 18.6669 25.8953 18.6283 25.9156C18.5897 25.9359 18.5466 25.9466 18.5028 25.9469H15.7549C15.7002 25.9468 15.6468 25.9304 15.6018 25.8997C15.5568 25.869 15.5223 25.8256 15.5028 25.7751L9.63826 10.5224C9.61878 10.472 9.58425 10.4286 9.53924 10.3979C9.49422 10.3673 9.44084 10.3509 9.38618 10.3509C9.33152 10.3509 9.27814 10.3673 9.23312 10.3979C9.18811 10.4286 9.15357 10.472 9.1341 10.5224L3.26951 25.7751C3.25008 25.8256 3.21557 25.869 3.17055 25.8997C3.12553 25.9304 3.07213 25.9468 3.01743 25.9469ZM106.045 25.5169L100.59 18.6461C103.668 18.0701 105.471 16.0201 105.471 12.8758C105.471 9.26548 103.085 6.80514 98.8716 6.80514H91.2633C91.1562 6.80514 91.0536 6.84704 90.9778 6.92166C90.9021 6.99628 90.8594 7.09753 90.8591 7.20319C90.8592 7.53885 90.9263 7.8712 91.0565 8.18125C91.1867 8.49131 91.3775 8.77301 91.618 9.01026C91.8585 9.24751 92.1439 9.43567 92.458 9.564C92.7721 9.69232 93.1087 9.7583 93.4487 9.75817H98.5393C101.09 9.75817 102.31 11.0439 102.31 12.9025C102.31 14.7622 101.117 16.0746 98.5393 16.0746H91.2633C91.1561 16.0746 91.0533 16.1167 90.9775 16.1915C90.9017 16.2664 90.8591 16.3679 90.8591 16.4737V25.6805C90.8591 25.8275 90.9799 25.9469 91.1289 25.9469H93.7226C93.7942 25.9469 93.8628 25.9188 93.9134 25.8688C93.964 25.8189 93.9924 25.7511 93.9924 25.6805V18.8096H96.9872L101.722 24.9049C101.973 25.2289 102.297 25.4914 102.668 25.6721C103.039 25.8528 103.448 25.9468 103.861 25.9469H105.832C105.882 25.9468 105.932 25.9327 105.975 25.9063C106.017 25.8798 106.052 25.8421 106.074 25.7973C106.096 25.7525 106.105 25.7025 106.1 25.6529C106.095 25.6034 106.075 25.5562 106.045 25.5169ZM60.9758 25.5169L55.5226 18.6461C58.5997 18.0701 60.4018 16.0201 60.4018 12.8758C60.4018 9.26548 58.0164 6.80514 53.8039 6.80514H46.1955C46.0885 6.80514 45.9859 6.84704 45.9101 6.92166C45.8344 6.99628 45.7917 7.09753 45.7914 7.20319C45.7915 7.53885 45.8586 7.8712 45.9888 8.18125C46.119 8.49131 46.3098 8.77301 46.5503 9.01026C46.7907 9.24751 47.0762 9.43567 47.3903 9.564C47.7044 9.69232 48.041 9.7583 48.381 9.75817H53.4705C56.0216 9.75817 57.2414 11.0439 57.2414 12.9025C57.2414 14.7622 56.0487 16.0746 53.4705 16.0746H46.1955C46.0884 16.0746 45.9856 16.1167 45.9098 16.1915C45.834 16.2664 45.7914 16.3679 45.7914 16.4737V25.6805C45.7914 25.8275 45.9112 25.9469 46.0601 25.9469H48.6539C48.6894 25.947 48.7246 25.9402 48.7574 25.9269C48.7903 25.9135 48.8202 25.8939 48.8453 25.8692C48.8705 25.8444 48.8905 25.815 48.9041 25.7826C48.9177 25.7502 48.9247 25.7155 48.9247 25.6805V18.8096H51.9185L56.6539 24.9049C56.9058 25.2289 57.2297 25.4914 57.6007 25.6721C57.9717 25.8528 58.3798 25.9468 58.7935 25.9469H60.7633C60.8137 25.9468 60.8631 25.9327 60.9059 25.9063C60.9487 25.8798 60.9831 25.8421 61.0052 25.7973C61.0274 25.7525 61.0363 25.7025 61.0311 25.6529C61.0259 25.6034 61.0067 25.5562 60.9758 25.5169Z" fill="white"/>
<path fill-rule="evenodd" clip-rule="evenodd" d="M139.506 1.14285L139.535 1.14491C139.591 1.15377 139.642 1.17922 139.683 1.21785C139.723 1.25647 139.751 1.3064 139.761 1.36091L139.77 1.43188V15.259L139.769 15.2898C139.765 15.346 139.744 15.3997 139.709 15.4441C139.674 15.4884 139.626 15.5214 139.572 15.5387L139.506 15.548H136.909L136.88 15.5459C136.824 15.5373 136.773 15.5119 136.732 15.4733C136.691 15.4346 136.664 15.3846 136.653 15.3299L136.645 15.2579V9.88571H131.168L131.141 9.88365C131.037 9.87131 130.953 9.788 130.928 9.67794L130.921 9.60903V7.07668L130.922 7.04582C130.925 6.99276 130.945 6.94191 130.977 6.89977C131.01 6.85763 131.055 6.82612 131.106 6.80925L131.169 6.8H136.645V1.43188L136.647 1.40102C136.651 1.34486 136.671 1.29114 136.707 1.24678C136.742 1.20241 136.789 1.16944 136.844 1.15211L136.909 1.14285H139.506ZM145.227 6.8L145.256 6.80205C145.393 6.81645 145.499 6.93371 145.499 7.07668V9.60903L145.498 9.63988C145.491 9.70656 145.46 9.76849 145.41 9.81384C145.36 9.85918 145.295 9.88477 145.227 9.88571L143.42 9.87851L143.347 9.87748C141.941 9.8384 140.811 8.66377 140.811 7.21862L140.813 7.18057C140.821 7.07885 140.867 6.98363 140.942 6.91374C141.017 6.84384 141.116 6.80435 141.22 6.80308L145.227 6.8Z" fill="#5DEB5A"/>
</svg>
