<?xml version="1.0" encoding="utf-8"?>
<!-- Generator: Adobe Illustrator 26.5.1, SVG Export Plug-In . SVG Version: 6.00 Build 0)  -->
<svg version="1.1" id="Layer_1" xmlns="http://www.w3.org/2000/svg" xmlns:xlink="http://www.w3.org/1999/xlink" x="0px" y="0px"
	 viewBox="0 0 301.4 301.4" style="enable-background:new 0 0 301.4 301.4;" xml:space="preserve">
<style type="text/css">
	.st0{fill:#2F63AD;}
	.st1{fill:#E94E2F;}
	.st2{fill:#FFFFFF;stroke:#E52527;stroke-width:2;stroke-miterlimit:10;}
	.st3{fill:#171B34;}
	.st4{fill:#D7DB2F;}
	.st5{fill:#A6539B;}
	.st6{fill:#EB5B29;}
	.st7{fill:#6FC7DA;}
	.st8{fill:#59B031;}
	.st9{fill:#035A2A;}
	.st10{fill:#E72679;}
	.st11{fill:#B92176;}
	.st12{fill:#48AE4D;}
	.st13{fill:#331C48;}
	.st14{fill:#39411B;}
	.st15{fill:#F49524;}
	.st16{fill:#D68B26;}
	.st17{fill:#E62554;}
	.st18{fill:#D90E24;}
	.st19{fill:#2EABE2;}
	.st20{fill:#344596;}
	.st21{fill:#01A99F;}
	.st22{fill:#0F3D1F;}
	.st23{fill:#2B4B9B;}
	.st24{fill:#808181;}
	.st25{fill:#78113E;}
	.st26{fill:#319F37;}
	.st27{fill:#E63612;}
	.st28{fill:url(#SVGID_1_);}
	.st29{fill:url(#SVGID_00000158716659431823362110000001238072192593237898_);}
	.st30{fill:url(#SVGID_00000002355894551820154440000015694671253877415060_);}
	.st31{fill:url(#SVGID_00000107580447044134182560000006396726085627716008_);}
	.st32{fill:url(#SVGID_00000153700740684035293110000010177244266678034055_);}
	.st33{fill:url(#SVGID_00000010280711995631732170000005384504206806005910_);}
	.st34{fill:#E9E3C0;}
	.st35{fill:url(#SVGID_00000068644156624819775600000011938476033109430400_);}
	.st36{fill:url(#SVGID_00000031910744494592856500000008238428035584782492_);}
	.st37{fill:url(#SVGID_00000100372067108136137520000001414384055317132931_);}
	.st38{fill:url(#SVGID_00000140014578119210329200000001059467427274877591_);}
	.st39{fill:url(#SVGID_00000137840157804625766180000016581196387440082103_);}
	.st40{fill:url(#SVGID_00000085942391945014996880000007649040325858571927_);}
	.st41{fill:#020202;stroke:#020202;stroke-width:0.5372;stroke-miterlimit:10;}
	.st42{fill:url(#SVGID_00000144313795647472442140000000129498888925603732_);}
	.st43{fill:url(#SVGID_00000146483950908996912540000003876700003988102813_);}
	.st44{fill:url(#SVGID_00000022523668598084187560000006001982198668835976_);}
	.st45{fill:#563F15;}
	.st46{fill:url(#SVGID_00000045587604242566059180000010693638030541969321_);}
	.st47{fill:url(#SVGID_00000098195986277728506380000008006355194648824214_);}
	.st48{fill:url(#SVGID_00000000202937364497813310000015577701610040860818_);}
	.st49{fill:url(#SVGID_00000124868830596527371560000003887849082749421744_);}
	.st50{fill:url(#SVGID_00000033332238556637068560000003466621666869372046_);}
	.st51{fill:url(#SVGID_00000176748216216294535880000008877360587058191533_);}
	.st52{fill:url(#SVGID_00000081619210099750928440000005441841665371672205_);}
	.st53{fill:url(#SVGID_00000008143960842153777900000008129495318622568605_);}
	.st54{fill:url(#SVGID_00000081646854276595858850000006660659197617469116_);}
	.st55{fill:url(#SVGID_00000103245761508381339780000006484648222733368731_);}
	.st56{fill:url(#SVGID_00000138560151787520195070000002704616345244167845_);}
	.st57{fill:url(#SVGID_00000018945595644024904870000001731710192675472289_);}
	.st58{fill:url(#SVGID_00000001659457344568456000000004478416144732758195_);}
	.st59{fill:url(#SVGID_00000174575488094281049160000004655654975066977183_);}
	.st60{fill:url(#SVGID_00000019656962936853155330000010158722156909575841_);}
	.st61{fill:url(#SVGID_00000108988179158537364800000004447651030665834392_);}
	.st62{fill:url(#SVGID_00000044169283362930178710000000783659404471781528_);}
	.st63{fill:url(#SVGID_00000031177241166545922510000002517011530323716231_);}
	.st64{fill:url(#SVGID_00000137845058130181811400000003694350158730407826_);}
	.st65{fill:#E52527;}
	.st66{fill:url(#SVGID_00000110433523356604645590000008239367728549900475_);}
	.st67{fill:url(#SVGID_00000154390762882755844490000014926985716070341001_);}
	.st68{fill:none;stroke:#E52527;stroke-width:2.0372;stroke-miterlimit:10;}
	.st69{fill:url(#SVGID_00000168096116888829530390000010880378996533718207_);}
	.st70{fill-rule:evenodd;clip-rule:evenodd;fill:#020203;}
	.st71{fill-rule:evenodd;clip-rule:evenodd;fill:#FFFFFF;}
	.st72{fill:#FFFFFF;}
	.st73{fill:url(#SVGID_00000016771310983917560780000009557592305919642523_);}
	.st74{fill:#010202;}
	.st75{fill:#4D966B;}
	.st76{fill:none;stroke:#FFFFFF;stroke-width:1.809;stroke-miterlimit:10;}
	.st77{fill:none;stroke:#FFFFFF;stroke-width:1.7;stroke-linecap:round;stroke-linejoin:round;stroke-dasharray:0,6.0042;}
	.st78{fill:#32B4A7;}
	.st79{fill:none;stroke:#FFFFFF;stroke-width:0.3072;stroke-miterlimit:10;}
	.st80{fill:none;stroke:#FFFFFF;stroke-width:0.4929;stroke-miterlimit:10;}
	.st81{fill:none;stroke:#888989;stroke-width:0.5057;stroke-miterlimit:10;}
	.st82{fill:none;stroke:#171B34;stroke-width:0.6545;stroke-miterlimit:10;}
	.st83{fill:#181C34;}
	.st84{fill-rule:evenodd;clip-rule:evenodd;fill:#181C34;}
	.st85{fill:none;stroke:#E52527;stroke-width:0.7;stroke-miterlimit:10;}
	.st86{fill:#E52929;}
	.st87{fill-rule:evenodd;clip-rule:evenodd;fill:#E52929;}
	.st88{fill:none;stroke:#E52527;stroke-width:0.6267;stroke-miterlimit:10;}
	.st89{fill:none;stroke:#171B34;stroke-width:0.586;stroke-miterlimit:10;}
	.st90{fill:#31432A;}
	.st91{fill:#161616;}
	.st92{fill:#D1D0D1;}
	.st93{fill:none;stroke:#FFFFFF;stroke-width:0.75;stroke-miterlimit:10;}
	.st94{fill:#A6519A;}
	.st95{fill:none;stroke:#FFFFFF;stroke-width:0.5;stroke-miterlimit:10;}
	.st96{fill:none;stroke:#C4B773;stroke-width:0.55;stroke-miterlimit:10;}
	.st97{fill:none;stroke:#FFFFFF;stroke-width:0.25;stroke-linecap:round;stroke-miterlimit:10;}
	.st98{fill:none;stroke:#FFFFFF;stroke-width:0.25;stroke-linecap:round;stroke-miterlimit:10;stroke-dasharray:3.0253,3.0253;}
	.st99{fill:#E30613;}
	.st100{fill:none;stroke:#FFFFFF;stroke-width:0.8003;stroke-miterlimit:10;}
	.st101{fill:none;stroke:#FFFFFF;stroke-width:0.7312;stroke-linecap:round;stroke-miterlimit:10;}
	.st102{fill:#181C33;}
	.st103{fill-rule:evenodd;clip-rule:evenodd;fill:#45529F;}
	.st104{fill:#45529F;}
	.st105{opacity:0.2;}
	.st106{fill:#009F54;}
	.st107{fill:#EF7D28;}
	.st108{fill:#F39226;}
	.st109{fill:#F39225;}
	.st110{fill:#009F55;}
	.st111{fill-rule:evenodd;clip-rule:evenodd;fill:#2F63AD;}
	.st112{fill-rule:evenodd;clip-rule:evenodd;fill:#009F55;}
	.st113{fill:#020203;}
	.st114{fill:#3063AD;}
</style>
<g>
	<path class="st4" d="M144.9,137.7c0.9,0.2,1.8,0.3,2.8,0.3h6c1,0,1.9-0.1,2.8-0.3c-2.6-4.1-2.1-9.5,1.7-13l6.9-6.5V79.2
		c0,0-5.1,10.7-11.4,10.7h-6c-6.3,0-11.4-10.7-11.4-10.7v38.9l6.9,6.5C147,128.2,147.5,133.6,144.9,137.7"/>
	<path class="st5" d="M156.5,163.8c-0.9-0.2-1.8-0.3-2.8-0.3h-6c-1,0-1.9,0.1-2.8,0.3c2.6,4.1,2.1,9.5-1.7,13l-6.9,6.5v38.9
		c0,0,5.1-10.7,11.4-10.7h6c6.3,0,11.4,10.7,11.4,10.7v-38.9l-6.9-6.5C154.4,173.2,153.9,167.9,156.5,163.8"/>
	<path class="st6" d="M215.7,153.5v-5.7c0-5.9,11.4-10.7,11.4-10.7h-41.6l-6.9,6.5c-3.8,3.5-9.5,4-13.9,1.6
		c-0.2,0.8-0.4,1.7-0.4,2.6v5.7c0,0.9,0.1,1.8,0.4,2.6c4.4-2.5,10.1-2,13.9,1.6l6.9,6.5h41.6C227.1,164.2,215.7,159.4,215.7,153.5"
		/>
	<path class="st5" d="M136.8,156.1c0.2-0.8,0.4-1.7,0.4-2.6v-5.7c0-0.9-0.1-1.8-0.4-2.6c-4.4,2.5-10.1,2-13.9-1.6l-6.9-6.5H74.3
		c0,0,11.4,4.8,11.4,10.7v5.7c0,5.9-11.4,10.7-11.4,10.7h41.6l6.9-6.5C126.6,154.2,132.4,153.7,136.8,156.1"/>
	<path class="st7" d="M156.5,137.7c0.5,0.7,1,1.4,1.7,2.1l4.3,4c0.7,0.6,1.4,1.1,2.2,1.6c1.2-4.6,5.7-8.1,11-8.1h9.8l29.4-27.5
		c0,0-11.7,4.2-16.1,0l-4.3-4c-4.5-4.2,0-15.1,0-15.1l-29.4,27.5v9.2C165.1,132.3,161.5,136.5,156.5,137.7"/>
	<path class="st8" d="M156.5,137.7c4.9-1.2,8.6-5.3,8.6-10.3v-9.2l-6.9,6.5C154.4,128.2,153.9,133.6,156.5,137.7"/>
	<path class="st9" d="M164.7,145.3c4.4,2.5,10.1,2,13.9-1.6l6.9-6.5h-9.8C170.4,137.2,165.9,140.7,164.7,145.3"/>
	<path class="st10" d="M144.9,163.8c-0.5-0.7-1-1.4-1.7-2.1l-4.3-4c-0.7-0.6-1.4-1.1-2.2-1.6c-1.2,4.6-5.7,8.1-11,8.1h-9.8
		l-29.4,27.5c0,0,11.7-4.2,16.1,0l4.3,4c4.5,4.2,0,15.1,0,15.1l29.4-27.5v-9.2C136.3,169.1,140,164.9,144.9,163.8"/>
	<path class="st11" d="M144.9,163.8c-4.9,1.2-8.6,5.3-8.6,10.3v9.2l6.9-6.5C147,173.2,147.5,167.9,144.9,163.8"/>
	<path class="st11" d="M136.8,156.1c-4.4-2.5-10.1-2-13.9,1.6l-6.9,6.5h9.8C131,164.2,135.5,160.8,136.8,156.1"/>
	<path class="st12" d="M164.7,156.1c-0.8,0.4-1.5,0.9-2.2,1.6l-4.3,4c-0.7,0.6-1.2,1.3-1.7,2.1c4.9,1.2,8.6,5.3,8.6,10.3v9.2
		l29.4,27.5c0,0-4.5-10.9,0-15.1l4.3-4c4.5-4.2,16.1,0,16.1,0l-29.4-27.5h-9.8C170.4,164.2,165.9,160.8,164.7,156.1"/>
	<path class="st13" d="M156.5,163.8c-2.6,4.1-2.1,9.5,1.7,13l6.9,6.5v-9.2C165.1,169.1,161.5,164.9,156.5,163.8"/>
	<path class="st14" d="M164.7,156.1c1.2,4.6,5.7,8.1,11,8.1h9.8l-6.9-6.5C174.8,154.2,169,153.7,164.7,156.1"/>
	<path class="st15" d="M136.8,145.3c0.8-0.4,1.5-0.9,2.2-1.6l4.3-4c0.7-0.6,1.2-1.3,1.7-2.1c-4.9-1.2-8.6-5.3-8.6-10.3v-9.2
		l-29.4-27.5c0,0,4.5,10.9,0,15.1l-4.3,4c-4.5,4.2-16.1,0-16.1,0l29.4,27.5h9.8C131,137.2,135.5,140.7,136.8,145.3"/>
	<path class="st16" d="M144.9,137.7c2.6-4.1,2.1-9.5-1.7-13l-6.9-6.5v9.2C136.3,132.3,140,136.5,144.9,137.7"/>
	<path class="st17" d="M136.8,145.3c-1.2-4.6-5.7-8.1-11-8.1h-9.8l6.9,6.5C126.6,147.2,132.4,147.7,136.8,145.3"/>
	<path class="st5" d="M153.7,14.3h-6c-6.3,0-11.4,4.8-11.4,10.7v48.1c0,0,5.1-10.7,11.4-10.7h6c6.3,0,11.4,10.7,11.4,10.7V25
		C165.1,19.1,160,14.3,153.7,14.3"/>
	<path class="st18" d="M153.7,62.4h-6c-6.3,0-11.4,4.8-11.4,10.7v6.2c0,5.9,5.1,10.7,11.4,10.7h6c6.3,0,11.4-4.8,11.4-10.7v-6.2
		C165.1,67.2,160,62.4,153.7,62.4"/>
	<path class="st19" d="M153.7,287.1h-6c-6.3,0-11.4-4.8-11.4-10.7v-48.1c0,0,5.1,10.7,11.4,10.7h6c6.3,0,11.4-10.7,11.4-10.7v48.1
		C165.1,282.3,160,287.1,153.7,287.1"/>
	<path class="st20" d="M153.7,239h-6c-6.3,0-11.4-4.8-11.4-10.7v-6.2c0-5.9,5.1-10.7,11.4-10.7h6c6.3,0,11.4,4.8,11.4,10.7v6.2
		C165.1,234.2,160,239,153.7,239"/>
	<path class="st21" d="M296.5,153.5v-5.7c0-5.9-5.1-10.7-11.4-10.7h-51.4c0,0,11.4,4.8,11.4,10.7v5.7c0,5.9-11.4,10.7-11.4,10.7
		h51.4C291.4,164.2,296.5,159.4,296.5,153.5"/>
	<path class="st22" d="M245.1,153.5v-5.7c0-5.9-5.1-10.7-11.4-10.7h-6.6c-6.3,0-11.4,4.8-11.4,10.7v5.7c0,5.9,5.1,10.7,11.4,10.7
		h6.6C240,164.2,245.1,159.4,245.1,153.5"/>
	<path class="st7" d="M4.9,153.5v-5.7c0-5.9,5.1-10.7,11.4-10.7h51.4c0,0-11.4,4.8-11.4,10.7v5.7c0,5.9,11.4,10.7,11.4,10.7H16.3
		C10,164.2,4.9,159.4,4.9,153.5"/>
	<path class="st23" d="M56.3,153.5v-5.7c0-5.9,5.1-10.7,11.4-10.7h6.6c6.3,0,11.4,4.8,11.4,10.7v5.7c0,5.9-5.1,10.7-11.4,10.7h-6.6
		C61.4,164.2,56.3,159.4,56.3,153.5"/>
	<path class="st5" d="M255.9,56.3l-4.3-4c-4.5-4.2-11.7-4.2-16.1,0l-36.3,34c0,0,11.7-4.2,16.1,0l4.3,4c4.5,4.2,0,15.1,0,15.1
		l36.3-34C260.4,67.2,260.4,60.4,255.9,56.3"/>
	<path class="st23" d="M219.6,90.3l-4.3-4c-4.5-4.2-11.7-4.2-16.1,0l-4.7,4.4c-4.5,4.2-4.5,10.9,0,15.1l4.3,4
		c4.5,4.2,11.7,4.2,16.1,0l4.7-4.4C224,101.2,224,94.4,219.6,90.3"/>
	<path class="st24" d="M49.7,249.1l-4.3-4c-4.5-4.2-4.5-10.9,0-15.1l36.3-34c0,0-4.5,10.9,0,15.1l4.3,4c4.5,4.2,16.1,0,16.1,0
		l-36.3,34C61.4,253.3,54.2,253.3,49.7,249.1"/>
	<path class="st25" d="M86.1,215.1l-4.3-4c-4.5-4.2-4.5-10.9,0-15.1l4.7-4.4c4.5-4.2,11.7-4.2,16.1,0l4.3,4c4.5,4.2,4.5,10.9,0,15.1
		l-4.7,4.4C97.8,219.3,90.5,219.3,86.1,215.1"/>
	<path class="st4" d="M251.7,249.1l4.3-4c4.5-4.2,4.5-10.9,0-15.1l-36.3-34c0,0,4.5,10.9,0,15.1l-4.3,4c-4.5,4.2-16.1,0-16.1,0
		l36.3,34C240,253.3,247.2,253.3,251.7,249.1"/>
	<path class="st26" d="M215.3,215.1l4.3-4c4.5-4.2,4.5-10.9,0-15.1l-4.7-4.4c-4.5-4.2-11.7-4.2-16.1,0l-4.3,4
		c-4.5,4.2-4.5,10.9,0,15.1l4.7,4.4C203.6,219.3,210.9,219.3,215.3,215.1"/>
	<path class="st6" d="M45.5,56.3l4.3-4c4.5-4.2,11.7-4.2,16.1,0l36.3,34c0,0-11.7-4.2-16.1,0l-4.3,4c-4.5,4.2,0,15.1,0,15.1
		l-36.3-34C41,67.2,41,60.4,45.5,56.3"/>
	<path class="st27" d="M81.8,90.3l4.3-4c4.5-4.2,11.7-4.2,16.1,0l4.7,4.4c4.5,4.2,4.5,10.9,0,15.1l-4.3,4c-4.5,4.2-11.7,4.2-16.1,0
		l-4.7-4.4C77.4,101.2,77.4,94.4,81.8,90.3"/>
</g>
</svg>
