<svg width="18" height="16" viewBox="0 0 18 16" fill="none" xmlns="http://www.w3.org/2000/svg">
    <path
        d="M8.12613 16.01C7.92613 16.01 7.75613 15.94 7.61613 15.8C7.47613 15.66 7.40613 15.49 7.40613 15.29V9.44H1.64613C1.44613 9.44 1.27613 9.37 1.13613 9.23C0.996133 9.09 0.926133 8.91 0.926133 8.69V7.13C0.926133 6.91 0.996133 6.74 1.13613 6.62C1.27613 6.48 1.44613 6.41 1.64613 6.41H7.40613V0.709999C7.40613 0.509999 7.47613 0.339999 7.61613 0.2C7.75613 0.0599993 7.92613 -0.0100009 8.12613 -0.0100009H9.86613C10.0861 -0.0100009 10.2561 0.0599993 10.3761 0.2C10.5161 0.339999 10.5861 0.509999 10.5861 0.709999V6.41H16.3461C16.5461 6.41 16.7161 6.48 16.8561 6.62C16.9961 6.74 17.0661 6.91 17.0661 7.13V8.69C17.0661 8.91 16.9961 9.09 16.8561 9.23C16.7161 9.37 16.5461 9.44 16.3461 9.44H10.5861V15.29C10.5861 15.49 10.5161 15.66 10.3761 15.8C10.2561 15.94 10.0861 16.01 9.86613 16.01H8.12613Z"
        fill="white" />
</svg>