<svg width="17" height="17" viewBox="0 0 17 17" fill="none" xmlns="http://www.w3.org/2000/svg">
<path fill-rule="evenodd" clip-rule="evenodd" d="M9.98944 8.5L16.6901 1.80009C17.102 1.38828 17.1032 0.720233 16.6919 0.308981C16.2778 -0.105139 15.613 -0.10145 15.2007 0.310814L8.49999 7.01072L1.79932 0.310814C1.38746 -0.100996 0.719339 -0.102271 0.308039 0.308981C-0.106127 0.7231 -0.102439 1.38783 0.309873 1.80009L7.01055 8.5L0.309873 15.1999C-0.101984 15.6117 -0.10326 16.2798 0.308039 16.691C0.722206 17.1051 1.38701 17.1015 1.79932 16.6892L8.49999 9.98928L15.2007 16.6892C15.6125 17.101 16.2806 17.1023 16.6919 16.691C17.1061 16.2769 17.1024 15.6122 16.6901 15.1999L9.98944 8.5Z" fill="white"/>
</svg>
