<svg preserveAspectRatio="xMidYMid meet" data-bbox="0 0 196.113 50" xmlns="http://www.w3.org/2000/svg" viewBox="0 0 197 50" height="50" width="197" data-type="ugc" role="img" aria-label="Gerowallet official logo">
    <g>
        <path fill="url(#340202a2-1b81-44bc-a248-0dbcbfbe9682_comp-ltovz3lr)" d="M84.023 39.844c-.632.758-1.527 1.347-2.683 1.77-1.156.413-2.438.62-3.844.62-1.477 0-2.773-.32-3.89-.96-1.11-.649-1.97-1.587-2.579-2.813-.601-1.227-.91-2.668-.925-4.324v-1.16c0-1.704.285-3.176.855-4.418.578-1.25 1.406-2.204 2.484-2.86 1.086-.664 2.356-.996 3.809-.996 2.023 0 3.606.485 4.746 1.453 1.14.961 1.817 2.364 2.027 4.207h-3.421c-.157-.976-.504-1.691-1.043-2.144-.532-.453-1.266-.68-2.203-.68-1.196 0-2.106.45-2.731 1.348-.625.898-.941 2.234-.95 4.008v1.09c0 1.788.34 3.14 1.02 4.054.68.914 1.676 1.371 2.989 1.371 1.32 0 2.261-.281 2.824-.844v-2.941h-3.2v-2.59h6.715v6.809Zm9.473 2.39c-1.86 0-3.375-.57-4.547-1.71-1.164-1.141-1.746-2.66-1.746-4.56v-.327c0-1.274.246-2.41.738-3.41.493-1.008 1.188-1.782 2.086-2.32.907-.548 1.938-.821 3.094-.821 1.735 0 3.098.547 4.09 1.64 1 1.094 1.5 2.645 1.5 4.653v1.383h-8.074c.11.828.437 1.492.984 1.992.555.5 1.254.75 2.098.75 1.304 0 2.324-.473 3.058-1.418l1.664 1.863c-.507.719-1.195 1.282-2.062 1.688-.867.398-1.828.597-2.883.597Zm-.387-10.406c-.671 0-1.218.227-1.64.68-.414.453-.68 1.101-.797 1.945h4.71v-.27c-.015-.75-.218-1.328-.609-1.734-.39-.414-.945-.62-1.664-.62Zm15.661.668a9.213 9.213 0 0 0-1.219-.094c-1.281 0-2.121.434-2.52 1.301V42h-3.386V29.32h3.199l.094 1.512c.679-1.164 1.621-1.746 2.824-1.746.375 0 .726.05 1.054.152l-.046 3.258Zm1.691 3.047c0-1.258.242-2.379.727-3.363.484-.985 1.179-1.746 2.085-2.285.915-.54 1.973-.81 3.176-.81 1.711 0 3.106.524 4.184 1.571 1.086 1.047 1.691 2.469 1.816 4.266l.024.867c0 1.945-.543 3.508-1.629 4.688-1.086 1.171-2.543 1.757-4.371 1.757-1.828 0-3.289-.586-4.383-1.757-1.086-1.172-1.629-2.766-1.629-4.782v-.152Zm3.387.246c0 1.203.226 2.125.679 2.766.453.633 1.102.949 1.946.949.82 0 1.461-.313 1.922-.938.46-.632.691-1.64.691-3.023 0-1.18-.231-2.094-.691-2.742-.461-.649-1.11-.973-1.946-.973-.828 0-1.469.324-1.922.973-.453.64-.679 1.636-.679 2.988Zm25.222 1.29 2.297-12.142h3.504L141.086 42h-3.539l-2.777-11.414L131.992 42h-3.539l-3.785-17.063h3.504l2.308 12.118 2.813-12.117h2.977l2.8 12.14ZM154.508 42c-.156-.305-.27-.684-.34-1.137-.82.914-1.887 1.371-3.199 1.371-1.242 0-2.274-.359-3.094-1.078-.813-.718-1.219-1.625-1.219-2.718 0-1.344.496-2.376 1.489-3.094 1-.719 2.441-1.082 4.324-1.09h1.558v-.727c0-.586-.152-1.054-.457-1.406-.297-.352-.769-.527-1.418-.527-.57 0-1.019.136-1.347.41-.321.273-.481.648-.481 1.125h-3.386c0-.734.226-1.414.679-2.04.453-.624 1.094-1.112 1.922-1.464.828-.36 1.758-.54 2.789-.54 1.563 0 2.801.395 3.715 1.184.922.782 1.383 1.883 1.383 3.305v5.496c.008 1.203.176 2.114.504 2.73v.2h-3.422Zm-2.801-2.355c.5 0 .961-.11 1.383-.329.422-.226.734-.527.937-.902v-2.18h-1.265c-1.696 0-2.598.586-2.707 1.758l-.012.2c0 .421.148.769.445 1.042.297.274.703.41 1.219.41ZM164.602 42h-3.399V24h3.399v18Zm7.375 0h-3.399V24h3.399v18Zm9.636.234c-1.859 0-3.375-.57-4.547-1.71-1.164-1.141-1.746-2.66-1.746-4.56v-.327c0-1.274.246-2.41.739-3.41.492-1.008 1.187-1.782 2.086-2.32.906-.548 1.937-.821 3.093-.821 1.735 0 3.098.547 4.09 1.64 1 1.094 1.5 2.645 1.5 4.653v1.383h-8.074c.109.828.437 1.492.984 1.992.555.5 1.254.75 2.098.75 1.305 0 2.324-.473 3.059-1.418l1.664 1.863c-.508.719-1.196 1.282-2.063 1.688-.867.398-1.828.597-2.883.597Zm-.386-10.406c-.672 0-1.219.227-1.641.68-.414.453-.68 1.101-.797 1.945h4.711v-.27c-.016-.75-.219-1.328-.609-1.734-.391-.414-.946-.62-1.664-.62Zm12.589-5.625v3.117h2.168v2.485h-2.168v6.328c0 .469.09.804.27 1.008.18.203.523.304 1.031.304.375 0 .707-.027.996-.082v2.567a6.97 6.97 0 0 1-2.051.304c-2.374 0-3.585-1.199-3.632-3.597v-6.832h-1.852V29.32h1.852v-3.117h3.386Z"></path>
        <path fill="url(#6be08964-9004-41d4-b99c-f2a522c21f73_comp-ltovz3lr)" d="M25.029 49.656a20.267 20.267 0 0 1-3.826-1.108l-.327-5.994.703-3.38 3.408 10.357.042.125Z"></path>
        <path fill="url(#c96dc094-031d-4c99-8915-e73a71dc00c9_comp-ltovz3lr)" d="m36.754 42.553-.348 5.96c-.163.067-.327.13-.49.193a15.325 15.325 0 0 1-.743.262 20.476 20.476 0 0 1-2.629.679l.012-.039.004-.015 3.45-10.575.744 3.535Z"></path>
        <path fill="url(#60648e0f-00d6-4da8-a011-032a2a0688ef_comp-ltovz3lr)" d="m33.286 46.862-1.843 2.96-.093.012c-.035.004-.069.01-.103.013a1.364 1.364 0 0 1-.087.01l-.192.023a20.872 20.872 0 0 1-2.172.12h-.035a19.89 19.89 0 0 1-2.134-.113 3.386 3.386 0 0 1-.173-.019l-.094-.011-.089-.011-.099-.012-1.84-2.974-.406-7.263 1.937 5.26 2.303.416 1.46-.004 2.185-.43 1.663-5.046-.188 7.069Z"></path>
        <path fill="url(#c7aba201-0038-4a95-9f47-28bd93897680_comp-ltovz3lr)" d="m31.47 26.365 2.943 1.694.008 1.946-2.95-3.64Z"></path>
        <path fill="url(#08ab994b-6cf8-47c0-a0ca-1f8f1f673a33_comp-ltovz3lr)" d="m41.773 27.205 2.038-.498-.962 3.246-1.076-2.748Z"></path>
        <path fill="url(#052f5af6-613e-472f-ac68-78074328f097_comp-ltovz3lr)" d="m34.42 30.005.3 3.16 1.442-2.098 1.69-2.668-3.431 1.606Z"></path>
        <path fill="url(#b1dbaa8b-ad5a-4299-9d10-d8a41a486aa0_comp-ltovz3lr)" d="m41.773 27.205-2.417.639-1.506.555-1.69 2.668-1.44 2.099 1.99.102 3.74-.703 2.4-2.611-1.077-2.749Z"></path>
        <path fill="url(#c62519aa-3cc8-4b39-9e50-a0732dcef4dc_comp-ltovz3lr)" d="m33.29 34.37 1.43-1.205.417 1.207-1.847-.002Z"></path>
        <path fill="url(#160a2c0e-2de8-43c4-8045-56551aa4a33d_comp-ltovz3lr)" d="m34.72 33.165 1.99.102-1.574 1.105-.416-1.207Z"></path>
        <path fill="url(#0f32930a-9074-4485-9cef-7a87b7f97d3d_comp-ltovz3lr)" d="m33.288 34.37 1.848.003-1.979 1.433.132-1.435Z"></path>
        <path fill="url(#08639c8d-ed88-4018-ab60-4d57c55c2f81_comp-ltovz3lr)" d="m31.47 26.365 2.95 3.64-1.815 1.779-1.134-5.419Z"></path>
        <path fill="url(#bdde5dcd-b254-443c-b4ac-d75b0075d7ec_comp-ltovz3lr)" d="m33.288 34.37 1.432-1.204-2.116-1.382.684 2.587Z"></path>
        <path fill="url(#a90d3632-b249-4743-9fe5-475636d1b849_comp-ltovz3lr)" d="m34.42 30.005.3 3.16-2.116-1.38 1.815-1.78Z"></path>
        <path fill="url(#20f358d4-a1ec-4458-9181-77280e569af6_comp-ltovz3lr)" d="m32.605 31.784-1.76 5.27 2.313-1.248.131-1.435-.684-2.587Z"></path>
        <path fill="url(#09def3d9-7799-4dcc-87c7-ed78e3f4b57d_comp-ltovz3lr)" d="m32.754 37.568.404-1.762-2.313 1.249 1.006 2.836 1.495.332-.592-2.655Z"></path>
        <path fill="url(#3242fc25-1183-4425-b936-c92460260ce4_comp-ltovz3lr)" d="M31.476 41.893 30 44.063l-.373 1.206 2.186-.43-.337-2.946Z"></path>
        <path fill="url(#1d616ace-9e8f-44c1-b0f8-b3a6c2eecc3b_comp-ltovz3lr)" d="m23.146 30.024-.015-1.947 2.923-1.705-2.908 3.652Z"></path>
        <path fill="url(#566968b6-d876-4adc-9add-aba2c00e893d_comp-ltovz3lr)" d="m14.69 30.002-1.01-3.25 2.055.492-1.045 2.758Z"></path>
        <path fill="url(#893d172d-ff5a-4e76-8ebe-30fda4acdddd_comp-ltovz3lr)" d="m23.145 30.024-.319 3.164-1.412-2.096-1.728-2.665 3.46 1.597Z"></path>
        <path fill="url(#29affbb7-7280-40b6-b11e-41bd262c5025_comp-ltovz3lr)" d="m15.736 27.244 2.435.633 1.516.551 1.728 2.665 1.412 2.096-1.935.11-3.763-.69-2.438-2.607 1.045-2.758Z"></path>
        <path fill="url(#cde0eab0-3b0f-4304-9d10-3406469af858_comp-ltovz3lr)" d="m22.48 34.4.346-1.21 1.505 1.199-1.85.011Z"></path>
        <path fill="url(#d303c9d2-4ad9-4377-91b4-102d03e01d7e_comp-ltovz3lr)" d="m22.48 34.4-1.589-1.1 1.935-.11-.346 1.21Z"></path>
        <path fill="url(#d7dfe489-2b67-400b-82bb-22fe00dd5f16_comp-ltovz3lr)" d="M24.482 35.825 22.48 34.4l1.851-.012.15 1.437Z"></path>
        <path fill="url(#ae27efef-c536-455e-9712-8b89674affad_comp-ltovz3lr)" d="m24.985 31.799-1.84-1.775 2.908-3.652-1.068 5.427Z"></path>
        <path fill="url(#353feb55-c107-40e8-be11-2eddaae47a5e_comp-ltovz3lr)" d="m24.985 31.8-2.16 1.388 1.506 1.2.654-2.589Z"></path>
        <path fill="url(#dd9a3f76-d077-4d2e-8ed5-f9f1cb92f580_comp-ltovz3lr)" d="m24.985 31.8-2.16 1.39.32-3.165 1.84 1.775Z"></path>
        <path fill="url(#31303acc-fc80-40ef-963e-3e6f7e9c9d70_comp-ltovz3lr)" d="m24.984 31.8 1.709 5.237-2.213-1.212-.15-1.437.654-2.589Z"></path>
        <path fill="url(#02269bc5-18c2-4a83-b0c7-0c1aa440f726_comp-ltovz3lr)" d="m26.24 41.91-.4-2.004 3.023.237-2.623 1.766Z"></path>
        <path fill="url(#aa1c85b7-e828-45ad-8d93-eabda4fc9bff_comp-ltovz3lr)" d="m24.482 35.825.484 1.669-.846 2.803 1.72-.391.854-2.868-2.212-1.213Z"></path>
        <path fill="url(#e802322f-a953-40b1-a2c9-f33a21dcc8f9_comp-ltovz3lr)" d="m26.24 41.91 1.429 2.16.498 1.205-2.304-.418.377-2.948Z"></path>
        <path fill="url(#472af21d-31e1-418b-934b-2d44975cf0ef_comp-ltovz3lr)" d="m30 44.064-1.15-.116v-.004l-.015.002-.016-.002v.004l-1.15.122.498 1.205 1.46-.006.373-1.205Z"></path>
        <path fill="url(#f1405e16-ba9f-4af2-a319-e821ab66bec5_comp-ltovz3lr)" d="m31.476 41.894-2.613-1.73v-.021l-.015.01-.015-.01v.02L26.24 41.91l1.43 2.16 1.165-.123 1.165.118 1.476-2.17Z"></path>
        <path fill="url(#a6eb7a5e-69e4-4835-9b45-bb8d189d37db_comp-ltovz3lr)" d="m30.845 37.054 1.76-5.27-3.807.236-3.812-.22 1.708 5.237-.853 2.868 2.991.236v.002l.016-.002.015.002v-.002l2.988-.25-1.006-2.837Z"></path>
        <path fill="url(#bcb48d97-9852-45f8-ab00-f40b2f1b9ab9_comp-ltovz3lr)" d="m28.813 32.02 3.792-.236-1.134-5.419-2.718.633-2.7-.625-1.067 5.426 3.797.22v.002l.015-.002.015.002v-.002Z"></path>
        <path fill="url(#b0089c9c-f7db-4b2f-8318-e0aeded73b0c_comp-ltovz3lr)" d="m31.85 39.89-.374 2.003.336 2.946 1.534-4.617-1.496-.332Z"></path>
        <path fill="url(#1b9351fc-0ece-4638-a2ce-198ec47d35a9_comp-ltovz3lr)" d="m25.84 39.906-1.72.391 1.743 4.56.377-2.948-.4-2.003Z"></path>
        <path fill="url(#a49b4feb-81be-4a8f-a15c-49b368a61b09_comp-ltovz3lr)" d="m25.84 39.906-1.72.391-1.64-5.898 2.002 1.426 1.31 1.676.048 2.405Z"></path>
        <path fill="url(#9b778791-d79c-41e7-8121-96186bd7c8e7_comp-ltovz3lr)" d="m31.85 39.89 1.496.332 1.79-5.85-1.978 1.433-1.257 1.931-.05 2.153Z"></path>
        <path fill="url(#4b53b1ff-f577-4a72-b43f-2450053a6235_comp-ltovz3lr)" d="m28.832 40.142 3.018-.252-.375 2.003-2.643-1.75Z"></path>
        <path fill="url(#1bcb66e1-f23c-4536-9a80-2a33f3025c16_comp-ltovz3lr)" d="M27.586 40.974h2.69l-1.443-.831-1.247.83Z"></path>
        <path fill="url(#2c7087d0-2eb9-40f3-9e3b-9f15e2511c46_comp-ltovz3lr)" d="m49.861 22.792-1.142.443-.281-.268.09-.696 5.068-5.624 3.927-8.026-.76-.196L53.5 14.78l.091-1.011 1.135-7.19-.844-6.377L53.18 0l.304 5.561-2.003 9.488-2.575 3.482-.295-2.332 1.667-4.144.346-5.637-.588-.024-.425 4.057-1.559 3.823-.629.583-.412-.703-.073-4.09-.616.059-.169 5.12.171 4.309-1.858 1.602-3.532 1.581-2.579.32 2.859-3.783-.187-2.14-.258.029-.21.946-4.059 5.388-2.14.574-2.875 2.323 2.926 1.667 1.32-1.58 1.366-.376 2.908-.519 1.739-.31 3.206-.188 3.61-.21 5.87-4.348-.463-.718-4.105 2.982Z"></path>
        <path fill="url(#f0763171-806c-49cd-82ad-1e177396b58f_comp-ltovz3lr)" d="m20.952 23.517-4.078-5.378-.215-.943-.257-.029-.17 2.133 2.87 3.775-2.57-.322-3.518-1.579-1.857-1.598.14-4.292-.201-5.1-.612-.056-.044 4.073-.403.7-.629-.58-1.57-3.802-.448-4.04-.582.026.38 5.609 1.68 4.122-.28 2.323-2.57-3.467L3.971 5.66 4.235.13l-.692.203-.795 6.342 1.171 7.147.095 1.005L.751 8.514 0 8.71l3.934 7.973 5.054 5.6.093.69-.275.267-1.135-.441-4.085-2.97-.452.714 5.84 4.33 3.583.218 3.186.192 1.731.314 2.9.522 1.365.379 1.391 1.579 2.924-1.705-2.965-2.279-2.137-.576Z"></path>
        <path fill="url(#74c37f86-3dba-467c-a7ad-5b763b3be774_comp-ltovz3lr)" d="m26.272 49.847-.099-.01c-.26-.035-.519-.073-.775-.115l-.114-.019-.253-.046A20.256 20.256 0 0 1 22.446 49l-.585-2.923-.28-6.9.901-4.774 1.64 5.898.213 6.564 1.937 2.982Z"></path>
        <path fill="url(#2007d8e0-0ecd-4957-b752-79a9f008c0b7_comp-ltovz3lr)" d="m36.038 39.173-.279 6.9-.011.01-.578 2.882a20.452 20.452 0 0 1-2.629.679c-.085.014-.17.032-.256.047l-.061.011-.01.002c-.256.044-.514.084-.775.118l-.093.011 1.935-2.974.059-6.639 1.792-5.848.874 4.647.032.154Z"></path>
        <defs fill="none">
            <linearGradient gradientUnits="userSpaceOnUse" y2="44" x2="133" y1="24" x1="133" id="340202a2-1b81-44bc-a248-0dbcbfbe9682_comp-ltovz3lr">
                <stop stop-color="#00C77A"></stop>
                <stop stop-color="#01A1B5" offset="1"></stop>
            </linearGradient>
            <linearGradient gradientUnits="userSpaceOnUse" y2="53.908" x2="22.953" y1="21.458" x1="22.953" id="6be08964-9004-41d4-b99c-f2a522c21f73_comp-ltovz3lr">
                <stop stop-color="#00E0A4"></stop>
                <stop stop-color="#00182E" offset="1"></stop>
            </linearGradient>
            <linearGradient gradientUnits="userSpaceOnUse" y2="-2692.85" x2="10177.2" y1="-20838.9" x1="10177.2" id="c96dc094-031d-4c99-8915-e73a71dc00c9_comp-ltovz3lr">
                <stop stop-color="#00E0A4"></stop>
                <stop stop-color="#00182E" offset="1"></stop>
            </linearGradient>
            <linearGradient gradientUnits="userSpaceOnUse" y2="32.284" x2="28.7" y1="55.446" x1="28.7" id="60648e0f-00d6-4da8-a011-032a2a0688ef_comp-ltovz3lr">
                <stop stop-color="#00E0B5"></stop>
                <stop stop-color="#000B08" offset="1"></stop>
            </linearGradient>
            <linearGradient gradientUnits="userSpaceOnUse" y2="29.561" x2="35.075" y1="26.015" x1="32.017" id="c7aba201-0038-4a95-9f47-28bd93897680_comp-ltovz3lr">
                <stop stop-color="#00917B"></stop>
                <stop stop-color="#00BD86" offset="1"></stop>
            </linearGradient>
            <linearGradient gradientUnits="userSpaceOnUse" y2="27.978" x2="45.071" y1="25.942" x1="42.252" id="08ab994b-6cf8-47c0-a0ca-1f8f1f673a33_comp-ltovz3lr">
                <stop stop-color="#004F75"></stop>
                <stop stop-color="#006186" offset="1"></stop>
            </linearGradient>
            <linearGradient gradientUnits="userSpaceOnUse" y2="27.153" x2="40.101" y1="32.222" x1="33.893" id="052f5af6-613e-472f-ac68-78074328f097_comp-ltovz3lr">
                <stop stop-color="#00E0A3"></stop>
                <stop stop-color="#00298F" offset="1"></stop>
            </linearGradient>
            <linearGradient gradientUnits="userSpaceOnUse" y2="24.034" x2="47.166" y1="32.599" x1="36.677" id="b1dbaa8b-ad5a-4299-9d10-d8a41a486aa0_comp-ltovz3lr">
                <stop stop-color="#00E094"></stop>
                <stop stop-color="#000051" offset="1"></stop>
            </linearGradient>
            <linearGradient gradientUnits="userSpaceOnUse" y2="34.191" x2="33.438" y1="33.672" x1="35.267" id="c62519aa-3cc8-4b39-9e50-a0732dcef4dc_comp-ltovz3lr">
                <stop stop-color="#005773"></stop>
                <stop stop-color="#003B1B" offset="1"></stop>
            </linearGradient>
            <linearGradient gradientUnits="userSpaceOnUse" y2="-39254.8" x2="50335.8" y1="-39389.4" x1="50278.4" id="160a2c0e-2de8-43c4-8045-56551aa4a33d_comp-ltovz3lr">
                <stop stop-color="#00E094"></stop>
                <stop stop-color="#000051" offset="1"></stop>
            </linearGradient>
            <linearGradient gradientUnits="userSpaceOnUse" y2="36.403" x2="34.989" y1="34.415" x1="33.535" id="0f32930a-9074-4485-9cef-7a87b7f97d3d_comp-ltovz3lr">
                <stop stop-color="#000700"></stop>
                <stop stop-color="#002B16" offset="1"></stop>
            </linearGradient>
            <linearGradient gradientUnits="userSpaceOnUse" y2="29.811" x2="35.896" y1="26.483" x1="31.439" id="08639c8d-ed88-4018-ab60-4d57c55c2f81_comp-ltovz3lr">
                <stop stop-color="#00ABB5"></stop>
                <stop stop-color="#00AD95" offset="1"></stop>
            </linearGradient>
            <linearGradient gradientUnits="userSpaceOnUse" y2="34.364" x2="35.066" y1="31.849" x1="32.669" id="bdde5dcd-b254-443c-b4ac-d75b0075d7ec_comp-ltovz3lr">
                <stop stop-color="#00C77A"></stop>
                <stop stop-color="#00C797" offset="1"></stop>
            </linearGradient>
            <linearGradient gradientUnits="userSpaceOnUse" y2="32.605" x2="35.445" y1="29.713" x1="32.69" id="a90d3632-b249-4743-9fe5-475636d1b849_comp-ltovz3lr">
                <stop stop-color="#00D4B0"></stop>
                <stop stop-color="#00A1B5" offset="1"></stop>
            </linearGradient>
            <linearGradient gradientUnits="userSpaceOnUse" y2="32.837" x2="34.163" y1="39.519" x1="25.979" id="20f358d4-a1ec-4458-9181-77280e569af6_comp-ltovz3lr">
                <stop stop-color="#00E088"></stop>
                <stop stop-color="#00E0B5" offset="1"></stop>
            </linearGradient>
            <linearGradient gradientUnits="userSpaceOnUse" y2="35.883" x2="35.082" y1="40.384" x1="30.206" id="09def3d9-7799-4dcc-87c7-ed78e3f4b57d_comp-ltovz3lr">
                <stop stop-color="#00E094"></stop>
                <stop stop-color="#00E0B5" offset="1"></stop>
            </linearGradient>
            <linearGradient gradientUnits="userSpaceOnUse" y2="-1285.54" x2="5082.64" y1="-943.566" x1="4415.95" id="3242fc25-1183-4425-b936-c92460260ce4_comp-ltovz3lr">
                <stop stop-color="#00C77A"></stop>
                <stop stop-color="#00C797" offset="1"></stop>
            </linearGradient>
            <linearGradient gradientUnits="userSpaceOnUse" y2="-240751" x2="-151447" y1="-241291" x1="-150874" id="1d616ace-9e8f-44c1-b0f8-b3a6c2eecc3b_comp-ltovz3lr">
                <stop stop-color="#00917B"></stop>
                <stop stop-color="#00BD86" offset="1"></stop>
            </linearGradient>
            <linearGradient gradientUnits="userSpaceOnUse" y2="-220392" x2="-81558.8" y1="-220572" x1="-81194" id="566968b6-d876-4adc-9add-aba2c00e893d_comp-ltovz3lr">
                <stop stop-color="#004F75"></stop>
                <stop stop-color="#006186" offset="1"></stop>
            </linearGradient>
            <linearGradient gradientUnits="userSpaceOnUse" y2="-6242.87" x2="-25591.4" y1="-5412.1" x1="-24146.2" id="893d172d-ff5a-4e76-8ebe-30fda4acdddd_comp-ltovz3lr">
                <stop stop-color="#00E0A3"></stop>
                <stop stop-color="#00298F" offset="1"></stop>
            </linearGradient>
            <linearGradient gradientUnits="userSpaceOnUse" y2="-7556.44" x2="-60415.2" y1="-3955.94" x1="-57084.9" id="29affbb7-7280-40b6-b11e-41bd262c5025_comp-ltovz3lr">
                <stop stop-color="#00E094"></stop>
                <stop stop-color="#000051" offset="1"></stop>
            </linearGradient>
            <linearGradient gradientUnits="userSpaceOnUse" y2="-1370.84" x2="3281.09" y1="-1462.58" x1="3148.09" id="cde0eab0-3b0f-4304-9d10-3406469af858_comp-ltovz3lr">
                <stop stop-color="#005773"></stop>
                <stop stop-color="#003B1B" offset="1"></stop>
            </linearGradient>
            <linearGradient gradientUnits="userSpaceOnUse" y2="-38852.6" x2="-57970" y1="-39033.2" x1="-57891.4" id="d303c9d2-4ad9-4377-91b4-102d03e01d7e_comp-ltovz3lr">
                <stop stop-color="#00E094"></stop>
                <stop stop-color="#000051" offset="1"></stop>
            </linearGradient>
            <linearGradient gradientUnits="userSpaceOnUse" y2="-42375.5" x2="-55728.2" y1="-42563.2" x1="-55633.5" id="d7dfe489-2b67-400b-82bb-22fe00dd5f16_comp-ltovz3lr">
                <stop stop-color="#000700"></stop>
                <stop stop-color="#002B16" offset="1"></stop>
            </linearGradient>
            <linearGradient gradientUnits="userSpaceOnUse" y2="-579209" x2="-187179" y1="-579591" x1="-186319" id="ae27efef-c536-455e-9712-8b89674affad_comp-ltovz3lr">
                <stop stop-color="#00ABB5"></stop>
                <stop stop-color="#00AD95" offset="1"></stop>
            </linearGradient>
            <linearGradient gradientUnits="userSpaceOnUse" y2="-126180" x2="-78240.7" y1="-126465" x1="-77920.8" id="353feb55-c107-40e8-be11-2eddaae47a5e_comp-ltovz3lr">
                <stop stop-color="#00C77A"></stop>
                <stop stop-color="#00C797" offset="1"></stop>
            </linearGradient>
            <linearGradient gradientUnits="userSpaceOnUse" y2="-156233" x2="-81535.8" y1="-156543" x1="-81116.5" id="dd9a3f76-d077-4d2e-8ed5-f9f1cb92f580_comp-ltovz3lr">
                <stop stop-color="#00D4B0"></stop>
                <stop stop-color="#00A1B5" offset="1"></stop>
            </linearGradient>
            <linearGradient gradientUnits="userSpaceOnUse" y2="-5440.26" x2="-17284.2" y1="-4921.18" x1="-15702.2" id="31303acc-fc80-40ef-963e-3e6f7e9c9d70_comp-ltovz3lr">
                <stop stop-color="#00E088"></stop>
                <stop stop-color="#00E0B5" offset="1"></stop>
            </linearGradient>
            <linearGradient gradientUnits="userSpaceOnUse" y2="-68253" x2="-123528" y1="-68624.4" x1="-123404" id="02269bc5-18c2-4a83-b0c7-0c1aa440f726_comp-ltovz3lr">
                <stop stop-color="#00E094"></stop>
                <stop stop-color="#00E0B5" offset="1"></stop>
            </linearGradient>
            <linearGradient gradientUnits="userSpaceOnUse" y2="-4438.87" x2="5432.53" y1="-3835.69" x1="4384.32" id="aa1c85b7-e828-45ad-8d93-eabda4fc9bff_comp-ltovz3lr">
                <stop stop-color="#00E094"></stop>
                <stop stop-color="#00E0B5" offset="1"></stop>
            </linearGradient>
            <linearGradient gradientUnits="userSpaceOnUse" y2="-1717.02" x2="-15938" y1="-1344.62" x1="-15245.6" id="e802322f-a953-40b1-a2c9-f33a21dcc8f9_comp-ltovz3lr">
                <stop stop-color="#00C77A"></stop>
                <stop stop-color="#00C797" offset="1"></stop>
            </linearGradient>
            <linearGradient gradientUnits="userSpaceOnUse" y2="-1046.79" x2="4998.92" y1="-880.213" x1="4903.81" id="472af21d-31e1-418b-934b-2d44975cf0ef_comp-ltovz3lr">
                <stop stop-color="#00C77A"></stop>
                <stop stop-color="#00C797" offset="1"></stop>
            </linearGradient>
            <linearGradient gradientUnits="userSpaceOnUse" y2="42.106" x2="26.48" y1="42.106" x1="31.309" id="f1405e16-ba9f-4af2-a319-e821ab66bec5_comp-ltovz3lr">
                <stop stop-color="#004D45"></stop>
                <stop stop-color="#003630" offset=".11"></stop>
                <stop stop-color="#00221E" offset=".24"></stop>
                <stop stop-color="#001613" offset=".37"></stop>
                <stop stop-color="#00120F" offset=".5"></stop>
                <stop stop-color="#001512" offset=".67"></stop>
                <stop stop-color="#001E1A" offset=".78"></stop>
                <stop stop-color="#002D28" offset=".88"></stop>
                <stop stop-color="#00423B" offset=".97"></stop>
                <stop stop-color="#004D45" offset="1"></stop>
            </linearGradient>
            <linearGradient gradientUnits="userSpaceOnUse" y2="31.94" x2="28.795" y1="39.838" x1="28.795" id="a6eb7a5e-69e4-4835-9b45-bb8d189d37db_comp-ltovz3lr">
                <stop stop-color="#00C584"></stop>
                <stop stop-color="#00E0A9" offset="1"></stop>
            </linearGradient>
            <linearGradient gradientUnits="userSpaceOnUse" y2="24.613" x2="29.082" y1="32.625" x1="28.762" id="bcb48d97-9852-45f8-ab00-f40b2f1b9ab9_comp-ltovz3lr">
                <stop stop-color="#00C7B5"></stop>
                <stop stop-color="#00ABB5" offset="1"></stop>
            </linearGradient>
            <linearGradient gradientUnits="userSpaceOnUse" y2="39.612" x2="32.411" y1="45.029" x1="32.411" id="b0089c9c-f7db-4b2f-8318-e0aeded73b0c_comp-ltovz3lr">
                <stop stop-color="#007F9B"></stop>
                <stop stop-color="#00C693" offset="1"></stop>
            </linearGradient>
            <linearGradient gradientUnits="userSpaceOnUse" y2="-4968.31" x2="4075.03" y1="-3634.24" x1="4075.03" id="1b9351fc-0ece-4638-a2ce-198ec47d35a9_comp-ltovz3lr">
                <stop stop-color="#007F9B"></stop>
                <stop stop-color="#00C693" offset="1"></stop>
            </linearGradient>
            <linearGradient gradientUnits="userSpaceOnUse" y2="34.372" x2="19.727" y1="41.141" x1="28.12" id="a49b4feb-81be-4a8f-a15c-49b368a61b09_comp-ltovz3lr">
                <stop stop-color="#00C696"></stop>
                <stop stop-color="#00959B" offset="1"></stop>
            </linearGradient>
            <linearGradient gradientUnits="userSpaceOnUse" y2="-4364.66" x2="9095.32" y1="-3451.53" x1="7000.88" id="9b778791-d79c-41e7-8121-96186bd7c8e7_comp-ltovz3lr">
                <stop stop-color="#00C696"></stop>
                <stop stop-color="#00959B" offset="1"></stop>
            </linearGradient>
            <linearGradient gradientUnits="userSpaceOnUse" y2="-69366.2" x2="109265" y1="-69737.5" x1="109139" id="4b53b1ff-f577-4a72-b43f-2450053a6235_comp-ltovz3lr">
                <stop stop-color="#00E094"></stop>
                <stop stop-color="#00E0B5" offset="1"></stop>
            </linearGradient>
            <linearGradient gradientUnits="userSpaceOnUse" y2="-1907.61" x2="5519.56" y1="-1992.25" x1="5507.35" id="1bcb66e1-f23c-4536-9a80-2a33f3025c16_comp-ltovz3lr">
                <stop stop-color="#00E094"></stop>
                <stop stop-color="#00E0B5" offset="1"></stop>
            </linearGradient>
            <linearGradient gradientUnits="userSpaceOnUse" y2="-100815" x2="76269.9" y1="-44735.2" x1="76269.9" id="2c7087d0-2eb9-40f3-9e3b-9f15e2511c46_comp-ltovz3lr">
                <stop stop-color="#00E094"></stop>
                <stop stop-color="#000051" offset="1"></stop>
            </linearGradient>
            <linearGradient gradientUnits="userSpaceOnUse" y2="-100418" x2="33133.1" y1="-44559.1" x1="33133.1" id="f0763171-806c-49cd-82ad-1e177396b58f_comp-ltovz3lr">
                <stop stop-color="#00E094"></stop>
                <stop stop-color="#000051" offset="1"></stop>
            </linearGradient>
            <linearGradient gradientUnits="userSpaceOnUse" y2="35.002" x2="23.927" y1="51.348" x1="23.927" id="74c37f86-3dba-467c-a7ad-5b763b3be774_comp-ltovz3lr">
                <stop stop-color="#00E0AB"></stop>
                <stop stop-color="#00182E" offset="1"></stop>
            </linearGradient>
            <linearGradient gradientUnits="userSpaceOnUse" y2="-19339.3" x2="11103.3" y1="-6029.91" x1="11103.3" id="2007d8e0-0ecd-4957-b752-79a9f008c0b7_comp-ltovz3lr">
                <stop stop-color="#00E0AB"></stop>
                <stop stop-color="#00182E" offset="1"></stop>
            </linearGradient>
        </defs>
    </g>
</svg>