<svg width="45" height="34" viewBox="0 0 45 34" fill="none" xmlns="http://www.w3.org/2000/svg">
<g clip-path="url(#clip0_906_571)">
<path fill-rule="evenodd" clip-rule="evenodd" d="M11.2225 3C9.44276 3 8 4.47483 8 6.29412V27.7059C8 29.5252 9.44276 31 11.2225 31H41.8363C43.6161 31 45.0588 29.5252 45.0588 27.7059V6.29412C45.0588 4.47483 43.6161 3 41.8363 3H11.2225ZM32.4757 6.76518C31.8613 6.1371 30.8651 6.1371 30.2507 6.76518L21.3508 15.8628C20.7364 16.4909 20.7364 17.5091 21.3508 18.1372L30.2507 27.2348C30.8651 27.8629 31.8613 27.8629 32.4757 27.2348L37.4818 22.1174C37.789 21.8034 37.789 21.2943 37.4818 20.9802L35.2568 18.7058C34.9497 18.3918 34.4516 18.3918 34.1444 18.7058L32.1975 20.6959C31.7367 21.167 30.9896 21.167 30.5288 20.6959L27.7476 17.8529C27.2868 17.3819 27.2868 16.6181 27.7476 16.1471L30.5288 13.3041C30.9896 12.833 31.7367 12.833 32.1975 13.3041L34.1444 15.2942C34.4516 15.6082 34.9497 15.6082 35.2568 15.2942L37.4818 13.0198C37.789 12.7057 37.789 12.1966 37.4818 11.8826L32.4757 6.76518Z" fill="#FF0012"/>
</g>
<defs>
<clipPath id="clip0_906_571">
<rect width="45" height="34" fill="white"/>
</clipPath>
</defs>
</svg>
