<svg width="116" height="32" viewBox="0 0 116 32" fill="none" xmlns="http://www.w3.org/2000/svg">
<path d="M72.6236 27.3086L71.4219 30.6527L70.3339 27.3086H69.7053L68.6319 30.6556L67.4608 27.3086H66.7126L68.3592 31.955H68.9557L70.0276 28.6226L71.1127 31.955H71.7092L73.3557 27.3086H72.6236Z" fill="#4B6DDE"/>
<path d="M77.5662 27.3085V27.9108C77.4394 27.7841 77.2979 27.673 77.1447 27.5798C76.8143 27.3772 76.4327 27.2734 76.0451 27.2808C75.7335 27.2692 75.4229 27.324 75.1341 27.4414C74.8452 27.5588 74.5845 27.7362 74.3694 27.9619C74.1513 28.1892 73.981 28.458 73.8688 28.7524C73.7566 29.0468 73.7046 29.3607 73.716 29.6755C73.716 30.377 73.942 30.9458 74.3912 31.36C74.8363 31.7731 75.4249 31.9965 76.032 31.9827C76.315 31.992 76.5969 31.9437 76.8607 31.8406C77.1244 31.7376 77.3645 31.582 77.5662 31.3833V31.9535H78.2619V27.3085H77.5662ZM76.032 31.2914C75.8105 31.2933 75.5906 31.2547 75.383 31.1777C75.1919 31.1034 75.0196 30.9879 74.8783 30.8393C74.6541 30.6186 74.505 30.3328 74.4525 30.0226C74.4338 29.9098 74.4246 29.7957 74.4248 29.6813C74.4139 29.4529 74.4496 29.2247 74.5299 29.0105C74.6101 28.7964 74.7331 28.6009 74.8915 28.4359C75.0405 28.281 75.2199 28.1585 75.4184 28.076C75.6168 27.9934 75.8302 27.9526 76.0451 27.9561C76.2588 27.9529 76.4709 27.9941 76.6678 28.0771C76.8532 28.159 77.0173 28.2822 77.1477 28.4373C77.4374 28.7791 77.5874 29.2177 77.5677 29.6653C77.5781 29.8826 77.5447 30.0998 77.4695 30.304C77.3944 30.5082 77.279 30.6952 77.1302 30.8539C76.9864 30.9975 76.8148 31.1104 76.6261 31.1856C76.4373 31.2608 76.2351 31.2968 76.032 31.2914Z" fill="#4B6DDE"/>
<path d="M82.5963 25.1055H81.9021V31.941H82.5963V25.1055Z" fill="#4B6DDE"/>
<path d="M80.3795 25.1055H79.6853V31.941H80.3795V25.1055Z" fill="#4B6DDE"/>
<path d="M61.9611 28.2383H43.1912V29.0287H61.9611V28.2383Z" fill="#4B6DDE"/>
<path d="M115.379 28.2383H95.83V29.0287H115.379V28.2383Z" fill="#4B6DDE"/>
<path d="M86.0367 31.9991C85.5835 32.0133 85.1372 31.885 84.7607 31.6323C84.3843 31.3796 84.0965 31.0151 83.9381 30.5903C83.7319 29.9846 83.7319 29.3277 83.9381 28.722C84.0419 28.4401 84.2011 28.1817 84.4062 27.9622C84.6029 27.7461 84.8435 27.5745 85.1119 27.4588C85.3802 27.3431 85.6702 27.286 85.9624 27.2914C86.1135 27.2911 86.2644 27.3047 86.413 27.3322C86.5524 27.3592 86.6888 27.4003 86.8199 27.4547C87.0735 27.5629 87.3001 27.7258 87.4835 27.9316C87.8787 28.3137 88.08 28.8489 88.08 29.5242C88.0898 29.6167 88.0773 29.7102 88.0435 29.7969L87.9881 29.9063H84.5069C84.552 30.2609 84.7047 30.5933 84.9444 30.8586C85.0805 31.0022 85.2455 31.1154 85.4285 31.1908C85.6115 31.2662 85.8083 31.3021 86.0061 31.2961C86.2562 31.3041 86.5044 31.2516 86.7299 31.1432C86.9553 31.0348 87.1513 30.8736 87.3012 30.6734L87.431 30.5173L87.9546 30.9724L87.8379 31.1182C87.6296 31.398 87.3575 31.6239 87.0442 31.7771C86.7309 31.9304 86.3854 32.0065 86.0367 31.9991ZM84.5316 29.2281H87.3625C87.3231 28.9024 87.1841 28.5967 86.9643 28.3531C86.8404 28.224 86.6906 28.1227 86.5247 28.0558C86.3587 27.9889 86.1805 27.958 86.0017 27.9651C85.814 27.9631 85.6276 27.9984 85.4536 28.069C85.2796 28.1396 85.1214 28.2441 84.9881 28.3764C84.7452 28.602 84.5846 28.9023 84.5316 29.2296V29.2281Z" fill="#4B6DDE"/>
<path d="M90.4995 31.9832C89.9468 31.9832 89.6813 31.7775 89.5574 31.604C89.3896 31.3692 89.3065 31.041 89.3065 30.5991V27.9857H88.71V27.3075H89.3065V25.8127L89.9861 25.7441V27.3207H91.6488V28.0003H89.9803V30.4912C89.9626 30.7224 90.0022 30.9543 90.0955 31.1665C90.1174 31.2058 90.1874 31.3225 90.4791 31.3225C90.7493 31.3251 91.0134 31.2429 91.2346 31.0877L91.4577 30.9317L91.6663 31.6259L91.5204 31.7017C91.2091 31.8797 90.858 31.9765 90.4995 31.9832Z" fill="#4B6DDE"/>
<path d="M55.2232 0.898438L49.7657 9.70424L44.4221 0.991775L44.3652 0.898438H42.8499L49.143 11.0956V19.4916H50.4162V11.097L56.7385 0.898438H55.2232Z" fill="#4B6DDE"/>
<path d="M72.2911 3.40191C70.6081 1.65184 68.4846 0.763672 65.9834 0.763672C63.3889 0.763672 61.2319 1.67809 59.5663 3.48067C57.9008 5.28325 57.0812 7.51022 57.0812 10.1645C57.0812 12.8188 57.9198 15.0793 59.5722 16.8731C61.2246 18.667 63.3889 19.5901 65.9892 19.5901C68.4788 19.5901 70.5978 18.702 72.2969 16.9431C73.996 15.1843 74.8331 12.9209 74.8331 10.1645C74.8331 7.40813 73.9799 5.15637 72.2911 3.40191ZM73.5424 10.1791C73.5424 12.5607 72.8132 14.5382 71.3621 16.0448C69.9109 17.5513 68.1214 18.3097 66.0126 18.3097C63.8133 18.3097 61.9727 17.5236 60.5391 15.9762C59.104 14.3997 58.3923 12.4542 58.3923 10.1791C58.3923 7.90399 59.104 5.95994 60.5245 4.41842C61.945 2.87689 63.771 2.09373 66.0067 2.09373C68.1623 2.09373 69.9124 2.83022 71.3519 4.34404C72.7913 5.85785 73.5322 7.80336 73.5322 10.1776L73.5424 10.1791Z" fill="#4B6DDE"/>
<path d="M85.0071 11.8131C86.4072 11.6804 87.5856 11.1758 88.4971 10.3109C89.4509 9.38777 89.9366 8.04605 89.9366 6.32951C89.9366 4.69319 89.4524 3.37188 88.5015 2.38309C87.5506 1.39429 86.0965 0.898438 84.1889 0.898438H78.1306V19.4916H79.4155V11.8452H83.4845L88.7771 19.4916H90.3507L85.0071 11.8131ZM88.6211 6.31493C88.6211 9.1836 87.0445 10.5778 83.8083 10.5778H79.4024V2.19641H84.2487C85.6182 2.19641 86.7047 2.54497 87.4806 3.23042C88.2565 3.91586 88.6211 4.93528 88.6211 6.31201V6.31493Z" fill="#4B6DDE"/>
<path d="M107.378 3.40191C105.693 1.65184 103.571 0.763672 101.069 0.763672C98.4742 0.763672 96.3172 1.67809 94.6516 3.48067C92.9861 5.28325 92.1621 7.51168 92.1621 10.1645C92.1621 12.8173 93.0022 15.0793 94.6531 16.8731C96.304 18.667 98.4698 19.5901 101.07 19.5901C103.561 19.5901 105.68 18.702 107.379 16.9431C109.078 15.1843 109.907 12.9209 109.907 10.1645C109.907 7.40813 109.058 5.15637 107.378 3.40191ZM108.622 10.1791C108.622 12.5607 107.893 14.5382 106.443 16.0448C104.993 17.5513 103.216 18.3097 101.096 18.3097C98.8986 18.3097 97.0566 17.5236 95.6244 15.9762C94.1893 14.4011 93.4776 12.4556 93.4776 10.1805C93.4776 7.90545 94.1937 5.95119 95.6098 4.41987C97.026 2.88856 98.8607 2.09519 101.083 2.09519C103.24 2.09519 104.989 2.83168 106.431 4.3455C107.874 5.85931 108.619 7.80482 108.619 10.1791H108.622Z" fill="#4B6DDE"/>
<path d="M114.639 19.4916H113.368V0.898438H114.639V19.4916Z" fill="#4B6DDE"/>
<path d="M26.5272 22.8006L23.87 24.6469L4.30082 11.1232C4.30195 11.0963 4.2995 11.0693 4.29353 11.043V7.43783L26.5272 22.8006ZM21.0669 5.3494C19.8855 6.15881 18.6925 6.95364 17.5112 7.76159C17.452 7.81728 17.3738 7.84827 17.2925 7.84827C17.2112 7.84827 17.1329 7.81728 17.0737 7.76159C15.6153 6.74072 14.1452 5.7388 12.6838 4.72958C11.1447 3.66009 9.60754 2.5906 8.0723 1.52111L5.89925 0H0.621216C0.901233 0.195425 1.13166 0.361683 1.36355 0.522106L5.49964 3.38932L9.59052 6.23465C10.8725 7.12719 12.153 8.02119 13.4364 8.91373C14.6556 9.7596 15.8778 10.5953 17.097 11.4426C17.1463 11.4869 17.2102 11.5114 17.2764 11.5114C17.3426 11.5114 17.4065 11.4869 17.4558 11.4426C18.4402 10.7674 19.4349 10.1052 20.4135 9.43146C22.85 7.76208 25.2851 6.0893 27.7187 4.41311L33.0361 0.778785C33.4037 0.52794 33.7654 0.27272 34.1533 0H28.8592C26.2603 1.78216 23.6629 3.5653 21.0669 5.3494ZM4.32124 16.4332C4.30964 16.4556 4.30035 16.479 4.29353 16.5032V20.0442C4.29464 20.0715 4.30108 20.0982 4.31249 20.123L17.3741 29.1519H17.3931L20.0503 27.3085L4.32124 16.4332ZM30.4154 7.44512L20.695 14.1669C20.7254 14.2083 20.7596 14.2469 20.7971 14.2821C21.6196 14.8655 22.4422 15.4449 23.2647 16.0205C23.2919 16.0351 23.3231 16.0408 23.3537 16.0365L30.392 11.164C30.4017 11.1429 30.4095 11.1209 30.4154 11.0984V7.44512ZM30.4226 16.5718C29.3186 17.3331 28.254 18.0695 27.1762 18.8148L29.7022 20.6057L30.4226 20.1055V16.5718Z" fill="#4B6DDE"/>
</svg>
