<svg width="28" height="24" viewBox="0 0 28 24" fill="none" xmlns="http://www.w3.org/2000/svg">
    <path
        d="M21.632 18.7711L19.4132 20.2912L3.07255 9.15744C3.07349 9.13526 3.07144 9.11305 3.06646 9.0914V6.12337L21.632 18.7711ZM17.0725 4.40402C16.0861 5.07039 15.0899 5.72475 14.1035 6.38991C14.0541 6.43576 13.9887 6.46128 13.9208 6.46128C13.853 6.46128 13.7876 6.43576 13.7382 6.38991C12.5204 5.54945 11.2928 4.7246 10.0725 3.89374C8.78735 3.01326 7.50377 2.13277 6.22182 1.25229L4.40727 0H0C0.23382 0.160888 0.426235 0.297764 0.619868 0.429836L4.07359 2.79033L7.48956 5.13282C8.56002 5.86763 9.62926 6.60363 10.7009 7.33844C11.719 8.03482 12.7396 8.7228 13.7577 9.42038C13.7988 9.45683 13.8521 9.477 13.9074 9.477C13.9628 9.477 14.0161 9.45683 14.0572 9.42038C14.8793 8.86448 15.7098 8.31938 16.527 7.76467C18.5615 6.39031 20.5949 5.01316 22.627 3.6332L27.0672 0.641153C27.374 0.434639 27.6761 0.224523 28 0H23.5793C21.4092 1.46721 19.2403 2.93521 17.0725 4.40402ZM3.0896 13.529C3.07991 13.5474 3.07216 13.5667 3.06646 13.5867V16.5019C3.06739 16.5243 3.07276 16.5463 3.08229 16.5667L13.989 24H14.0049L16.2237 22.4824L3.0896 13.529ZM24.8787 6.12937L16.762 11.6632C16.7874 11.6973 16.816 11.7291 16.8473 11.7581C17.5341 12.2383 18.2209 12.7154 18.9078 13.1893C18.9305 13.2013 18.9565 13.2059 18.9821 13.2025L24.8593 9.19106C24.8674 9.17365 24.8739 9.15557 24.8787 9.13703V6.12937ZM24.8848 13.6431C23.9629 14.2698 23.0739 14.8762 22.174 15.4897L24.2832 16.9641L24.8848 16.5523V13.6431Z"
        fill="white" />
</svg>